<?xml version="1.0" encoding="UTF-8"?>
<svg width="500" height="164" version="1.1" viewBox="0 0 500 164" xml:space="preserve" xmlns="http://www.w3.org/2000/svg" xmlns:cc="http://creativecommons.org/ns#" xmlns:dc="http://purl.org/dc/elements/1.1/" xmlns:rdf="http://www.w3.org/1999/02/22-rdf-syntax-ns#" xmlns:xlink="http://www.w3.org/1999/xlink"><metadata><rdf:RDF><cc:Work rdf:about=""><dc:format>image/svg+xml</dc:format><dc:type rdf:resource="http://purl.org/dc/dcmitype/StillImage"/><dc:title/></cc:Work></rdf:RDF></metadata><defs><linearGradient id="linearGradient2486" x2="1" gradientTransform="matrix(228.77 132.08 132.08 -228.77 815.48 101.47)" gradientUnits="userSpaceOnUse"><stop stop-color="#232c64" stop-opacity=".024194" offset="0"/><stop stop-color="#232c64" offset=".15492"/><stop stop-color="#232c64" offset=".16384"/><stop stop-color="#232c64" offset="1"/></linearGradient></defs><g transform="matrix(1.3333 0 0 -1.3333 -1058.7 316)"><path d="m933.19 213.01c-1.554-0.0151-3.0325-0.10576-4.5736-0.14245h-0.0151c-73.782-3.9628-130.85-30.822-130.85-63.366 0-9.048 5.7521-18.325 13.71-26.13-4.2283 5.9075-6.5248 12.184-6.5248 18.681 0 33.252 59.589 60.567 135.7 63.586 1.09 0.0108 2.1757 0.0324 3.2743 0.0324 56.805 0 106.02-13.568 131.6-33.375-21.314 23.6-73.582 40.34-136.14 40.802l0.013 6e-3c-2.0505-0.0453-4.1722-0.0129-6.1989-0.095" fill="url(#linearGradient2486)"/><g fill="#232d65"><path d="m842.77 144.4c-0.87199-0.49858-2.9376-1.1116-5.5514-1.1116-7.5198 0-11.392 5.5946-11.392 12.989 0 8.8127 5.2924 13.678 11.875 13.678 2.5512 0 4.4873-0.61298 5.3571-1.1483l-1.0317-4.5974c-0.96912 0.49643-2.3548 0.95617-4.1312 0.95617-3.8722 0-6.9068-2.7973-6.9068-8.5818 0-5.1715 2.5836-8.4285 6.9392-8.4285 1.5174 0 3.1297 0.34318 4.1312 0.84177z"/><path d="m855.23 155.25c0 1.3792-0.51585 3.7944-2.7433 3.7944-2.098 0-2.9354-2.262-3.0649-3.7944zm-5.7759-3.9844c0.15973-2.4519 2.1627-3.6024 4.4528-3.6024 1.6792 0 3.0347 0.26764 4.3578 0.80508l0.64536-3.9455c-1.6145-0.80509-3.5829-1.1893-5.7133-1.1893-5.3571 0-8.422 3.6779-8.422 9.579 0 4.7528 2.5167 9.9998 7.9709 9.9998 5.0981 0 7.0342-4.7118 7.0342-9.348 0-0.99718-0.095-1.8778-0.15973-2.3375z"/><path d="m863.13 156.47c0 2.3375-0.0648 4.2909-0.1295 5.9766h4.2607l0.22448-2.6052h0.0993c0.6432 1.226 2.2253 3.0261 4.8715 3.0261 3.2268 0 5.6485-2.5663 5.6485-8.0832v-11.073h-4.906v10.382c0 2.4152-0.71011 4.0621-2.4843 4.0621-1.3555 0-2.1627-1.1116-2.5167-2.1843-0.12951-0.38203-0.16188-0.91947-0.16188-1.4548v-10.805h-4.906z"/><path d="m887.76 167.54v-5.096h3.5182v-4.2909h-3.5182v-6.8205c0-2.2598 0.48348-3.2959 1.9361-3.2959 0.67774 0 1.0015 0.0388 1.4526 0.15325l0.0324-4.4053c-0.61299-0.26764-1.8087-0.49859-3.162-0.49859-1.5821 0-2.9052 0.65184-3.7124 1.6102-0.90221 1.1116-1.3555 2.9117-1.3555 5.5557v7.7012h-2.098v4.2909h2.098v3.5247z"/><path d="m894.57 156.28c0 2.7584-0.0324 4.5607-0.1295 6.1687h4.1959l0.19426-3.4858h0.12734c0.80724 2.7584 2.7109 3.9067 4.2607 3.9067 0.4511 0 0.67773-0.0388 1.0317-0.11439v-5.478c-0.41873 0.0755-0.80508 0.15108-1.3533 0.15108-1.8087 0-3.0347-1.1094-3.3563-2.9484-0.0669-0.3842-0.0971-0.80508-0.0971-1.3037v-9.4646h-4.906z"/><path d="m915.25 152.56c-2.5814 0-4.5823-0.72738-4.5823-2.9505 0-1.4936 0.83962-2.221 1.9361-2.221 1.1936 0 2.2253 0.95617 2.5491 2.1454 0.0648 0.30433 0.0971 0.64968 0.0971 0.99502zm4.7442-4.3297c0-1.7634 0.0648-3.4858 0.259-4.5218h-4.4225l-0.28923 1.8778h-0.0971c-1.0339-1.4936-2.6462-2.2987-4.5175-2.2987-3.1966 0-5.1003 2.7584-5.1003 5.7478 0 4.865 3.6779 7.1637 9.2617 7.1637v0.23095c0 0.99501-0.45111 2.4131-2.8728 2.4131-1.6123 0-3.3239-0.64968-4.3556-1.3792l-0.90436 3.7168c1.0986 0.72738 3.2592 1.6857 6.132 1.6857 5.26 0 6.9069-3.6779 6.9069-8.0853z"/><path d="m924.32 170.92h4.906v-27.204h-4.906z"/><path d="m945.62 169.54v-9.9631h8.1004v9.9631h4.906v-25.825h-4.906v10.768h-8.1004v-10.768h-4.906v25.825z"/><path d="m978.06 149.73c0-2.4519 0.0648-4.4441 0.1295-6.0154h-4.2607l-0.22448 2.644h-0.0993c-0.61083-1.1504-2.0958-3.0649-4.9362-3.0649-3.2268 0-5.5514 2.3742-5.5514 8.1609v10.997h4.906v-10.078c0-2.7196 0.74248-4.3686 2.4843-4.3686 1.3555 0 2.1627 1.1116 2.4541 2.031 0.12734 0.34534 0.19209 0.76623 0.19209 1.2648v11.15h4.906z"/><path d="m992.81 154.48c0 0.34534 0 0.72738-0.0648 1.0727-0.28923 1.5713-1.3555 2.8361-2.8728 2.8361-2.2577 0-3.3887-2.3764-3.3887-5.3269 0-3.1405 1.3231-5.1327 3.3563-5.1327 1.4202 0 2.5836 1.1483 2.8728 2.7951 0.0648 0.38419 0.0971 0.84393 0.0971 1.3037zm4.906 16.438v-21.61c0-2.1476 0.0647-4.3297 0.1295-5.5946h-4.3578l-0.19425 2.7196h-0.0971c-0.96696-2.0677-2.903-3.1405-4.9362-3.1405-3.7448 0-6.745 3.7923-6.745 9.6156-0.0324 6.2831 3.2916 9.9631 7.0666 9.9631 1.9684 0 3.4534-0.84393 4.1635-2.1088h0.0648v10.155z"/><path d="m1002 148.77c0.9044-0.65184 2.7757-1.3792 4.2283-1.3792 1.485 0 2.0979 0.57414 2.0979 1.5325 0 0.99718-0.4856 1.4548-2.2922 2.1843-3.2915 1.2648-4.5499 3.4103-4.5175 5.5946 0 3.5246 2.5167 6.1687 6.4212 6.1687 1.8411 0 3.4535-0.53744 4.4226-1.1116l-0.8396-3.9844c-0.7102 0.42089-2.098 1.0339-3.4211 1.0339-1.1936 0-1.8713-0.57413-1.8713-1.4936 0-0.91947 0.613-1.3792 2.549-2.1843 3.0024-1.1893 4.2283-3.0282 4.2607-5.7478 0-3.5246-2.2922-6.091-6.8097-6.091-2.0656 0-3.9045 0.57413-5.1003 1.3404z"/><path d="m1023.9 147.47c1.9361 0 3.1297 2.2598 3.1297 5.6334 0 2.7584-0.9022 5.5924-3.1297 5.5924-2.3246 0-3.2268-2.834-3.2268-5.6312 0-3.1815 1.1288-5.5946 3.1944-5.5946zm-0.097-4.1765c-4.6147 0-8.1652 3.6024-8.1652 9.6545 0 6.0543 3.3563 9.9243 8.4565 9.9243 4.8089 0 8.0357-3.9455 8.0357-9.6178 0-6.8184-4.0987-9.961-8.2947-9.961z"/><path d="m1035.5 156.47c0 2.3375-0.065 4.2909-0.1295 5.9766h4.2606l0.2245-2.6052h0.097c0.6454 1.226 2.2275 3.0261 4.8737 3.0261 3.2289 0 5.6485-2.5663 5.6485-8.0832v-11.073h-4.906v10.382c0 2.4152-0.7101 4.0621-2.4843 4.0621-1.3555 0-2.1627-1.1116-2.5189-2.1843-0.1273-0.38203-0.1597-0.91947-0.1597-1.4548v-10.805h-4.906z"/></g><path d="m1097.4 159.85 20.261-41.981-23.311 40.416-0.4144-33.354-3.1016 33.228-19.562-25.288 16.38 26.626-31.456-17.843 29.339 20.349-33.306-3.6088 32.745 6.6932-31.754 10.047 32.87-7.0774-23.95 18.528 26.486-16.363-9.6286 31.342 13.009-30.472 8.7976 48.091-5.3442-48.717 31.122 35.501-28.398-37.48 67.066 14.576-65.688-17.453 49.824-4.5715-50.107 1.4548 45.154-20.839z" fill="#f5cd26"/><g fill="#14783d"><path d="m804.56 188.17c0.38419 0.19426 0.70579 0.39283 1.1396 0.73601 1.7202 1.3598 2.0073 3.3174 0.93674 4.6708-0.94969 1.2001-2.1821 0.9389-3.3282 0.0324-0.50507-0.39715-0.8612-0.73385-1.0317-0.97991zm-5.1262 4.5197c0.57845 0.7317 1.5584 1.6706 2.616 2.5102 1.077 0.85041 2.4152 1.5519 3.6304 1.5497 1.0965 0.0432 2.0656-0.3993 2.8685-1.4138 1.0706-1.3533 1.2821-2.944 0.95186-4.2758-0.36261-1.4677-1.4181-2.8815-2.8081-3.9801-0.41657-0.33023-0.82235-0.56766-1.1612-0.77918l2.575-4.9708-1.9965-1.5799z"/><path d="m815.29 197.35c-1.3663-0.86335-1.5152-2.616-1.0965-3.857 2.2685 1.3835 3.5139 2.6052 2.8448 3.6628-0.36908 0.58276-1.0554 0.63241-1.7483 0.19425m6.4924-5.6636c-0.60867-1.0231-1.6771-2.031-2.78-2.7282-2.5253-1.5994-4.688-0.87415-6.0608 1.2929-1.6943 2.6786-1.5174 6.8723 1.6253 8.8624 1.7979 1.1353 3.5851 0.83746 4.5175-0.63888 1.4418-2.2771-0.54823-4.5564-4.1117-6.7083 0.15756-0.33455 0.61298-0.8871 1.0382-1.1029 0.73601-0.37772 1.5864-0.27196 2.4476 0.27196 1.0296 0.65183 1.69 1.4267 2.139 2.1692z"/><path d="m824.57 197.32c0.66479-1.2821 1.839-1.8152 2.998-1.213 1.7094 0.88494 1.6598 3.7729 0.69932 5.6291-0.49643 0.95833-1.5432 1.921-2.9397 1.1958-1.8282-0.94537-1.6598-3.87-0.7576-5.6118m6.0759 5.6507c1.6361-3.1577 0.76407-7.0579-2.4994-8.7501-2.4196-1.254-4.7549-0.40146-5.9054 1.8195-1.6361 3.1577-0.79429 7.0666 2.4692 8.7588 2.575 1.3339 4.8629 0.23743 5.9356-1.8282"/><path d="m836.33 200.92c0.49427-0.14029 1.0986-0.0928 1.7915 0.20289 1.8325 0.78134 2.3224 3.8052 1.4008 5.9658-0.38203 0.89142-1.213 1.7094-2.3721 1.213-1.2022-0.5137-1.9382-2.398-1.4008-4.8413zm-0.99502-7.4788-2.3311 10.816c-0.26764 1.2454-0.66263 2.7886-0.96265 3.8312l2.1368 0.913 0.45327-1.6814 0.041 0.0173c0.36477 1.5152 1.3058 2.6915 2.5879 3.2397 2.139 0.913 3.8657-0.36692 4.6686-2.249 1.4396-3.3714 0.37556-7.5285-3.0045-8.9724-0.91732-0.39067-1.6943-0.4878-2.1519-0.42736l-0.041-0.0173 0.96696-4.4614z"/><path d="m845.64 202.37-2.5167 15.398 2.4088 0.89574 2.5361-15.389z"/><path d="m853.78 214.63c-1.5368-0.5029-2.1088-2.167-2.0073-3.4728 2.5383 0.78781 4.0448 1.6663 3.6542 2.8556-0.21368 0.65615-0.86767 0.87199-1.6468 0.6173m4.9082-7.0817c-0.84177-0.84394-2.1217-1.5584-3.3649-1.9641-2.8404-0.93243-4.7593 0.30002-5.5579 2.7368-0.98855 3.0131 0.20936 7.0364 3.7448 8.1954 2.0202 0.66262 3.6801-0.0648 4.2261-1.7246 0.83961-2.5598-1.649-4.2844-5.6334-5.4996 0.0734-0.36261 0.37772-1.0101 0.73817-1.3231 0.62162-0.54607 1.472-0.65183 2.439-0.33455 1.1591 0.37988 1.99 0.96912 2.6073 1.58z"/><path d="m860.36 208.81c-0.28275 0.97344 0.20721 1.99 1.2281 2.2857 0.89358 0.25901 1.69-0.18346 1.9555-1.0943 0.28706-0.99286-0.24174-1.9555-1.2627-2.2512-0.89358-0.259-1.6749 0.21153-1.921 1.0598"/><path d="m872.16 218.42c0.42952 0.0108 0.80508 0.054 1.3447 0.1813 2.1346 0.49643 3.229 2.1454 2.8383 3.8247-0.3475 1.4914-1.5735 1.7807-2.998 1.4504-0.62377-0.14678-1.09-0.29786-1.349-0.44895zm-2.7109 6.2744c0.8353 0.41657 2.1217 0.84824 3.4362 1.1547 1.3382 0.3108 2.8469 0.37556 3.9434-0.14246 1.0101-0.42952 1.7008-1.2432 1.9922-2.5037 0.39067-1.6792-0.0928-3.2095-0.96048-4.2736-0.95401-1.1742-2.5124-2.003-4.2369-2.4044-0.51801-0.12087-0.98422-0.16188-1.3835-0.21152l0.21153-5.5946-2.48-0.57845z"/><path d="m883.23 217.34c0.26333-1.4202 1.2324-2.2706 2.5167-2.0332 1.8951 0.35398 2.685 3.1318 2.303 5.1888-0.19641 1.0598-0.91947 2.2836-2.4649 1.9965-2.0267-0.37556-2.7131-3.2225-2.3548-5.1521m7.4551 3.6434c0.64968-3.4966-1.3166-6.9759-4.9319-7.6472-2.6786-0.49859-4.6664 0.99502-5.124 3.4556-0.64968 3.4966 1.2907 6.9932 4.906 7.6666 2.8512 0.5288 4.7247-1.185 5.1499-3.475"/><path d="m894.7 225.76 0.87847-5.0377c0.2072-1.2109 0.29785-2.0462 0.36908-3.0822l0.0432 6e-3c0.20505 0.96264 0.51586 1.9836 0.85904 3.0951l1.8886 5.56 2.1282 0.28491 1.1224-5.0247c0.24606-1.1634 0.41873-2.1195 0.52018-3.0412l0.0432 6e-3c0.19642 1.049 0.39931 2.031 0.68853 3.2031l1.621 5.3938 2.5901 0.34534-3.8484-11.107-2.3915-0.31944-1.0922 4.4636c-0.22447 1.0123-0.3734 1.9512-0.52233 3.0606l-0.0453-4e-3c-0.35614-1.3317-0.5137-2.1584-0.87199-3.1405l-1.7483-4.9535-2.3915-0.3216-2.385 10.272z"/><path d="m913.61 226.29c-1.6102-0.14245-2.5447-1.6296-2.7433-2.9246 2.6505 0.18994 4.3168 0.70364 4.2089 1.949-0.0626 0.68853-0.64967 1.0468-1.4656 0.97559m3.175-8.0076c-1.0123-0.63025-2.4217-1.036-3.7211-1.1504-2.9786-0.26332-4.5672 1.3727-4.7938 3.9283-0.27843 3.1556 1.8001 6.8011 5.5061 7.127 2.1174 0.18562 3.5678-0.89789 3.7232-2.6376 0.23526-2.6829-2.5771-3.7966-6.732-4.075-0.0108-0.36909 0.13814-1.0706 0.41873-1.4569 0.48132-0.67126 1.2842-0.96911 2.2987-0.88062 1.213 0.10792 2.1584 0.49427 2.8966 0.94753z"/><path d="m919.04 217.83 0.89357 6.5291c0.20289 1.5022 0.24606 3.1038 0.32592 4.0578l2.2318 0.12735c-0.0259-0.71443-0.0518-1.4504-0.11656-2.2318l0.0648 4e-3c0.64967 1.4612 1.7634 2.562 3.2441 2.6462 0.17699 0.0108 0.37772 0 0.55471-0.0108l-0.36909-2.4843c-0.13382 0.0151-0.31081 0.0259-0.48779 0.0173-1.8346-0.10576-2.9052-1.9814-3.1987-4.2434l-0.57845-4.265z"/><path d="m925.88 219.55c-0.0389 1.0123 0.68205 1.88 1.744 1.921 0.93027 0.0345 1.595-0.58708 1.6318-1.5346 0.0389-1.036-0.7058-1.839-1.7677-1.88-0.93026-0.0345-1.5735 0.61083-1.608 1.4936"/><path d="m939.62 226.08c0.42089-0.0907 0.79645-0.13598 1.349-0.13814 2.1929-0.0173 3.6434 1.3296 3.6542 3.0541 0.0108 1.5303-1.1137 2.098-2.575 2.1109-0.6432 4e-3 -1.131-0.0367-1.4181-0.11871zm-1.1698 6.7342c0.90868 0.20937 2.262 0.32808 3.6132 0.31729 1.3727-9e-3 2.8534-0.30002 3.8009-1.0619 0.88062-0.654 1.3619-1.6058 1.3533-2.8987-0.0129-1.7246-0.84177-3.0973-1.9339-3.9304-1.2022-0.91731-2.9117-1.3576-4.6837-1.3447-0.53097 4e-3 -0.99502 0.0712-1.3943 0.11872l-1.1029-5.4888-2.5448 0.0173z"/><path d="m950.14 222.51c-0.0583-1.444 0.69932-2.4886 2.0051-2.5404 1.9253-0.0755 3.311 2.4584 3.393 4.5477 0.0432 1.077-0.39067 2.4325-1.962 2.4951-2.057 0.082-3.3585-2.5404-3.4362-4.5024m8.0767 1.8994c-0.14029-3.5549-2.8296-6.5119-6.5032-6.3651-2.7217 0.11008-4.3319 2.0073-4.2304 4.5067 0.14029 3.5549 2.8081 6.5356 6.4816 6.3888 2.8987-0.11656 4.3448-2.2037 4.252-4.5305"/><path d="m959.56 220.27c0.53097-0.34103 1.5605-0.82667 2.5318-0.89789 1.0403-0.054 1.7008 0.48348 1.7504 1.1698 0.0475 0.66694-0.27627 1.1008-1.2972 1.7159-1.1914 0.71227-2.0095 1.6814-1.921 2.8836 0.14677 2.0224 2.0591 3.3088 4.5995 3.1254 1.1267-0.082 2.0354-0.40793 2.4994-0.72306l-0.79213-1.7569c-0.38203 0.2439-1.0921 0.55471-1.9749 0.61946-0.97343 0.0691-1.6728-0.39715-1.7246-1.1073-0.041-0.5806 0.41441-1.0252 1.2886-1.5411 1.1245-0.71011 2.1217-1.6468 2.0246-2.9786-0.1662-2.3008-2.2447-3.4254-4.8283-3.2376-1.2605 0.0907-2.4044 0.52017-2.9484 0.97128z"/><path d="m968.47 219.6c0.52017-0.35613 1.5368-0.86983 2.5059-0.96912 1.0382-0.082 1.7116 0.43384 1.7828 1.1202 0.0669 0.66694-0.2439 1.1094-1.2476 1.7526-1.172 0.74681-1.962 1.7354-1.839 2.9354 0.20289 2.0159 2.1519 3.2484 4.6859 2.9937 1.1245-0.1144 2.0224-0.46406 2.48-0.79213l-0.84393-1.7354c-0.37556 0.25469-1.0749 0.58708-1.9577 0.67558-0.96911 0.0971-1.6814-0.35182-1.7526-1.0576-0.0583-0.58061 0.38419-1.036 1.2432-1.5778 1.1029-0.74033 2.0742-1.7051 1.9404-3.0347-0.23311-2.2944-2.344-3.3585-4.9211-3.0994-1.2562 0.12734-2.3872 0.58924-2.9203 1.0533z"/><path d="m980.89 229.3c0.11223 0.89789 0.89357 1.431 1.7289 1.3252 0.78997-0.0971 1.2929-0.72522 1.1936-1.5174-0.13814-0.91731-0.913-1.4073-1.7699-1.2994-0.79213 0.0993-1.2713 0.72522-1.1526 1.4914m-4.0966-12.935 3.3261 10.164 2.5706-0.3216-3.3498-10.162z"/><path d="m986.2 219.42c-0.12087-0.35182-0.24821-0.72522-0.30217-1.2195-0.13382-0.85041 0.2957-1.3986 1.2152-1.5411 2.2318-0.34966 4.1333 2.2124 4.4484 4.2369 0.17915 1.1483-0.17267 2.1864-1.3555 2.3699-1.3123 0.20504-2.8728-0.90221-3.6369-2.9225zm3.9563 10.552-2.316-6.0737 0.0432-6e-3c1.0296 0.99502 2.398 1.4353 3.7772 1.2216 2.2749-0.35613 2.9332-2.3138 2.6419-4.1679-0.51154-3.2786-3.4383-6.814-7.9882-6.1039-2.2318 0.3475-3.4232 1.472-3.1081 3.3434 0.0928 0.59572 0.27628 1.2001 0.47701 1.7591l3.9132 10.429z"/><path d="m999.21 226.42c0.16835 0.88926 0.97988 1.3727 1.8066 1.2152 0.7835-0.14677 1.2454-0.80508 1.0965-1.5907-0.1921-0.90652-0.9972-1.3468-1.8455-1.185-0.78347 0.14893-1.2238 0.80293-1.0576 1.5605m-4.8974-12.655 3.9542 9.9372 2.5447-0.48133-3.9757-9.9329z"/><path d="m999.82 212.72 6.1104 14.351 2.5124-0.53097-6.0888-14.355z"/><path d="m1010.8 223.97c0.2072 0.88062 1.0403 1.3274 1.8584 1.1353 0.777-0.1813 1.2087-0.85904 1.0274-1.6361-0.2353-0.89573-1.0576-1.3015-1.8973-1.1051-0.777 0.18347-1.1871 0.85473-0.9885 1.6058m-5.4392-12.43 4.3794 9.7559 2.5232-0.5914-4.4031-9.7516z"/><path d="m1019.5 221.81-1.2713-2.6527 2.357-0.61945-0.8806-1.7742-2.3332 0.61514-1.9167-3.8873c-0.2115-0.45542-0.4338-0.95616-0.5504-1.3922-0.1424-0.54391 0.022-0.9648 0.6864-1.1396 0.3-0.0799 0.5979-0.15756 0.8677-0.18346l-0.736-1.8346c-0.3972-0.0302-1.0814 0.0626-1.6814 0.22016-1.7138 0.4511-2.2448 1.5713-1.9361 2.739 0.1532 0.58276 0.3648 1.1288 0.7338 1.8346l2.0915 4.2844-1.4137 0.3734 0.8569 1.7807 1.4137-0.37341 1.0058 2.0764z"/><path d="m1024.1 220.45c0.2547 0.86767 1.1116 1.267 1.9188 1.0296 0.7641-0.22447 1.1591-0.92379 0.9346-1.69-0.2827-0.88278-1.1288-1.2411-1.9555-0.99718-0.7662 0.22448-1.1396 0.91948-0.8979 1.6576m-6.1277-12.106 4.9212 9.4948 2.4843-0.73169-4.9406-9.4883z"/><path d="m1031.8 213.29c-1.5325 0.51585-2.9872-0.47269-3.6865-1.58 2.5037-0.88925 4.2369-1.0857 4.6362 0.0993 0.2201 0.65399-0.1727 1.2195-0.9497 1.4807m-0.3065-8.6098c-1.1785-0.17267-2.6332 0.0216-3.87 0.43815-2.834 0.95401-3.6347 3.0887-2.8145 5.519 1.0101 3.0045 4.3793 5.5104 7.904 4.3254 2.0159-0.67989 2.9095-2.2555 2.3526-3.9088-0.859-2.5555-3.8851-2.4476-7.8025-1.036-0.1598-0.33455-0.3022-1.036-0.2029-1.5022 0.1726-0.80939 0.7899-1.403 1.7547-1.7289 1.1548-0.38851 2.1757-0.41225 3.0326-0.29138z"/><path d="m1034.4 205.48c0.4036-0.48348 1.2432-1.2562 2.1497-1.6145 0.9756-0.36261 1.7656-0.0475 2.0181 0.59356 0.2461 0.62162 0.067 1.1332-0.723 2.0246-0.9238 1.0382-1.4159 2.2059-0.9713 3.3282 0.7446 1.8843 2.957 2.5404 5.3247 1.6037 1.049-0.41441 1.8196-0.99718 2.1692-1.4375l-1.2821-1.4396c-0.2913 0.34751-0.8763 0.85689-1.7008 1.1828-0.9043 0.3583-1.7137 0.12087-1.9749-0.54175-0.2137-0.54176 0.089-1.1008 0.7662-1.8562 0.8634-1.0123 1.5346-2.2059 1.0425-3.4491-0.8461-2.1454-3.1685-2.5966-5.5773-1.6425-1.1741 0.46406-2.1389 1.2152-2.5231 1.8087z"/><path d="m1041.8 201.42c0.4101 0.92595 1.4396 1.39 2.4109 0.95833 0.8504-0.37556 1.1764-1.2281 0.7922-2.0958-0.4209-0.94538-1.444-1.3404-2.4153-0.90869-0.8504 0.37556-1.1461 1.2389-0.7878 2.0462"/></g><g fill="#232d65"><g><path d="m905.82 126.71-1.0144 2.5793c-0.21153 0.58493-0.36477 1.118-0.51586 1.6361h-0.0453c-0.13598-0.51801-0.30217-1.077-0.50074-1.621l-0.99934-2.5944zm-3.3477-0.90436-1.0598-2.8189h-1.3641l3.4685 8.9616h1.5907l3.4836-8.9616h-1.4073l-1.0921 2.8189z"/><path d="m990.33 123.27c-0.47053-0.21368-1.4548-0.4252-2.6958-0.4252-2.8793 0-5.0291 1.595-5.0291 4.5477 0 2.8189 2.1649 4.7075 5.3312 4.7075 1.2584 0 2.0742-0.23958 2.4239-0.39931l-0.33239-0.94537c-0.48564 0.21368-1.1979 0.3734-2.0462 0.3734-2.3937 0-3.9844-1.3425-3.9844-3.6973 0-2.208 1.4396-3.6024 3.9088-3.6024 0.81803 0 1.6361 0.14677 2.167 0.37124z"/><path d="m996.28 123.79c2.0915 0 3.2721 1.6879 3.2721 3.7232 0 1.7828-1.0619 3.6434-3.257 3.6434-2.1972 0-3.2872-1.7958-3.2872-3.7362 0-1.8886 1.1806-3.6304 3.257-3.6304zm-0.0604-0.94537c-2.7109 0-4.5909 1.8368-4.5909 4.5499 0 2.8448 2.0008 4.7053 4.7269 4.7053 2.8016 0 4.6038-1.8735 4.6038-4.5348 0-3.0692-2.1346-4.7204-4.7246-4.7204z"/><path d="m1011.9 126.92c-0.076 1.2497-0.1662 2.7671-0.1662 3.87h-0.03c-0.3647-1.0382-0.7727-2.167-1.2885-3.4038l-1.8023-4.3492h-0.9993l-1.6663 4.2693c-0.4856 1.2756-0.8785 2.4196-1.1655 3.4836h-0.032c-0.03-1.118-0.1036-2.6073-0.1964-3.9628l-0.272-3.8441h-1.2562l0.7102 8.9638h1.6813l1.7419-4.3362c0.4252-1.1029 0.7576-2.0872 1.0317-3.0174h0.028c0.2741 0.90437 0.6368 1.8886 1.0922 3.0174l1.8173 4.3362h1.6814l0.6368-8.9638h-1.3037z"/><path d="m1017.4 127.52c0.287-0.0669 0.6669-0.0928 1.09-0.0928 1.6058 0 2.5598 0.69069 2.5598 1.9016 0 1.1958-0.954 1.7677-2.4066 1.7677-0.5763 0-1.0166-0.054-1.2432-0.0928zm-1.3188 4.3082c0.6367 0.10576 1.4699 0.18562 2.5296 0.18562 1.3037 0 2.2577-0.26549 2.8642-0.74465 0.559-0.4252 0.9087-1.077 0.9087-1.8735 0-0.81156-0.272-1.4504-0.8029-1.9167-0.6972-0.64967-1.8325-0.98422-3.1211-0.98422-0.3928 0-0.7576 0.0151-1.0597 0.0799v-3.5894h-1.3188z"/><path d="m1028.3 126.71-1.0145 2.5793c-0.2115 0.58493-0.3647 1.118-0.5158 1.6361h-0.045c-0.1359-0.51801-0.3021-1.077-0.4986-1.621l-0.9993-2.5944zm-3.3477-0.90436-1.0598-2.8189h-1.3641l3.4686 8.9616h1.5907l3.4858-8.9616h-1.4094l-1.0922 2.8189z"/><path d="m1033.2 122.99v8.9616h1.4547l3.257-4.5348c0.7404-1.049 1.3469-1.9792 1.8174-2.9117l0.045 0.0151c-0.1209 1.1958-0.1532 2.2857-0.1532 3.6693v3.7621h1.2432v-8.9616h-1.3317l-3.2419 4.5477c-0.7123 0.99718-1.3944 2.0203-1.8951 2.9915l-0.045-0.0129c0.075-1.131 0.091-2.208 0.091-3.6973v-3.829z"/><path d="m1046.1 122.99v3.8031l-3.2419 5.1586h1.5152l1.4396-2.4735c0.3777-0.67773 0.6972-1.2216 1.0145-1.8476h0.03c0.2719 0.58493 0.6367 1.1698 1.0295 1.8476l1.4699 2.4735h1.4828l-3.4081-5.1456v-3.816z"/></g><g fill-rule="evenodd"><path d="m971.76 132.94c9e-3 -9e-3 0.013-0.0194 0.0237-0.0194 0.082-6e-3 0.16188-0.0108 0.24174-0.0194 0.22447-0.0259 0.45326-0.0453 0.67774-0.0734 0.37772-0.0432 0.74464-0.12303 1.1094-0.22448 0.22663-0.0604 0.45326-0.13598 0.67989-0.20073 0.0777-0.0302 0.0777-0.0302 0.0777-0.11439v-1.8087c0-0.0734 2e-3 -0.0734-0.0669-0.0734h-0.42737c-0.0777 0-0.0777 2e-3 -0.082 0.0734-0.0389 0.45111-0.17483 0.86984-0.43816 1.2411-0.11439 0.1662-0.27627 0.26764-0.45758 0.34103-0.18778 0.0777-0.38851 0.12518-0.58492 0.15324-0.25469 0.041-0.49859 0.0518-0.75328 0.0561-0.18778 6e-3 -0.37772 0.0108-0.57197 0.0108-0.30434-4e-3 -0.61083-0.0194-0.90869-0.0626-0.28059-0.0432-0.55686-0.10145-0.8094-0.21152-0.27195-0.11008-0.50938-0.26549-0.67126-0.5137-0.11871-0.18131-0.17483-0.38635-0.18993-0.61083-0.0194-0.20504-9e-3 -0.40362 0.0453-0.59787 0.0971-0.36477 0.32808-0.62162 0.64968-0.79861 0.26116-0.14677 0.54607-0.23742 0.83745-0.29138 0.2957-0.0648 0.58493-0.11224 0.87631-0.15109 0.218-0.0367 0.44247-0.0561 0.66047-0.082 0.23095-0.0345 0.46621-0.0712 0.695-0.10791 0.27844-0.0453 0.55687-0.10792 0.82883-0.18563 0.31944-0.1036 0.62161-0.22879 0.9022-0.41657 0.45974-0.31728 0.74681-0.75543 0.87199-1.2929 0.0497-0.19426 0.0712-0.39283 0.082-0.59572 0.0259-0.45326-0.0432-0.89142-0.18994-1.3166-0.12734-0.36261-0.3216-0.69069-0.5806-0.97775-0.436-0.49427-0.98423-0.8094-1.5994-1.0123-0.28491-0.095-0.58061-0.15756-0.88063-0.19857-0.14677-0.0237-0.2957-0.0324-0.44894-0.041-0.0151-2e-3 -0.0259-0.0173-0.0389-0.0194h-0.92811c-0.0561 0.0367-0.12735 0.0281-0.18562 0.0324-0.3324 0.0324-0.66047 0.0734-0.98639 0.1295-0.44463 0.0734-0.88062 0.16404-1.3188 0.28491-0.23526 0.0604-0.46189 0.13814-0.68637 0.23743-0.0669 0.0259-0.0928 0.0648-0.095 0.14245-0.0108 0.25685-0.0367 0.51154-0.0496 0.76407-0.0108 0.10792-0.0151 0.22016-0.0194 0.32592-6e-3 0.15756-0.0151 0.31944-0.0259 0.477-0.0173 0.2439-0.0324 0.48348-0.0475 0.72091-9e-3 0.0993-0.013 0.19425-0.0216 0.28706 0 0.0108 0.0237 0.0367 0.0324 0.0367 0.0583 9e-3 0.11224 0.0151 0.1662 0.0281 0.10576 0.0151 0.20505 0.0302 0.31081 0.0432 0.0691 6e-3 0.0734 4e-3 0.0842-0.0712 0.0669-0.44894 0.17483-0.88062 0.35181-1.2929 0.30218-0.6799 0.79429-1.1224 1.5066-1.3296 0.18562-0.0496 0.37556-0.0906 0.56766-0.11008 0.33023-0.0453 0.67342-0.0626 1.008-0.0518 0.5288 0.0194 1.049 0.095 1.5346 0.31512 0.41009 0.18131 0.75112 0.44032 0.97775 0.83098 0.13166 0.22016 0.20936 0.45758 0.23742 0.71443 0.0108 0.0863 0.0129 0.17699 0.0173 0.26549 6e-3 0.27627-0.0756 0.51369-0.26333 0.71874-0.11007 0.12303-0.25685 0.21152-0.40577 0.28275-0.22879 0.10792-0.46622 0.18562-0.71443 0.22663-0.23095 0.0432-0.45974 0.0799-0.69069 0.1144-0.26332 0.0388-0.52665 0.0734-0.79429 0.10576-0.23958 0.0367-0.47916 0.0626-0.71658 0.10144-0.47485 0.0777-0.94106 0.18346-1.3857 0.36909-0.32592 0.14029-0.62593 0.3216-0.88278 0.56981-0.29354 0.29786-0.48564 0.65184-0.58924 1.0576-0.0863 0.33887-0.10145 0.68421-0.0971 1.0296 0.0108 0.32591 0.0561 0.63888 0.15109 0.94753 0.12518 0.39067 0.3367 0.72306 0.6432 0.99934 0.26116 0.2331 0.55254 0.3993 0.8763 0.52017 0.30002 0.10576 0.6022 0.18778 0.91516 0.22663 0.21368 0.0259 0.42736 0.0496 0.64536 0.0691 6e-3 4e-3 0.0151 0.0151 0.0259 0.0237z"/><path d="m919.41 123.82c6e-3 -0.0151 0.0129-0.0324 0.0129-0.0518 0.0281-0.15972 0.13166-0.1921 0.259-0.22231 0.0389-4e-3 0.0756-2e-3 0.11656-4e-3 0.0216-4e-3 0.054-0.0194 0.0799-0.0194h1.2497c4e-3 -0.16835 4e-3 -0.34102 6e-3 -0.51153 0-0.0302-0.013-0.0496-0.0475-0.041h-5.3572v0.57413c0.43168 0 0.86335 0 1.2994 2e-3 0.0518 0 0.10792 0.013 0.16404 0.0324 0.0885 0.0259 0.14029 0.0907 0.14893 0.18994 9e-3 0.0734 0.0237 0.15325 0.0237 0.23095v7.7767c0 0.0734-0.0151 0.14677-0.0259 0.22015-9e-3 0.082-0.10361 0.1662-0.19426 0.18347-0.0583 0.0108-0.11655 0.013-0.17483 0.0216-0.0151 9e-3 -0.0324 0.0151-0.0496 0.0151-0.095 2e-3 -0.19426 2e-3 -0.29786 2e-3 -0.24606 0-0.49643 0-0.7468-2e-3 -0.041 0-0.0604 0.0108-0.0604 0.054 4e-3 0.10792 2e-3 0.21368 0 0.31944 0 0.0173-4e-3 0.0367-0.0129 0.054 4e-3 0.0453-0.0216 0.0906 0.0151 0.13598 0.0389-2e-3 0.0734-2e-3 0.11224-2e-3h9.3523c0.0302 0 0.0648-4e-3 0.0971-4e-3 0.0108-0.12519 0.0151-0.2547 0.0216-0.37988 0.0108-0.095 0.0216-0.1921 0.0324-0.29138 6e-3 -0.0626 0.0108-0.12735 0.0173-0.18994 2e-3 -0.0561 4e-3 -0.10576 0.0108-0.15972 2e-3 -0.0561 9e-3 -0.10792 0.0129-0.16188 2e-3 -0.0129 2e-3 -0.0238 2e-3 -0.0345 9e-3 -0.13382 9e-3 -0.26332 0.0237-0.38851 0.0173-0.15756 0.0302-0.31728 0.0367-0.47485 0-0.0302 2e-3 -0.0496-0.0389-0.054-0.054-2e-3 -0.10792-9e-3 -0.1554-0.0194-0.1403-0.0194-0.28059-0.0324-0.42089-0.054-0.0259-4e-3 -0.0345 6e-3 -0.041 0.0324-0.0216 0.11223-0.0453 0.22015-0.0734 0.33023-0.0238 0.11655-0.0475 0.23958-0.0734 0.35182-0.0345 0.17483-0.0712 0.34318-0.11224 0.50938-0.0259 0.10144-0.0669 0.19857-0.18778 0.22447-0.0453 0.0151-0.095 0.0151-0.14677 0.0237-0.0302 2e-3 -0.0604 0.013-0.095 0.013h-4.6837c-0.12087 0-0.10576 0.0151-0.10576-0.10792v-3.2268c0-9e-3 0.0151-0.013 0.0237-0.0216 0.0173 0 0.0345-6e-3 0.0561-6e-3h3.3023c0.12087 0 0.23095 0.0345 0.30434 0.14677 0.0281 0.0496 0.0518 0.0993 0.0626 0.14893 0.0367 0.10576 0.054 0.22447 0.0777 0.33239 4e-3 0.0108 4e-3 0.0194 4e-3 0.0281 0.013 0.0777 0.0237 0.082 0.1036 0.0648 0.0734-0.0216 0.14677-0.0324 0.218-0.0453 0.0367-0.0108 0.0669-0.0151 0.1036-0.0237v-2.3613c-0.0712-0.0151-0.14245-0.0345-0.20936-0.054-0.0561-9e-3 -0.10792-9e-3 -0.15541-0.0302-0.0345-6e-3 -0.0432 0-0.0496 0.0302-0.0281 0.11871-0.0561 0.22447-0.0906 0.34534-0.0216 0.082-0.0281 0.16188-0.0583 0.23959-0.0475 0.15324-0.14029 0.26764-0.34966 0.27195-0.0281 4e-3 -0.0626 0.0151-0.0928 0.0151h-3.2311c-0.0345-0.0259-0.0194-0.0583-0.0194-0.0928v-3.7815c0-0.0302 6e-3 -0.0648 6e-3 -0.10145"/><path d="m941.27 128.31c0-0.0345-2e-3 -0.0777 0.0151-0.10792 9e-3 -0.0129 0.0561-6e-3 0.0863-6e-3 0.0453-2e-3 0.0971-0.0108 0.1403-0.0108 0.0777-2e-3 0.15325-2e-3 0.23311-6e-3 0.259-0.0173 0.52664-0.0367 0.79213-0.0496 0.13598-0.013 0.27411-0.0194 0.41225-0.0194 0.23526 0 0.47269 6e-3 0.70579 0.0108 0.21584 9e-3 0.42521 0.0281 0.63673 0.0626 0.24174 0.0345 0.48564 0.0971 0.70579 0.20504 0.27196 0.13382 0.4878 0.32808 0.62594 0.61083 0.14461 0.27412 0.18994 0.57197 0.21152 0.87846 0.0129 0.18779 0.0237 0.37341 4e-3 0.5655-0.0173 0.22448-0.0648 0.44679-0.15757 0.65831-0.17483 0.37556-0.47052 0.6173-0.83745 0.78134-0.25253 0.10792-0.52233 0.17267-0.79645 0.22016-0.28706 0.0475-0.58276 0.0777-0.87415 0.0842-0.28059 0.013-0.5655 0.013-0.85256 9e-3 -0.23527-4e-3 -0.46622-0.0108-0.695-0.0237-0.10361-0.0108-0.20074-0.0302-0.30218-0.0453-0.0367-2e-3 -0.0648-0.0173-0.054-0.0626 4e-3 -0.0194 0-0.0367 0-0.0561m-2.0483-4.1398v3.8916c0 0.0669-4e-3 0.13814-0.0194 0.20073-0.013 0.1144-0.0755 0.18994-0.19426 0.21153-0.082 0.013-0.16403 0.0237-0.24605 0.0237-0.33887 4e-3 -0.67774 0-1.0252 0-0.0712 0-0.0734-0.0108-0.0734 0.0712v0.42736c0 0.0842 0 0.0777 0.0777 0.0777h7.2414c0.48779 0 0.96048-0.0799 1.4159-0.2439 0.35829-0.12734 0.68637-0.31944 0.95401-0.58708 0.33671-0.31513 0.5396-0.7058 0.64104-1.1504 0.0389-0.17699 0.0648-0.35614 0.0604-0.53529 0-0.11007 4e-3 -0.21368-2e-3 -0.3216-0.0259-0.69284-0.32376-1.2411-0.91516-1.6231-0.25901-0.17051-0.54391-0.29354-0.84177-0.39067-0.14677-0.0475-0.28275-0.095-0.42952-0.14245-0.0432-0.013-0.0863-0.0281-0.0928-0.0777-4e-3 -0.0453 0.0324-0.0777 0.0691-0.10145 0.0755-0.0475 0.14892-0.0885 0.22663-0.13166 0.16403-0.095 0.30001-0.22016 0.41009-0.37556 0.44463-0.6173 0.89358-1.2324 1.3382-1.8454 0.34102-0.47484 0.68636-0.94753 1.0296-1.4181 0.10144-0.14893 0.24821-0.23526 0.4252-0.2698 0.0777-0.013 0.15756-0.0194 0.23958-0.0194 0.17483-2e-3 0.35614-2e-3 0.53744-2e-3 0.0604 0 0.0626 0 0.0626-0.0626 0-0.15324-2e-3 -0.30865 0-0.45973 4e-3 -0.0367-0.0129-0.0583-0.0583-0.0496h-0.0518c-0.97344 0-1.9404 0-2.9095-6e-3 -0.0777 0-0.11872 0.0237-0.15325 0.0907-0.34319 0.54823-0.69069 1.1094-1.0339 1.6641-0.41225 0.65615-0.82451 1.3274-1.2411 1.9857-0.13813 0.22663-0.30001 0.42952-0.53312 0.56766-0.15972 0.095-0.33671 0.1554-0.52233 0.17051-0.1036 0.013-0.21368 0.0151-0.32376 0.0151-0.63888 4e-3 -1.2799 0-1.921 0-0.1036 0-0.0928 0.0173-0.0928-0.0907v-3.4513c0-0.054 0.0108-0.10792 0.0216-0.15972 0.0108-0.10145 0.0755-0.16836 0.17699-0.18994 0.0777-0.0151 0.16188-0.0216 0.24606-0.0216 0.36261-2e-3 0.72306-2e-3 1.0878-2e-3h0.0626c0.0281 2e-3 0.0389-9e-3 0.0389-0.0367v-0.49858c2e-3 -0.0281-0.0108-0.0432-0.0345-0.0367h-5.1024c-0.11871 0-0.1036-0.0216-0.1036 0.0971v0.40794c0 0.0669 2e-3 0.0669 0.0712 0.0669 0.34319 0 0.69285 0 1.0404 2e-3 0.0734 0 0.15109 6e-3 0.22879 0.0194 0.12518 0.0237 0.19425 0.1036 0.20073 0.22663 9e-3 0.0842 0.0173 0.1662 0.0173 0.25469z"/><path d="m954.44 132.77h4.5801c0.0885 0 0.0885 0 0.10145-0.0907 0.0432-0.27843 0.082-0.56334 0.12518-0.84393 0.0324-0.23742 0.0648-0.47484 0.0993-0.71443 0.0345-0.23526 0.0691-0.47053 0.1036-0.71227 0.0216-0.14892 0.0389-0.29785 0.0648-0.44678 2e-3 -0.0388-4e-3 -0.054-0.0475-0.0604-0.0712-4e-3 -0.13814-0.0194-0.21368-0.0259-0.13598-0.0151-0.26764-0.0302-0.40578-0.041-0.0669-0.0108-0.0669-6e-3 -0.0906 0.0626-0.16404 0.53959-0.32808 1.077-0.48996 1.6188-0.0281 0.0799-0.054 0.15756-0.0626 0.24606-0.0151 0.1295-0.0971 0.21584-0.22447 0.24174-0.095 0.0173-0.18778 0.0324-0.2806 0.0324-0.72522 2e-3 -1.4461 2e-3 -2.1735 2e-3h-0.0367c-0.0626-2e-3 -0.0626-2e-3 -0.0626-0.0648v-7.9558c0-0.11871 0.0324-0.22015 0.0863-0.3216 0.0691-0.11223 0.18347-0.14893 0.30865-0.15756 0.0863-4e-3 0.17052-4e-3 0.25685-4e-3h0.90005c0.0777 0 0.0777 0 0.0777-0.0734v-0.44895c4e-3 -0.0388-9e-3 -0.0583-0.0561-0.0496h-5.1499c-0.12303 0-0.10792-0.0216-0.11008 0.0971v0.40793c0 0.0669 2e-3 0.0669 0.0691 0.0669 0.36693 0 0.7317 0 1.0965 2e-3 0.082 0 0.16836 9e-3 0.24606 0.0216 0.12087 0.0194 0.19642 0.0863 0.21368 0.21152 4e-3 0.0475 0.013 0.0993 0.013 0.14893v8.0767c2e-3 0.0302-0.013 0.041-0.041 0.0432h-0.0648c-0.695 0-1.3943 0-2.085-2e-3 -0.0971 0-0.19857-0.0173-0.29785-0.0302-0.12951-0.0151-0.218-0.095-0.26333-0.22016-0.0216-0.0648-0.0475-0.13598-0.0669-0.21152-0.14245-0.54824-0.28491-1.1051-0.42736-1.6555-0.0237-0.095-0.0237-0.0971-0.12087-0.0842-0.19857 0.0216-0.40146 0.0475-0.60003 0.0691-0.0453 0.0108-0.0475 0.0194-0.0432 0.0475 0.0518 0.32591 0.0971 0.64104 0.14677 0.96264 0.0324 0.24174 0.0626 0.47916 0.095 0.71874 0.0324 0.23311 0.0755 0.47701 0.10792 0.71011 0.013 0.10577 0.0281 0.21584 0.041 0.3216 2e-3 0.0216 0.013 0.041 0.013 0.0626 0 0.0432 0.0237 0.0453 0.0518 0.0432h0.0691z"/><path d="m964.02 127.87v-3.9499c0-0.0561 2e-3 -0.11871 0.0151-0.17483 0.0238-0.0906 0.0777-0.1554 0.16836-0.17267 0.0842-0.0194 0.17267-0.0302 0.25685-0.0302 0.35829-2e-3 0.7209-2e-3 1.0814-2e-3h0.0626c0.0302 2e-3 0.0496-9e-3 0.0496-0.0496v-0.48564c0-0.0259-0.0108-0.0432-0.0388-0.0367h-5.219c-0.0712 0-0.0712 0-0.0734 0.0669v0.41441c2e-3 0.0907 2e-3 0.0907 0.0863 0.0907 0.36261 0 0.73169 0 1.0965 2e-3 0.082 0 0.16619 6e-3 0.24821 0.0194 0.1144 0.0259 0.18563 0.0993 0.20289 0.21152 9e-3 0.0734 0.013 0.1403 0.013 0.20505v7.7832c0 0.0734-4e-3 0.14893-0.0216 0.218-0.0194 0.11008-0.0842 0.17483-0.19641 0.19641-0.0756 0.013-0.15541 0.0238-0.23527 0.0238-0.36693 4e-3 -0.72738 0-1.09 0h-0.0626c-0.0259 0-0.041 0.0108-0.041 0.0367 2e-3 0.17267 2e-3 0.33455 0 0.50075 0 0.0345 0.0173 0.0388 0.041 0.0388h5.1931c0.0971 0 0.0971 0 0.0971-0.0993v-0.41009c0-0.0626 0-0.0669-0.0669-0.0669h-1.2173c-0.041-4e-3 -0.0863-0.0108-0.12735-0.0216-0.1403-0.0281-0.20073-0.10144-0.22231-0.25685-2e-3 -0.0324 0-0.0734 0-0.10576z"/><path d="m928.49 129.57c-0.0626-0.17915-0.0971-0.36477-0.12303-0.55902-6e-3 -0.0367-0.0151-0.0734-0.0194-0.10361-0.0194-0.11655-0.0324-0.22879-0.041-0.34534-0.0129-0.15109-0.0237-0.30433-0.0345-0.45758-2e-3 -0.0388-6e-3 -0.0734-6e-3 -0.11008-4e-3 -0.1554-6e-3 -0.30865-9e-3 -0.46621 0-0.0799-6e-3 -0.15756 2e-3 -0.23742 0.0194-0.17699 2e-3 -0.35614 0.0281-0.52881 6e-3 -0.0432 0.0108-0.0885 0.0237-0.1295 4e-3 -0.0345 9e-3 -0.0648 0.0151-0.0993 0.041-0.35829 0.11871-0.71443 0.23958-1.0619 0.1403-0.38851 0.33671-0.75112 0.61083-1.0662 0.34966-0.39715 0.78997-0.66479 1.2864-0.82451 0.40578-0.14029 0.82235-0.19641 1.254-0.20936 0.35397-0.0151 0.70363 0 1.0511 0.0583 0.3065 0.0496 0.60004 0.12951 0.88279 0.25469 0.40793 0.17915 0.75543 0.44032 1.0382 0.78566 0.26549 0.33023 0.44463 0.70148 0.57629 1.1029 0.0281 0.082 0.0432 0.17483 0.0669 0.26332 0.0259 0.0928 0.0518 0.17699 0.0712 0.26764 0.0237 0.14246 0.0496 0.28059 0.0669 0.41873 0.0129 0.16404 0.0281 0.32592 0.0453 0.48564 4e-3 0.0388 0.013 0.0755 0.0151 0.11008v0.78349c6e-3 0.20721-0.0108 0.41226-0.0367 0.61299-2e-3 0.0885-0.0108 0.17267-0.0237 0.25685-0.0281 0.19641-0.0604 0.39282-0.1036 0.58924-0.041 0.17483-0.082 0.35397-0.16836 0.52017-6e-3 0.0237-9e-3 0.0453-0.0129 0.0669-0.0755 0.20073-0.16619 0.39714-0.27843 0.57629-0.30865 0.50722-0.73385 0.88062-1.2799 1.1224-0.45758 0.1921-0.9389 0.27844-1.4288 0.30218-0.30434 0.0108-0.60867 4e-3 -0.90869-0.0324-0.26979-0.0324-0.54823-0.0885-0.81155-0.17051-0.56982-0.18778-1.0533-0.50075-1.4202-0.9907-0.0842-0.1144-0.15109-0.23742-0.23095-0.36045-0.0906-0.12951-0.14461-0.2698-0.20073-0.41657-0.0518-0.13382-0.0863-0.27196-0.13598-0.40794m2.6764-6.7774c-0.0129 2e-3 -0.0281 0.0173-0.0475 0.0173-0.19425 0.0108-0.38851 0.0194-0.58276 0.0432-0.4101 0.0496-0.81804 0.12735-1.2152 0.25038-0.52881 0.15756-1.0274 0.37987-1.485 0.69284-0.8612 0.58492-1.4504 1.3749-1.7785 2.3678-0.095 0.2957-0.15756 0.59787-0.20289 0.90652-0.0518 0.3583-0.0648 0.72738-0.0496 1.0878 0.0389 0.74033 0.1921 1.4461 0.52665 2.1066 0.2439 0.47701 0.55686 0.89358 0.94753 1.254 0.2957 0.27412 0.62809 0.49859 0.98639 0.69284 0.49859 0.25901 1.0166 0.43384 1.5627 0.55255 0.25038 0.0518 0.50722 0.0993 0.76407 0.1144 0.18994 0.0151 0.36693 0.0281 0.55471 0.041 9e-3 4e-3 0.0151 9e-3 0.0194 0.0151h1.0425c6e-3 -6e-3 0.013-0.0173 0.0194-0.0173 0.14245-0.0151 0.28059-0.0216 0.42088-0.0388 0.23527-0.0302 0.45758-0.0604 0.68853-0.0971 0.30217-0.0604 0.60435-0.13814 0.90005-0.23742 0.53312-0.18563 1.0339-0.436 1.485-0.78566 0.48996-0.37124 0.88279-0.82666 1.1763-1.3684 0.24605-0.44679 0.40577-0.91732 0.50938-1.4181 0.041-0.22664 0.0712-0.45111 0.0799-0.6799 9e-3 -0.23742 0.0216-0.477 0.0129-0.71227-0.0388-0.75975-0.20937-1.4763-0.56766-2.1433-0.16404-0.31297-0.36693-0.61083-0.60003-0.87199-0.27412-0.30865-0.49859-0.48996-0.695-0.63889-0.25469-0.18562-0.52449-0.34534-0.8094-0.48779-0.436-0.21153-0.90437-0.36261-1.3878-0.4619-0.26764-0.0604-0.54391-0.10576-0.82019-0.12519-0.12734-0.0173-0.259-0.0302-0.38419-0.0388-9e-3 0-0.0173-0.0151-0.0281-0.0194z"/></g></g><g fill="#f5cd26" fill-rule="evenodd"><path d="m935.53 127.9v-0.78133c-2e-3 -0.0367-0.0129-0.0734-0.0151-0.11224-0.082 0.12519-0.15972 0.25253-0.2439 0.37556-0.15756 0.22879-0.33455 0.44247-0.57629 0.58924-0.27411 0.16188-0.55686 0.18131-0.84609 0.0432-0.22447-0.11008-0.40362-0.28707-0.55686-0.47916-0.17052-0.21153-0.32376-0.43816-0.48996-0.65616-0.18562-0.25684-0.37556-0.51585-0.61082-0.71874-0.1921-0.16404-0.39715-0.28922-0.65184-0.32592-0.19641-0.0367-0.38203-0.013-0.55902 0.0734-0.23095 0.10792-0.40362 0.28706-0.56118 0.47053-0.18131 0.21584-0.34535 0.44247-0.51154 0.66694-0.1921 0.25253-0.38851 0.49859-0.63457 0.69932-0.12087 0.0928-0.25469 0.18562-0.39714 0.24821-0.1921 0.0842-0.39715 0.11872-0.60435 0.11224 0.0108 0.15109 0.0216 0.30433 0.0345 0.45542 0.0108 0.11656 0.0216 0.23095 0.041 0.34535 4e-3 0.0302 0.013 0.0691 0.0194 0.1036 0.0734-4e-3 0.15108-2e-3 0.22015-0.013 0.19857-0.0496 0.37772-0.12087 0.54607-0.23743 0.25901-0.18346 0.47269-0.41009 0.65831-0.66046 0.18563-0.23311 0.36261-0.47053 0.54608-0.71011 0.13813-0.17268 0.29138-0.33024 0.46189-0.46622 0.26333-0.20289 0.56119-0.24605 0.87415-0.1554 0.23958 0.0691 0.43384 0.2072 0.60219 0.37772 0.12951 0.14029 0.25038 0.27843 0.36046 0.42304 0.22231 0.28923 0.43167 0.58493 0.65183 0.86552 0.13598 0.1813 0.2957 0.34318 0.49211 0.45326 0.23095 0.12303 0.46622 0.1662 0.72091 0.082 0.15324-0.0518 0.28059-0.13814 0.3993-0.2439 0.15109-0.13166 0.27843-0.28922 0.38851-0.45326 0.0863-0.12087 0.16404-0.25038 0.24174-0.37125"/><path d="m935.34 125.85c-0.041 0.0518-0.0885 0.11224-0.13166 0.16835-0.12735 0.17268-0.26117 0.32376-0.43816 0.44247-0.11871 0.082-0.2439 0.14893-0.38635 0.16836-0.23095 0.0173-0.45758 2e-3 -0.66047-0.14461-0.13382-0.0993-0.25253-0.20505-0.36692-0.3324-0.14893-0.16835-0.2806-0.35613-0.41442-0.53528-0.0971-0.12734-0.18562-0.26116-0.27843-0.39498-0.041-0.0561-0.0906-0.12087-0.13382-0.17267-0.1554-0.18994-0.3216-0.36693-0.52665-0.50075-0.15108-0.095-0.31512-0.15541-0.48995-0.18562-0.24606-0.0475-0.45326 0.0345-0.64968 0.1554-0.18562 0.11008-0.33671 0.26764-0.46621 0.43384-0.21368 0.27843-0.42089 0.55902-0.63888 0.83745-0.18131 0.22232-0.37125 0.43168-0.61083 0.58925-0.17267 0.12087-0.35613 0.20936-0.56334 0.24174-0.0842 0.0173-0.17699 0.0173-0.26764 0.0237-0.0129 0.041-0.0129 0.0842-0.0173 0.12518-0.0302 0.17915-0.013 0.35614-0.0324 0.53529-0.013 0.0734-4e-3 0.1554-4e-3 0.2331h0.16188c0.13814 9e-3 0.26548-0.0302 0.39498-0.0712 0.2439-0.0907 0.45111-0.2439 0.6281-0.42305 0.13813-0.1403 0.26116-0.29138 0.38635-0.44247 0.23311-0.28707 0.43384-0.59787 0.68205-0.87631 0.13598-0.14245 0.27843-0.2698 0.4511-0.36477 0.0971-0.0496 0.20289-0.0863 0.31297-0.1036 0.1403-0.0173 0.28059 9e-3 0.41441 0.054 0.218 0.0626 0.39283 0.18994 0.55471 0.34534 0.0669 0.0583 0.12519 0.12951 0.18346 0.20289 0.0583 0.0604 0.11872 0.12519 0.17483 0.19426 0.18347 0.25685 0.36909 0.50722 0.55255 0.75759 0.14461 0.19426 0.29786 0.37341 0.4878 0.52018 0.22015 0.17267 0.46621 0.25469 0.74896 0.19209 0.18346-0.0345 0.33671-0.11439 0.47053-0.2331 0.18346-0.15757 0.34103-0.34319 0.47269-0.55039 0.041-0.0712 0.0928-0.13382 0.13814-0.20289-0.0216-0.13814-0.0389-0.27628-0.0691-0.42089-0.0151-0.0885-0.0432-0.1813-0.0691-0.26548"/><path d="m928.83 130.4c0.22879-0.0928 0.41657-0.23311 0.59571-0.40578 0.21368-0.20505 0.39499-0.44247 0.57629-0.68205 0.19857-0.26117 0.38635-0.53313 0.62809-0.76623 0.1144-0.11008 0.2439-0.20289 0.39931-0.27196 0.24174-0.10576 0.477-0.0907 0.71874-4e-3 0.17699 0.0648 0.33024 0.1662 0.46622 0.29139 0.2331 0.21799 0.4252 0.47269 0.60866 0.72953 0.17051 0.25038 0.35182 0.50291 0.55039 0.7317 0.16188 0.1813 0.33671 0.33455 0.57198 0.41441 0.27411 0.0993 0.53312 0.0518 0.77486-0.0928 0.16835-0.10144 0.2957-0.2439 0.42304-0.39499 0.0194-0.013 0.0389-0.0367 0.0604-0.0648 0.082-0.16188 0.12303-0.34318 0.16404-0.51801 0.041-0.19857 0.0777-0.39283 0.10576-0.58709 0.0151-0.0842 0.0151-0.17482 0.0216-0.25469-0.095 0.14678-0.18994 0.29786-0.29354 0.43816-0.13382 0.1813-0.28059 0.34534-0.47485 0.46405-0.29138 0.18562-0.59355 0.21153-0.90436 0.0518-0.22016-0.11871-0.39715-0.28922-0.54823-0.48779-0.17483-0.23527-0.34966-0.47701-0.52449-0.71659-0.15972-0.21584-0.32808-0.42952-0.52449-0.60867-0.1403-0.1295-0.29139-0.23742-0.47053-0.30001-0.33024-0.12303-0.64105-0.0885-0.93027 0.10792-0.20936 0.15324-0.37556 0.35182-0.53744 0.54607-0.22016 0.28491-0.43384 0.57413-0.65615 0.85041-0.1295 0.1554-0.2698 0.29138-0.43168 0.41009-0.20505 0.15756-0.43815 0.26117-0.70148 0.29138 0.0432 0.1403 0.0799 0.27844 0.13166 0.41226 0.0561 0.14677 0.11008 0.28706 0.20074 0.41657"/></g></g></svg>
