<?xml version="1.0" encoding="utf-8"?>
<!-- Generator: Adobe Illustrator 24.0.1, SVG Export Plug-In . SVG Version: 6.00 Build 0)  -->
<svg version="1.1" id="Layer_1" xmlns="http://www.w3.org/2000/svg" xmlns:xlink="http://www.w3.org/1999/xlink" x="0px" y="0px"
	 viewBox="0 0 685 99.4" style="enable-background:new 0 0 685 99.4;" xml:space="preserve">
<style type="text/css">
	.st0{fill:#C32032;}
	.st1{fill:#232C67;}
	.st2{fill:#FFFFFF;}
	.st3{fill:#235E39;}
	.st4{fill:#FFD200;}
	.st5{fill:#7B863A;}
	.st6{fill:#6D3B5D;}
	.st7{fill:#37657F;}
</style>
<g>
	<path d="M284.1,6c1.9,0,3.9,0.7,5.4,2c0.3,0.3,0.7,0.3,1,0l3.1-3.2c0.3-0.3,0.3-0.8,0-1.1c-2.7-2.5-5.6-3.7-9.6-3.7
		c-8,0-14.4,6.4-14.4,14.4c0,8,6.4,14.3,14.4,14.3c3.5,0,7-1.2,9.7-3.9c0.3-0.3,0.3-0.8,0-1.1l-3.1-3.3c-0.2-0.3-0.8-0.3-1,0
		c-1.4,1.2-3.5,1.9-5.3,1.9c-4.5,0-7.8-3.7-7.8-8.1C276.3,9.7,279.6,6,284.1,6"/>
	<path d="M319.2,0c-8,0-14.3,6.4-14.3,14.4c0,8,6.3,14.3,14.3,14.3c8,0,14.3-6.3,14.3-14.3C333.6,6.4,327.2,0,319.2,0 M319.2,22.3
		c-4.3,0-7.9-3.6-7.9-7.9c0-4.4,3.6-8,7.9-8c4.4,0,8,3.6,8,8C327.2,18.7,323.6,22.3,319.2,22.3"/>
	<path d="M362.7,22.4h-9.6V1.2c0-0.4-0.4-0.8-0.8-0.8h-4.7c-0.4,0-0.8,0.4-0.8,0.8v26.3c0,0.4,0.3,0.8,0.8,0.8h15.1
		c0.4,0,0.8-0.4,0.8-0.8v-4.3C363.4,22.7,363.1,22.4,362.7,22.4"/>
	<path d="M388.6,0c-8,0-14.3,6.4-14.3,14.4c0,8,6.3,14.3,14.3,14.3c8,0,14.3-6.3,14.3-14.3C403,6.4,396.6,0,388.6,0 M388.6,22.3
		c-4.3,0-7.9-3.6-7.9-7.9c0-4.4,3.6-8,7.9-8c4.4,0,8,3.6,8,8C396.6,18.7,393,22.3,388.6,22.3"/>
	<path d="M432.5,17c3.5-1.4,5.9-4.3,5.9-8c0-4.7-3.9-8.6-8.7-8.6h-11.9c-0.4,0-0.8,0.4-0.8,0.8v26.3c0,0.4,0.3,0.8,0.8,0.8h4.7
		c0.4,0,0.8-0.4,0.8-0.8V17.3h2.7l5.7,10.5c0.1,0.2,0.3,0.4,0.6,0.4h5.3c0.7,0,1-0.6,0.7-1.1L432.5,17z M429.2,12.3h-5.9V6.1h5.9
		c1.6,0,3,1.4,3,3C432.2,10.8,430.8,12.3,429.2,12.3"/>
	<path d="M502.5,0.4h-9.7c-0.4,0-0.7,0.4-0.7,0.8v26.3c0,0.4,0.3,0.8,0.7,0.8h9.7c7.7,0,14-6.2,14-14C516.5,6.6,510.2,0.4,502.5,0.4
		 M502.1,22.3h-3.8V6.2h3.8c4.5,0,7.8,3.5,7.8,8C509.9,18.8,506.6,22.3,502.1,22.3"/>
	<path d="M543.2,0c-8,0-14.3,6.4-14.3,14.4c0,8,6.3,14.3,14.3,14.3c7.9,0,14.3-6.3,14.3-14.3C557.5,6.4,551.1,0,543.2,0 M543.2,22.3
		c-4.3,0-7.9-3.6-7.9-7.9c0-4.4,3.6-8,7.9-8c4.4,0,7.9,3.6,7.9,8C551.1,18.7,547.6,22.3,543.2,22.3"/>
	<path d="M465.8,0.4c-0.1-0.2-0.4-0.4-0.7-0.4h-0.4c-0.3,0-0.6,0.2-0.7,0.4l-12.4,26.8c-0.2,0.5,0.1,1,0.7,1h4.4
		c0.8,0,1.2-0.2,1.4-1l1.4-3.2h10.8l1.4,3.1c0.4,0.9,0.6,1,1.4,1h4.4c0.6,0,0.9-0.5,0.7-1L465.8,0.4z M461.3,19.4l3.6-8.3l3.7,8.3
		H461.3z"/>
</g>
<rect x="252.2" y="0.1" width="1.3" height="99"/>
<g>
	<path d="M279.2,50.6c5.7,0,9.9,4.3,9.9,9.8c0,5.6-4.3,10-9.9,10c-5.7,0-9.9-4.4-9.9-10C269.3,54.9,273.6,50.6,279.2,50.6z
		 M279.2,67.3c3.5,0,6.3-3,6.3-6.9c0-3.8-2.8-6.7-6.3-6.7s-6.3,2.9-6.3,6.7C272.9,64.3,275.8,67.3,279.2,67.3z"/>
	<path d="M290.5,67.5h2v-8.6h-2.1v-2.6h2.1v-0.6c0-4.5,3.6-5,5.4-5c0.8,0,1.4,0.1,1.4,0.1v2.8c0,0-0.4-0.1-1.1-0.1
		c-0.8,0-2.3,0.2-2.3,2.2v0.7h6.3v-0.6c0-4.5,3.5-5,5.4-5c0.8,0,1.4,0.1,1.4,0.1v2.8c0,0-0.4-0.1-1.1-0.1c-0.8,0-2.3,0.2-2.3,2.2
		v0.7h9.7v11.2h2v2.6h-7.4v-2.6h2v-8.6h-6.3v8.6h2.3v2.6h-7.7v-2.6h2v-8.6h-6.3v8.6h2.3v2.6h-7.7V67.5z M311.8,50.9h3.5V54h-3.5
		V50.9z"/>
	<path d="M325.3,56c2.3,0,5.6,0.9,5.6,3.3v1.9h-3v-0.9c0-0.9-1.4-1.3-2.6-1.3c-2.5,0-4,1.7-4,4.2c0,2.8,2,4.4,4.3,4.4
		c1.9,0,3.5-1.1,4.3-1.7l1.2,2.4c-0.9,0.9-3.1,2.1-5.7,2.1c-4,0-7.6-2.7-7.6-7.2C317.9,59.1,321,56,325.3,56z"/>
	<path d="M338.9,56c4,0,6.1,2.9,6.1,6.5c0,0.4-0.1,1.2-0.1,1.2h-9.5c0.2,2.5,2.1,3.8,4.1,3.8c2.2,0,4-1.5,4-1.5l1.3,2.4
		c0,0-2.1,1.9-5.6,1.9c-4.6,0-7.4-3.3-7.4-7.2C331.9,59,334.7,56,338.9,56z M341.5,61.7c-0.1-1.9-1.2-3-2.7-3c-1.8,0-3,1.2-3.3,3
		H341.5z"/>
	<path d="M359.1,56c4.2,0,7.6,3,7.6,7.2c0,4.2-3.4,7.2-7.6,7.2c-4.2,0-7.6-3-7.6-7.2C351.5,59,354.9,56,359.1,56z M359.1,67.5
		c2.2,0,4.1-1.7,4.1-4.3c0-2.5-1.9-4.3-4.1-4.3c-2.2,0-4.1,1.8-4.1,4.3C355,65.8,356.9,67.5,359.1,67.5z"/>
	<path d="M367.7,67.5h2v-8.6h-2.1v-2.6h2.1v-0.6c0-4.5,3.6-5,5.4-5c0.8,0,1.4,0.1,1.4,0.1v2.8c0,0-0.4-0.1-1.1-0.1
		c-0.8,0-2.3,0.2-2.3,2.2v0.7h3.1v2.6h-3.1v8.6h2.3v2.6h-7.7V67.5z"/>
	<path d="M383,67.4h2.3V53.6H383v-2.7h14.2v4.9h-3v-2.1h-5.4V59h6.3v2.8h-6.3v5.4h5.8v-2.2h3v5H383V67.4z"/>
	<path d="M406.2,56c2.3,0,5.6,0.9,5.6,3.3v1.9h-3v-0.9c0-0.9-1.4-1.3-2.6-1.3c-2.5,0-4,1.7-4,4.2c0,2.8,2,4.4,4.3,4.4
		c1.9,0,3.5-1.1,4.3-1.7l1.2,2.4c-0.9,0.9-3.1,2.1-5.7,2.1c-4,0-7.6-2.7-7.6-7.2C398.8,59.1,401.9,56,406.2,56z"/>
	<path d="M420.3,56c4.2,0,7.6,3,7.6,7.2c0,4.2-3.4,7.2-7.6,7.2c-4.2,0-7.6-3-7.6-7.2C412.7,59,416.1,56,420.3,56z M420.3,67.5
		c2.2,0,4.1-1.7,4.1-4.3c0-2.5-1.9-4.3-4.1-4.3c-2.2,0-4.1,1.8-4.1,4.3C416.2,65.8,418.1,67.5,420.3,67.5z"/>
	<path d="M429,67.5h2v-8c0-0.4-0.2-0.6-0.6-0.6h-1.5v-2.6h3.6c1.2,0,1.8,0.6,1.8,1.5v0.6c0,0.3-0.1,0.6-0.1,0.6h0.1
		c0.2-0.4,1.6-3.1,5.1-3.1c2.9,0,4.6,1.6,4.6,5.2v6.3h2v2.6h-5.4v-8.2c0-1.7-0.5-2.8-2.2-2.8c-2.5,0-3.9,2.4-3.9,4.8v3.6h2v2.6H429
		V67.5z"/>
	<path d="M453.9,56c4.2,0,7.6,3,7.6,7.2c0,4.2-3.4,7.2-7.6,7.2c-4.2,0-7.6-3-7.6-7.2C446.4,59,449.8,56,453.9,56z M454,67.5
		c2.2,0,4.1-1.7,4.1-4.3c0-2.5-1.9-4.3-4.1-4.3c-2.2,0-4.1,1.8-4.1,4.3C449.9,65.8,451.7,67.5,454,67.5z"/>
	<path d="M462.6,67.5h2v-8.1c0-0.4-0.2-0.6-0.6-0.6h-1.5v-2.6h3.6c1.2,0,1.8,0.6,1.8,1.5v0.6c0,0.3-0.1,0.6-0.1,0.6h0.1
		c0.7-1.4,2.4-3.1,4.7-3.1c1.9,0,3.3,0.9,3.8,3h0.1c0.8-1.6,2.6-3,4.8-3c2.8,0,4.4,1.6,4.4,5.2v6.3h2v2.6h-5.4v-8.2
		c0-1.6-0.3-2.8-1.9-2.8c-2.3,0-3.5,2.3-3.5,4.9v3.5h2v2.6h-5.4v-8.2c0-1.5-0.2-2.8-1.9-2.8c-2.4,0-3.5,2.6-3.5,5v3.3h2v2.6h-7.4
		V67.5z"/>
	<path d="M488.5,67.5h2v-8.6h-2.1v-2.6h5.6v11.2h2v2.6h-7.4V67.5z M490.4,50.9h3.5V54h-3.5V50.9z"/>
	<path d="M503.9,56c2.3,0,5.6,0.9,5.6,3.3v1.9h-3v-0.9c0-0.9-1.4-1.3-2.6-1.3c-2.5,0-4,1.7-4,4.2c0,2.8,2,4.4,4.3,4.4
		c1.9,0,3.5-1.1,4.3-1.7l1.2,2.4c-0.9,0.9-3.1,2.1-5.7,2.1c-4,0-7.6-2.7-7.6-7.2C496.5,59.1,499.7,56,503.9,56z"/>
	<path d="M516.6,67.4h2.3V53.6h-2.3v-2.7h8.3c1.5,0,2.8,0.1,4,0.5c3.7,1.1,6.2,4.4,6.2,9.1c0,4.5-2.3,7.8-5.9,9
		c-1.3,0.5-2.6,0.6-4.2,0.6h-8.3V67.4z M524.7,67.3c1.2,0,2.2-0.1,3.1-0.5c2.2-0.9,3.6-3.1,3.6-6.3c0-3.2-1.5-5.5-3.7-6.3
		c-1-0.4-1.9-0.4-3-0.4h-2.3v13.5H524.7z"/>
	<path d="M543.2,56c4,0,6.1,2.9,6.1,6.5c0,0.4-0.1,1.2-0.1,1.2h-9.5c0.2,2.5,2.1,3.8,4.1,3.8c2.2,0,4-1.5,4-1.5l1.3,2.4
		c0,0-2.1,1.9-5.6,1.9c-4.6,0-7.4-3.3-7.4-7.2C536.2,59,539.1,56,543.2,56z M545.8,61.7c-0.1-1.9-1.2-3-2.7-3c-1.8,0-3,1.2-3.3,3
		H545.8z"/>
	<path d="M549.5,56.3h6.6v2.6h-1.5l2.4,6.8c0.3,0.7,0.4,1.5,0.4,1.5h0.1c0,0,0.1-0.8,0.3-1.5l2.4-6.8h-1.6v-2.6h6.6v2.6h-1.6
		l-4.2,11.2h-3.9l-4.2-11.2h-1.7V56.3z"/>
	<path d="M572.3,56c4,0,6.1,2.9,6.1,6.5c0,0.4-0.1,1.2-0.1,1.2h-9.5c0.2,2.5,2.1,3.8,4.1,3.8c2.2,0,4-1.5,4-1.5l1.3,2.4
		c0,0-2.1,1.9-5.6,1.9c-4.6,0-7.4-3.3-7.4-7.2C565.3,59,568.2,56,572.3,56z M574.9,61.7c-0.1-1.9-1.2-3-2.7-3c-1.8,0-3,1.2-3.3,3
		H574.9z"/>
	<path d="M580.4,53.5h-2.1v-2.6h5.5v14.6c0,1.2,0.3,1.9,1.4,1.9c0.4,0,0.6,0,0.6,0v2.8c0,0-0.6,0.1-1.2,0.1c-2.2,0-4.2-0.7-4.2-4.5
		V53.5z"/>
	<path d="M594,56c4.2,0,7.6,3,7.6,7.2c0,4.2-3.4,7.2-7.6,7.2c-4.2,0-7.6-3-7.6-7.2C586.5,59,589.9,56,594,56z M594.1,67.5
		c2.2,0,4.1-1.7,4.1-4.3c0-2.5-1.9-4.3-4.1-4.3c-2.2,0-4.1,1.8-4.1,4.3C590,65.8,591.8,67.5,594.1,67.5z"/>
	<path d="M604.4,72.9V59.5c0-0.4-0.2-0.6-0.6-0.6h-1.5v-2.6h3.5c1.3,0,1.7,0.6,1.7,1.3v0.1c0,0.3,0,0.6,0,0.6h0.1
		c0,0,1.2-2.3,4.4-2.3c3.7,0,6.1,2.9,6.1,7.2c0,4.4-2.7,7.2-6.3,7.2c-2.7,0-4-1.9-4-1.9h-0.1c0,0,0.1,0.5,0.1,1.2v3.3h2v2.6h-7.4
		v-2.6H604.4z M611.1,67.5c1.9,0,3.5-1.5,3.5-4.3c0-2.6-1.4-4.3-3.4-4.3c-1.8,0-3.5,1.3-3.5,4.3C607.7,65.4,608.9,67.5,611.1,67.5z"
		/>
	<path d="M619.2,67.5h2v-8.1c0-0.4-0.2-0.6-0.6-0.6h-1.5v-2.6h3.6c1.2,0,1.8,0.6,1.8,1.5v0.6c0,0.3-0.1,0.6-0.1,0.6h0.1
		c0.7-1.4,2.4-3.1,4.7-3.1c1.9,0,3.3,0.9,3.8,3h0.1c0.8-1.6,2.6-3,4.8-3c2.8,0,4.4,1.6,4.4,5.2v6.3h2v2.6h-5.4v-8.2
		c0-1.6-0.3-2.8-1.9-2.8c-2.3,0-3.5,2.3-3.5,4.9v3.5h2v2.6H630v-8.2c0-1.5-0.2-2.8-1.9-2.8c-2.4,0-3.5,2.6-3.5,5v3.3h2v2.6h-7.4
		V67.5z"/>
	<path d="M651.7,56c4,0,6.1,2.9,6.1,6.5c0,0.4-0.1,1.2-0.1,1.2h-9.5c0.2,2.5,2.1,3.8,4.1,3.8c2.2,0,4-1.5,4-1.5l1.3,2.4
		c0,0-2.1,1.9-5.6,1.9c-4.6,0-7.4-3.3-7.4-7.2C644.7,59,647.6,56,651.7,56z M654.3,61.7c-0.1-1.9-1.2-3-2.7-3c-1.8,0-3,1.2-3.3,3
		H654.3z"/>
	<path d="M659,67.5h2v-8c0-0.4-0.2-0.6-0.6-0.6h-1.5v-2.6h3.6c1.2,0,1.8,0.6,1.8,1.5v0.6c0,0.3-0.1,0.6-0.1,0.6h0.1
		c0.2-0.4,1.6-3.1,5.1-3.1c2.9,0,4.6,1.6,4.6,5.2v6.3h2v2.6h-5.4v-8.2c0-1.7-0.5-2.8-2.2-2.8c-2.5,0-3.9,2.4-3.9,4.8v3.6h2v2.6H659
		V67.5z"/>
	<path d="M678.2,58.9H676v-2.6h2.2v-3.8h3.3v3.8h3.1v2.6h-3.1v5.8c0,2.3,1.8,2.7,2.8,2.7c0.4,0,0.6,0,0.6,0v2.8c0,0-0.4,0.1-1.1,0.1
		c-1.9,0-5.7-0.6-5.7-5.2V58.9z"/>
	<path d="M272.7,88.9L272.7,88.9c0-0.1-2.6-1-2.6-4.2c0-3.4,2.9-5,6.3-5c1.3,0,2.5,0.3,2.5,0.3l-0.8,2.8c0,0-0.7-0.2-1.3-0.2
		c-1.8,0-3.2,0.9-3.2,2.5c0,1.2,0.6,2.7,2.9,2.7h3.6v-2.6h3.4v2.6h2.5v2.8h-2.5v2.4c0,3.9-2.7,6.5-7.1,6.5c-4.3,0-7.1-2.5-7.1-5.7
		C269.3,91.6,270.6,89.6,272.7,88.9z M276.5,96.3c2.2,0,3.7-1.2,3.7-3.6v-2.2h-3.8c-2.1,0-3.5,1-3.5,2.9
		C272.9,95.1,274.3,96.3,276.5,96.3z"/>
	<path d="M292.6,96.4h2.3V82.6h-2.3v-2.7h8.2v2.7h-2.3v13.8h2.3v2.6h-8.2V96.4z"/>
	<path d="M302.3,96.5h2v-8c0-0.4-0.2-0.6-0.6-0.6h-1.5v-2.6h3.6c1.2,0,1.8,0.6,1.8,1.5v0.6c0,0.3-0.1,0.6-0.1,0.6h0.1
		c0.2-0.4,1.6-3.1,5.1-3.1c2.9,0,4.6,1.6,4.6,5.2v6.3h2v2.6h-5.4v-8.2c0-1.7-0.5-2.8-2.2-2.8c-2.5,0-3.9,2.4-3.9,4.8v3.6h2v2.6h-7.4
		V96.5z"/>
	<path d="M321.4,87.9h-2.1v-2.6h2.2v-3.8h3.3v3.8h3.1v2.6h-3.1v5.8c0,2.3,1.8,2.7,2.8,2.7c0.4,0,0.6,0,0.6,0v2.8
		c0,0-0.4,0.1-1.1,0.1c-1.9,0-5.7-0.6-5.7-5.2V87.9z"/>
	<path d="M335.9,85c4,0,6.1,2.9,6.1,6.5c0,0.4-0.1,1.2-0.1,1.2h-9.5c0.2,2.5,2.1,3.8,4.1,3.8c2.2,0,4-1.5,4-1.5l1.3,2.4
		c0,0-2.1,1.9-5.6,1.9c-4.6,0-7.4-3.3-7.4-7.2C328.9,88,331.8,85,335.9,85z M338.5,90.7c-0.1-1.9-1.2-3-2.7-3c-1.8,0-3,1.2-3.3,3
		H338.5z"/>
	<path d="M343.2,96.5h2v-8c0-0.4-0.2-0.6-0.6-0.6h-1.5v-2.6h3.6c1.2,0,1.8,0.5,1.8,1.7v0.8c0,0.5-0.1,0.9-0.1,0.9h0.1
		c0.6-2,2.3-3.5,4.4-3.5c0.3,0,0.6,0.1,0.6,0.1v3.4c0,0-0.4-0.1-0.8-0.1c-2.8,0-4,2.4-4,5v3h2v2.6h-7.4V96.5z"/>
	<path d="M354.1,96.5h2v-8c0-0.4-0.2-0.6-0.6-0.6H354v-2.6h3.6c1.2,0,1.8,0.6,1.8,1.5v0.6c0,0.3-0.1,0.6-0.1,0.6h0.1
		c0.2-0.4,1.6-3.1,5.1-3.1c2.9,0,4.6,1.6,4.6,5.2v6.3h2v2.6h-5.4v-8.2c0-1.7-0.5-2.8-2.2-2.8c-2.5,0-3.9,2.4-3.9,4.8v3.6h2v2.6h-7.4
		V96.5z"/>
	<path d="M379.1,90.6h0.9v-0.5c0-1.8-1.1-2.4-2.5-2.4c-2.1,0-3.9,1.3-3.9,1.3l-1.3-2.4c0,0,2.1-1.7,5.5-1.7c3.7,0,5.7,1.9,5.7,5.4
		v5.5c0,0.4,0.2,0.6,0.6,0.6h1.2v2.6H382c-1.3,0-1.8-0.7-1.8-1.5v-0.2c0-0.4,0.1-0.7,0.1-0.7h-0.1c0,0-1.2,2.6-4.3,2.6
		c-2.3,0-4.6-1.4-4.6-4.2C371.4,91,376.9,90.6,379.1,90.6z M376.8,96.9c1.9,0,3.2-2,3.2-3.7v-0.5h-0.6c-1.3,0-4.6,0.2-4.6,2.3
		C374.8,96,375.6,96.9,376.8,96.9z"/>
	<path d="M387.4,87.9h-2.1v-2.6h2.2v-3.8h3.3v3.8h3.1v2.6h-3.1v5.8c0,2.3,1.8,2.7,2.8,2.7c0.4,0,0.6,0,0.6,0v2.8
		c0,0-0.4,0.1-1.1,0.1c-1.9,0-5.7-0.6-5.7-5.2V87.9z"/>
	<path d="M395.3,96.5h2v-8.6h-2.1v-2.6h5.6v11.2h2v2.6h-7.4V96.5z M397.2,79.9h3.5V83h-3.5V79.9z"/>
	<path d="M410.9,85c4.2,0,7.6,3,7.6,7.2c0,4.2-3.4,7.2-7.6,7.2c-4.2,0-7.6-3-7.6-7.2C403.3,88,406.7,85,410.9,85z M410.9,96.5
		c2.2,0,4.1-1.7,4.1-4.3c0-2.5-1.9-4.3-4.1-4.3c-2.2,0-4.1,1.8-4.1,4.3C406.8,94.8,408.6,96.5,410.9,96.5z"/>
	<path d="M419.5,96.5h2v-8c0-0.4-0.2-0.6-0.6-0.6h-1.5v-2.6h3.6c1.2,0,1.8,0.6,1.8,1.5v0.6c0,0.3-0.1,0.6-0.1,0.6h0.1
		c0.2-0.4,1.6-3.1,5.1-3.1c2.9,0,4.6,1.6,4.6,5.2v6.3h2v2.6h-5.4v-8.2c0-1.7-0.5-2.8-2.2-2.8c-2.5,0-3.9,2.4-3.9,4.8v3.6h2v2.6h-7.4
		V96.5z"/>
	<path d="M444.5,90.6h0.9v-0.5c0-1.8-1.1-2.4-2.5-2.4c-2.1,0-3.9,1.3-3.9,1.3l-1.3-2.4c0,0,2.1-1.7,5.5-1.7c3.7,0,5.7,1.9,5.7,5.4
		v5.5c0,0.4,0.2,0.6,0.6,0.6h1.2v2.6h-3.2c-1.3,0-1.8-0.7-1.8-1.5v-0.2c0-0.4,0.1-0.7,0.1-0.7h-0.1c0,0-1.2,2.6-4.3,2.6
		c-2.3,0-4.6-1.4-4.6-4.2C436.8,91,442.3,90.6,444.5,90.6z M442.2,96.9c1.9,0,3.2-2,3.2-3.7v-0.5h-0.6c-1.3,0-4.6,0.2-4.6,2.3
		C440.2,96,441,96.9,442.2,96.9z"/>
	<path d="M452.2,82.5h-2.1v-2.6h5.5v14.6c0,1.2,0.3,1.9,1.4,1.9c0.4,0,0.6,0,0.6,0v2.8c0,0-0.6,0.1-1.2,0.1c-2.2,0-4.2-0.7-4.2-4.5
		V82.5z"/>
	<path d="M468.1,96.4h2.3V82.8h-3.6v2.9h-3v-5.7h16.8v5.7h-3v-2.9H474v13.7h2.3v2.6h-8.2V96.4z"/>
	<path d="M481.5,96.5h2v-8c0-0.4-0.2-0.6-0.6-0.6h-1.5v-2.6h3.6c1.2,0,1.8,0.5,1.8,1.7v0.8c0,0.5-0.1,0.9-0.1,0.9h0.1
		c0.6-2,2.3-3.5,4.4-3.5c0.3,0,0.6,0.1,0.6,0.1v3.4c0,0-0.4-0.1-0.8-0.1c-2.8,0-4,2.4-4,5v3h2v2.6h-7.4V96.5z"/>
	<path d="M499.7,90.6h0.9v-0.5c0-1.8-1.1-2.4-2.5-2.4c-2.1,0-3.9,1.3-3.9,1.3l-1.3-2.4c0,0,2.1-1.7,5.5-1.7c3.7,0,5.7,1.9,5.7,5.4
		v5.5c0,0.4,0.2,0.6,0.6,0.6h1.2v2.6h-3.2c-1.3,0-1.8-0.7-1.8-1.5v-0.2c0-0.4,0.1-0.7,0.1-0.7h-0.1c0,0-1.2,2.6-4.3,2.6
		c-2.3,0-4.6-1.4-4.6-4.2C492,91,497.5,90.6,499.7,90.6z M497.4,96.9c1.9,0,3.2-2,3.2-3.7v-0.5H500c-1.3,0-4.6,0.2-4.6,2.3
		C495.4,96,496.1,96.9,497.4,96.9z"/>
	<path d="M512.6,85c2.9,0,4,1.9,4,1.9h0.1c0,0-0.1-0.4-0.1-1v-3.5h-2.1v-2.6h5.5v16c0,0.4,0.2,0.6,0.6,0.6h1.2v2.6h-3.2
		c-1.2,0-1.8-0.7-1.8-1.5v-0.2c0-0.4,0.1-0.6,0.1-0.6h-0.1c0,0-1.1,2.6-4.5,2.6c-3.7,0-6-2.9-6-7.2C506.4,87.8,508.9,85,512.6,85z
		 M513.2,96.5c1.8,0,3.5-1.3,3.5-4.2c0-2.2-1.1-4.3-3.4-4.3c-1.9,0-3.5,1.5-3.5,4.3C509.8,94.8,511.2,96.5,513.2,96.5z"/>
	<path d="M529.5,85c4,0,6.1,2.9,6.1,6.5c0,0.4-0.1,1.2-0.1,1.2h-9.5c0.2,2.5,2.1,3.8,4.1,3.8c2.2,0,4-1.5,4-1.5l1.3,2.4
		c0,0-2.1,1.9-5.6,1.9c-4.6,0-7.4-3.3-7.4-7.2C522.6,88,525.4,85,529.5,85z M532.1,90.7c-0.1-1.9-1.2-3-2.7-3c-1.8,0-3,1.2-3.3,3
		H532.1z"/>
</g>
<g>
	<g>
		<g>
			<path class="st0" d="M236.4,51.1c0-0.5,0-1,0-1.5c0-27.3-22.2-49.5-49.5-49.5s-49.5,22.2-49.5,49.5c0,0.5,0,1,0,1.5l49.5,20.1
				L236.4,51.1z"/>
			<path class="st1" d="M186.9,74.2l-0.5-0.2l-48.8-19.8c2.3,25.2,23.5,45,49.3,45s47-19.7,49.3-45L186.9,74.2z"/>
		</g>
		<g>
			<path class="st2" d="M168.2,77.4c3.3,0,6,2.7,6,6s-2.7,6-6,6c-3.3,0-6-2.6-6-6S164.9,77.4,168.2,77.4z M168.2,86.7
				c1.8,0,3.3-1.5,3.3-3.3c0-1.8-1.5-3.3-3.3-3.3c-1.8,0-3.3,1.5-3.3,3.3C164.9,85.2,166.4,86.7,168.2,86.7z"/>
			<path class="st2" d="M176.6,77.8c0-0.2,0.1-0.3,0.3-0.3h6.9c0.2,0,0.3,0.1,0.3,0.3v1.8c0,0.2-0.1,0.3-0.3,0.3h-4.6V82h3.8
				c0.2,0,0.3,0.1,0.3,0.3v1.8c0,0.2-0.2,0.3-0.3,0.3h-3.8v2.2h4.6c0.2,0,0.3,0.1,0.3,0.3v1.8c0,0.2-0.1,0.3-0.3,0.3h-6.9
				c-0.2,0-0.3-0.1-0.3-0.3V77.8z"/>
			<path class="st2" d="M186.7,77.8c0-0.2,0.1-0.3,0.3-0.3h4.1c3.2,0,5.8,2.6,5.8,5.8c0,3.2-2.6,5.8-5.8,5.8H187
				c-0.2,0-0.3-0.1-0.3-0.3V77.8z M190.9,86.7c1.9,0,3.2-1.5,3.2-3.4c0-1.9-1.4-3.4-3.2-3.4h-1.6v6.7H190.9z"/>
			<path class="st2" d="M199.2,77.8c0-0.2,0.1-0.3,0.3-0.3h2c0.2,0,0.3,0.1,0.3,0.3v11c0,0.2-0.2,0.3-0.3,0.3h-2
				c-0.2,0-0.3-0.1-0.3-0.3V77.8z"/>
			<path class="st2" d="M206.6,80h-2.4c-0.2,0-0.3-0.1-0.3-0.3v-1.8c0-0.2,0.1-0.3,0.3-0.3h7.4c0.2,0,0.3,0.1,0.3,0.3v1.8
				c0,0.2-0.1,0.3-0.3,0.3h-2.4v8.9c0,0.2-0.1,0.3-0.3,0.3h-2c-0.2,0-0.3-0.1-0.3-0.3V80z"/>
		</g>
	</g>
	<g>
		<path class="st2" d="M187.4,36.7c0.1,0,0.2-0.1,0.3-0.1c2.6-1.2,5.2-2.7,8-4.6c0,0,0,0,0,0c0,0,0,0,0-0.1l-3.8-5.2
			c0,0-0.1,0-0.1,0c-2.4,1.5-4.8,2.9-7.3,4.1c0,0,0,0.1,0,0.1l2.7,5.8c0,0,0,0,0.1,0C187.3,36.7,187.3,36.7,187.4,36.7L187.4,36.7z"
			/>
		<path class="st2" d="M170.7,29.4C170.7,29.4,170.7,29.4,170.7,29.4C170.7,29.4,170.7,29.4,170.7,29.4
			C170.8,29.4,170.8,29.4,170.7,29.4c0.2-1.8,0.4-3.6,0.8-5.4c0,0,0,0,0-0.1c0,0,0,0,0,0c-1-0.2-1.8-0.7-2.2-1.5
			c-0.9-1.9-0.3-4.4,0.6-6c0,0,0-0.1,0-0.1c0,0-0.1,0-0.1,0c-0.1,0.1-0.2,0.2-0.3,0.4c-1.4,2-4.3,6-2.6,9.6
			C167.6,27.9,168.9,28.9,170.7,29.4z"/>
		<path class="st2" d="M191.9,46.5C191.9,46.5,191.9,46.5,191.9,46.5C191.9,46.5,191.9,46.5,191.9,46.5c4.8-2.3,7.3-4.1,8.2-4.8
			l1.1,1.7c0,0,0,0,0.1,0c0,0,0.1,0,0.1,0l2.9-8.5c0,0,0,0,0-0.1c0,0,0,0-0.1,0h0l-8.3,0.3c0,0,0,0-0.1,0c0,0,0,0.1,0,0.1l0.9,1.4
			c-0.8,0.6-3.6,2.4-7.4,4.2c0,0,0,0,0,0c0,0,0,0,0,0.1L191.9,46.5C191.8,46.5,191.8,46.5,191.9,46.5z"/>
		<path class="st2" d="M186.7,17.2C186.7,17.2,186.7,17.2,186.7,17.2l4.5,6.3c0,0,0,0,0.1,0c0,0,0,0,0,0c0,0,0.1,0,0.1,0l3.3-8.4
			c0,0,0,0,0-0.1c0,0,0,0-0.1,0l-8.9,0.5c0,0,0,0-0.1,0c0,0,0,0.1,0,0.1L186.7,17.2z"/>
		<path class="st2" d="M198.9,21.2c-1,0.9-3,2.6-5.9,4.7c0,0,0,0,0,0c0,0,0,0,0,0.1l3.7,5.2c0,0,0,0,0.1,0c0,0,0,0,0,0
			c2.8-2,5.2-4,6.6-5.2l1.1,1.2c0,0,0,0,0.1,0c0,0,0,0,0-0.1l1.4-8.7c0,0,0,0,0-0.1c0,0,0,0-0.1,0l-8.1,1.6c0,0,0,0-0.1,0
			c0,0,0,0.1,0,0.1L198.9,21.2z"/>
		<path class="st2" d="M182.6,26.9C182.6,26.9,182.6,26.9,182.6,26.9C182.7,26.9,182.7,26.9,182.6,26.9c3.2-1.5,5.3-3,6.6-3.9
			c0,0,0-0.1,0-0.1l-3.5-4.8c0,0,0,0,0,0c0,0,0,0-0.1,0c-1.3,1-3.3,2.4-5.5,3.5c0,0,0,0.1,0,0.1L182.6,26.9
			C182.6,26.9,182.6,26.9,182.6,26.9z"/>
		<path class="st2" d="M171.2,39.1C171.2,39.1,171.2,39.1,171.2,39.1C171.2,39.1,171.3,39.1,171.2,39.1
			C171.3,39.1,171.3,39,171.2,39.1c-0.2-1.8-0.4-3.5-0.5-5.2c0,0,0-0.1-0.1-0.1c-4.3-0.9-6-3.8-6-7.1c0-0.6,0.1-1.2,0.3-1.8
			c0,0,0-0.1,0-0.1c0,0-0.1,0-0.1,0c0,0,0,0,0,0l0,0c-0.6,2.1-1.6,5.2,0,8.7C166.1,36.3,168.3,38.2,171.2,39.1z"/>
		<path class="st2" d="M172.7,39.5c0.9,0.2,1.8,0.2,2.7,0.2c0,0,0,0,0,0c3.1,0,6.7-0.8,10.5-2.4c0,0,0,0,0,0c0,0,0,0,0-0.1l-2.7-5.8
			c0,0-0.1,0-0.1,0c-3.9,1.8-7.4,2.6-10.3,2.6c-0.3,0-0.6,0-0.9,0h0c0,0,0,0-0.1,0c0,0,0,0,0,0.1C172,35.9,172.3,37.7,172.7,39.5
			C172.7,39.4,172.7,39.5,172.7,39.5z"/>
		<path class="st2" d="M205,44.6C204.9,44.6,204.9,44.6,205,44.6c-3,2-6.2,3.9-9.7,5.6c-0.4,0.2-0.8,0.4-1.3,0.6c0,0,0,0,0,0
			c0,0,0,0,0,0.1l2.7,5.7c0,0,0,0,0.1,0c0,0,0,0,0,0c0.4-0.2,0.8-0.3,1.1-0.5c4.1-1.9,7.8-4,10.9-6.3c0,0,0,0,0,0c0,0,0,0,0-0.1
			L205,44.6z"/>
		<path class="st2" d="M217.1,37.5C217.1,37.4,217.1,37.4,217.1,37.5l-8.3,1.7c0,0,0,0-0.1,0c0,0,0,0,0,0.1l1,1.3
			c-0.8,0.7-2.1,1.9-3.8,3.2c0,0,0,0.1,0,0.1l3.7,5.1c0,0,0,0,0,0c0,0,0,0,0,0c0,0,0,0,0,0c1.5-1.2,2.9-2.3,4-3.5l1,1.3
			c0,0,0,0,0.1,0c0,0,0,0,0.1-0.1L217.1,37.5C217.2,37.5,217.2,37.5,217.1,37.5z"/>
		<path class="st2" d="M173,29.7c2.3,0,5.3-0.7,8.4-2.2c0,0,0,0,0,0c0,0,0,0,0-0.1l-2.5-5.3c0,0-0.1,0-0.1,0
			c-2.4,1.1-4.5,1.7-6.1,1.8c0,0-0.1,0-0.1,0.1c-0.4,1.9-0.6,3.8-0.7,5.6c0,0,0,0.1,0.1,0.1C172.4,29.7,172.7,29.7,173,29.7z"/>
		<path class="st2" d="M178.1,53.8C178.1,53.8,178,53.8,178.1,53.8c-5.9-0.6-10.4-3.4-12.4-7.6c0,0-0.1,0-0.1,0c0,0-0.1,0.1,0,0.1
			c0,0,0,0,0,0c3.4,7.1,9.3,11.6,16.6,12.6c0,0,0,0,0,0c0,0,0.1,0,0.1,0c0,0,0-0.1,0-0.1C180.8,57.3,179.4,55.6,178.1,53.8z"/>
		<path class="st2" d="M174.2,44C174.1,44,174.1,44,174.2,44C174.1,44,174.1,44.1,174.2,44C174.1,44.1,174.1,44.1,174.2,44
			c0.2,0.8,0.5,1.5,0.8,2.2c0.5,1.1,1.1,2.3,1.9,3.5c0,0,0,0,0.1,0c0.6,0,1.2,0.1,1.8,0.1c3.8,0,7.9-0.9,11.9-2.7c0,0,0,0,0,0
			c0,0,0,0,0-0.1l-2.6-5.5c0,0-0.1,0-0.1,0c-4.1,1.7-8.2,2.7-11.7,2.7C175.5,44.2,174.8,44.1,174.2,44z"/>
		<path class="st2" d="M175.1,49.5C175.1,49.5,175.1,49.5,175.1,49.5C175.1,49.5,175.2,49.5,175.1,49.5c0.1-0.1,0.1-0.1,0.1-0.1
			c-0.5-0.9-1-1.8-1.4-2.6c-0.4-1-0.8-1.9-1.2-2.9c0,0,0,0-0.1,0c-3.8-0.8-6.5-2.9-8-6c-0.7-1.6-1.5-4.2-1.2-6.1c0,0,0-0.1-0.1-0.1
			c0,0-0.1,0-0.1,0.1c-0.5,2.7-0.8,6.2,0.8,9.8C166.2,45.8,170,48.6,175.1,49.5z M168.7,42.4c0.1,0,0.1,0.1,0.2,0.1
			C168.8,42.5,168.8,42.5,168.7,42.4z M171.2,43.5C171.2,43.5,171.2,43.5,171.2,43.5C171.2,43.5,171.2,43.5,171.2,43.5z M166.7,40.9
			c0.1,0.1,0.1,0.1,0.2,0.2C166.8,41,166.7,40.9,166.7,40.9z M165.1,38.9c0,0.1,0.1,0.1,0.1,0.2C165.2,39,165.1,39,165.1,38.9z"/>
		<path class="st2" d="M192.7,51.4C192.7,51.3,192.6,51.3,192.7,51.4c-4.4,1.7-8.5,2.5-12.3,2.5c-0.2,0-0.4,0-0.5,0c0,0,0,0,0,0
			c0,0-0.1,0-0.1,0c0,0,0,0.1,0,0.1c1.5,1.9,3.1,3.6,4.6,5.1c0,0,0,0,0,0c0.3,0,0.6,0,1,0c3.2,0,6.6-0.6,9.9-1.9c0,0,0,0,0,0
			c0,0,0,0,0-0.1L192.7,51.4z"/>
	</g>
</g>
<g>
	<g>
		<path class="st3" d="M43.5,80.6c-1.5-1.9-2.9-3.9-4.1-6c-0.1-0.1-0.2-0.2-0.2-0.3c-0.9-1.7-1.8-3.3-2.5-5.1
			c-0.2-0.5-0.4-1-0.6-1.6c-2.6-6.6-3.7-13.5-3.4-20.6c0.4-7.8,2.6-15,6.4-21.8c0-0.1,0.1-0.2,0.1-0.3c1.1-1.7,2.1-3.4,3.3-5
			c-0.6-1-1.1-2-1.8-3.2c-3.9-7-5.9-10.3-9.8-16.8c-3.9,6.6-5.9,10-9.8,17.1c-3.9,6.9-5.9,10.4-9.7,17.8c3.2-0.8,4.8-1.2,8-1.6
			c-0.8,2-1.2,3-2,5.1c-4.7,9.2-9.1,18.7-13.3,28.1c3.3-1.2,4.9-1.7,8.3-2.5C8,74.1,4,84.3,0,94.6c21.7-7.5,39.4-7.6,61.1-0.2
			c-4.5-2.1-8.6-4.9-12.5-8.4C46.7,84.4,45,82.6,43.5,80.6z"/>
		<path class="st4" d="M82.2,25.7c-7.2,0-13.9,3.2-18.5,8.7l-0.1,0.1c-3.5,4.3-5.5,9.7-5.5,15.3c0,0.2,0,0.5,0,0.7l14.6-12.7l10,8.7
			l10-8.7l13.7,11.9c0-3.2-0.6-6.2-1.9-9.1C100.7,31.5,92,25.7,82.2,25.7z"/>
		<path class="st0" d="M39,25.3c-3.8,6.7-6,14-6.4,21.8c-0.3,7.1,0.8,14,3.4,20.6c0.2,0.5,0.4,1.1,0.6,1.6l18.9-16.5
			c0-0.3-0.1-0.7-0.1-1c0-0.6-0.1-1.2-0.1-1.9c0-6.2,2.2-12.3,6.1-17.1l0.1-0.1c5.1-6.1,12.6-9.6,20.6-9.6
			c10.9,0,20.6,6.5,24.8,16.5c0,0,0,0,0,0c6.7-2.7,13.3-5.4,20-8.1c0.4-0.2,0.6-0.3,0.3-0.8c-0.8-1.9-1.8-3.8-2.7-5.6
			c-0.1-0.2-0.2-0.3-0.3-0.4c-9-14.5-22-22.5-39-24.1c-4.9-0.4-9.7,0-14.5,1.1c-11.3,2.7-20.6,8.5-27.8,17.6
			c-0.2,0.3-0.4,0.5-0.6,0.8c-1.2,1.6-2.3,3.3-3.3,5C39.1,25.1,39,25.2,39,25.3z"/>
		<path class="st5" d="M72.7,37.7L58.1,50.5c0,0.4,0,0.7,0.1,1c0.3,3.8,1.4,7.5,3.4,10.7c0.4,0.7,0.8,1.2,1.1,1.6l20-17.5L72.7,37.7
			z"/>
		<path class="st6" d="M59.2,63.8c-2-3.4-3.3-7.2-3.7-11L36.6,69.3c0.8,1.7,1.6,3.4,2.5,5.1c0.1,0.1,0.2,0.2,0.2,0.3
			c1.2,2.1,2.6,4.1,4.1,6l0.7-0.6l16.4-14.3c0,0-0.1-0.1-0.1-0.1C60.1,65.1,59.7,64.5,59.2,63.8z"/>
		<path class="st1" d="M126.8,67.8c-6.5-2.7-13.1-5.3-19.6-7.9c0,0,0,0,0,0c-0.7,1.8-1.7,3.6-2.8,5.2c-5,7.3-13.3,11.6-22.1,11.6
			c-8.5,0-16.6-4.1-21.7-11L44.2,80l-0.7,0.6c1.5,1.9,3.2,3.7,5.1,5.4c3.9,3.5,8.1,6.3,12.5,8.4c6,2.8,12.5,4.3,19.5,4.6
			c5.1,0.2,10.1-0.5,15-1.9c9.6-2.8,17.6-8.1,24.1-15.7c0.4-0.5,0.8-1,1.3-1.5c1.3-1.7,2.5-3.6,3.7-5.5c1-1.7,1.9-3.5,2.6-5.3
			c0.1-0.2,0.1-0.3,0.2-0.4l0.1-0.2l-0.1-0.2C127.3,68,127.1,68,126.8,67.8z"/>
		<path class="st7" d="M82.7,46.4l19.2,16.7l0.3,0.2c1-1.4,1.8-3,2.4-4.5c1.2-2.9,1.8-5.9,1.8-9c0-0.1,0-0.1,0-0.2L92.7,37.7
			L82.7,46.4z"/>
		<path class="st1" d="M82.7,46.4l-20,17.5c0,0,0,0.1,0.1,0.1c4.5,6.2,11.8,9.9,19.5,9.9c7.9,0,15.3-3.9,19.8-10.4
			c0,0,0.1-0.1,0.1-0.1l-0.3-0.2L82.7,46.4z"/>
	</g>
	<g>
		<path d="M111.4,93.9h-1.1c-0.1,0-0.1-0.1-0.1-0.1v-0.6c0-0.1,0.1-0.1,0.1-0.1h3c0.1,0,0.1,0.1,0.1,0.1v0.6c0,0.1-0.1,0.1-0.1,0.1
			h-1.1v3.9c0,0.1-0.1,0.1-0.1,0.1h-0.6c-0.1,0-0.1-0.1-0.1-0.1V93.9z"/>
		<path d="M115.3,93.1c0-0.1,0-0.1,0.1-0.1h0.1c0.1,0,0.1,0,0.1,0.1l1.5,3.3h0l1.5-3.3c0,0,0.1-0.1,0.1-0.1h0.1c0.1,0,0.1,0,0.1,0.1
			l0.8,4.7c0,0.1,0,0.2-0.1,0.2h-0.6c-0.1,0-0.1-0.1-0.1-0.1l-0.4-2.6h0l-1.2,2.7c0,0-0.1,0.1-0.1,0.1h-0.1c-0.1,0-0.1,0-0.1-0.1
			l-1.2-2.7h0l-0.4,2.6c0,0-0.1,0.1-0.1,0.1h-0.6c-0.1,0-0.1-0.1-0.1-0.2L115.3,93.1z"/>
	</g>
</g>
</svg>
