<?xml version="1.0" encoding="UTF-8" standalone="no"?>
<!-- Created with Inkscape (http://www.inkscape.org/) -->
<svg xmlns:svg="http://www.w3.org/2000/svg" xmlns="http://www.w3.org/2000/svg" version="1.0" width="381.17056" height="111.17475" id="svg3421">
  <defs id="defs3423"/>
  <g transform="translate(-132.581, -400.16)" id="layer1" style="display: inline;">
    <rect width="352.16846" height="102.71581" x="147.08212" y="404.3895" id="rect4003" style="opacity: 1; fill: rgb(255, 255, 255); fill-opacity: 1; stroke: rgb(255, 255, 255); stroke-width: 0pt; stroke-linecap: butt; stroke-linejoin: miter; stroke-miterlimit: 4; stroke-dasharray: none; stroke-opacity: 1;"/>
    <rect width="52.372768" height="62.677883" x="157.1024" y="421.15833" id="rect3966" style="opacity: 1; fill: rgb(0, 0, 0); fill-opacity: 1; stroke: rgb(0, 0, 0); stroke-width: 0pt; stroke-linecap: butt; stroke-linejoin: miter; stroke-miterlimit: 4; stroke-dasharray: none; stroke-opacity: 1;"/>
    <rect width="50.444218" height="60.42598" x="158.06668" y="422.28427" id="rect3968" style="opacity: 1; fill: rgb(255, 255, 255); fill-opacity: 1; stroke: rgb(0, 0, 0); stroke-width: 0pt; stroke-linecap: butt; stroke-linejoin: miter; stroke-miterlimit: 4; stroke-dasharray: none; stroke-opacity: 1;"/>
    <rect width="44.910488" height="56.568882" x="160.68257" y="424.2128" id="rect3970" style="opacity: 1; fill: rgb(0, 42, 198); fill-opacity: 1; stroke: rgb(0, 0, 0); stroke-width: 0pt; stroke-linecap: butt; stroke-linejoin: miter; stroke-miterlimit: 4; stroke-dasharray: none; stroke-opacity: 1;"/>
    <rect width="46.940666" height="29.169357" x="160.10451" y="452.0524" id="rect3995" style="opacity: 1; fill: rgb(0, 145, 91); fill-opacity: 1; stroke: rgb(255, 255, 255); stroke-width: 1.46268; stroke-linecap: butt; stroke-linejoin: miter; stroke-miterlimit: 4; stroke-dasharray: none; stroke-opacity: 1;"/>
    <rect width="6.9757977" height="14.30875" ry="0" x="167.76988" y="428.43814" id="rect3977" style="opacity: 1; fill: rgb(254, 0, 0); fill-opacity: 1; stroke: rgb(255, 255, 255); stroke-width: 1.56755; stroke-linecap: butt; stroke-linejoin: miter; stroke-miterlimit: 4; stroke-dasharray: none; stroke-opacity: 1;"/>
    <path d="M 160.31564,450.65946 L 183.46027,424.65039 L 206.37574,450.77403 L 206.37574,452.37812 L 160.20105,452.26354 L 160.31564,450.65946 z" id="path3972" style="fill: rgb(144, 42, 144); fill-opacity: 1; fill-rule: evenodd; stroke: rgb(255, 255, 255); stroke-width: 1.78328; stroke-linecap: butt; stroke-linejoin: miter; stroke-miterlimit: 4; stroke-dasharray: none; stroke-opacity: 1;"/>
    <path d="M 183.17382,442.13538 C 186.21405,442.13538 188.6616,445.09595 188.6616,448.77344 L 188.6616,452.08717 L 177.80062,452.08717 L 177.68603,448.77344 C 177.68603,445.09595 180.13359,442.13538 183.17382,442.13538 z" id="rect3974" style="fill: rgb(254, 139, 0); fill-opacity: 1; stroke: rgb(255, 255, 255); stroke-width: 1.69257; stroke-linecap: butt; stroke-linejoin: miter; stroke-miterlimit: 4; stroke-opacity: 1;"/>
    <path d="M 246.39412,416.35483 L 246.39412,424.32793 C 243.1214,416.37314 232.52758,416.83717 230.37161,422.97743 C 228.72578,425.48799 227.90288,428.93348 227.90289,433.31389 C 227.90288,437.69435 228.72175,441.17446 230.35951,443.75423 C 235.52974,450.93521 244.21384,450.15527 246.39412,442.55957 L 246.39412,450.87029 C 245.08712,451.89181 243.69543,452.65362 242.21907,453.15573 C 240.74264,453.65784 239.16541,453.9089 237.48735,453.9089 C 232.27558,453.9089 228.21348,452.10391 225.30105,448.49393 C 222.38859,444.88398 220.93237,439.8586 220.93237,433.41778 C 220.93237,427.3579 222.35632,422.47535 225.20423,418.77013 C 228.05213,415.06498 231.76732,413.21238 236.3498,413.21234 C 237.94719,413.21238 239.57283,413.46775 241.22674,413.97848 C 242.8806,414.48929 244.60306,415.2814 246.39412,416.35483 L 246.39412,416.35483 z" id="text3444" style="font-size: 1102830px; font-style: normal; font-weight: normal; text-align: start; line-height: 125%; text-anchor: start; fill: rgb(0, 0, 0); fill-opacity: 1; stroke: rgb(0, 0, 0); stroke-width: 2.58661; stroke-linecap: butt; stroke-linejoin: miter; stroke-miterlimit: 4; stroke-opacity: 1; font-family: Bitstream Vera Sans;"/>
    <path d="M 254.09747,541.04706 L 249.10435,541.04706 L 249.10435,532.23567 L 242.30891,532.23567 L 242.30891,541.04706 L 237.31579,541.04706 L 237.31579,521.16804 L 242.30891,521.16804 L 242.30891,528.44411 L 249.10435,528.44411 L 249.10435,521.16804 L 254.09747,521.16804 L 254.09747,541.04706 z M 276.2995,531.11422 C 276.29948,534.32727 275.44059,536.85498 273.72283,538.69736 C 272.00504,540.53974 269.65089,541.46093 266.66037,541.46093 C 263.66093,541.46093 261.30678,540.52861 259.59791,538.66398 C 257.88904,536.79935 257.0346,534.28277 257.0346,531.11422 C 257.0346,527.919 257.88904,525.39351 259.59791,523.53777 C 261.30678,521.68205 263.66093,520.75419 266.66037,520.75417 C 269.65089,520.75419 272.00504,521.6776 273.72283,523.52441 C 275.44059,525.37126 276.29948,527.90119 276.2995,531.11422 L 276.2995,531.11422 z M 271.14617,531.10087 C 271.14615,529.91713 271.02377,528.90916 270.77903,528.07696 C 270.53425,527.24479 270.20716,526.56169 269.79776,526.02765 C 269.37053,525.48474 268.88768,525.09535 268.34922,524.85947 C 267.81074,524.62363 267.25224,524.5057 266.67372,524.50568 C 266.05959,524.5057 265.50331,524.61473 265.0049,524.83277 C 264.50647,525.05085 264.02585,525.44024 263.56304,526.00095 C 263.15361,526.51719 262.82207,527.20251 262.56842,528.05694 C 262.31475,528.91139 262.18792,529.93048 262.18793,531.11422 C 262.18792,532.33358 262.30808,533.346 262.54839,534.15148 C 262.7887,534.95697 263.11801,535.63118 263.53634,536.17409 C 263.96355,536.72592 264.44862,537.11976 264.99155,537.35562 C 265.53446,537.59149 266.09519,537.70942 266.67372,537.70941 C 267.26114,537.70942 267.83076,537.58258 268.3826,537.32892 C 268.93441,537.07526 269.41058,536.68142 269.81111,536.14739 C 270.23832,535.56887 270.56763,534.89467 270.79905,534.12478 C 271.03045,533.3549 271.14615,532.34694 271.14617,531.10087 L 271.14617,531.10087 z M 299.54286,541.04706 L 294.57645,541.04706 L 294.57645,527.87003 L 290.95844,536.37435 L 287.55404,536.37435 L 283.93603,527.87003 L 283.93603,541.04706 L 279.23662,541.04706 L 279.23662,521.16804 L 284.99073,521.16804 L 289.39642,530.98072 L 293.78876,521.16804 L 299.54286,521.16804 L 299.54286,541.04706 z M 303.6415,541.04706 L 303.6415,521.16804 L 317.08554,521.16804 L 317.08554,524.9596 L 308.60792,524.9596 L 308.60792,528.44411 L 316.41801,528.44411 L 316.41801,532.23567 L 308.60792,532.23567 L 308.60792,537.25549 L 317.08554,537.25549 L 317.08554,541.04706 L 303.6415,541.04706 z M 341.74407,541.04706 L 328.47359,541.04706 L 328.47359,521.16804 L 333.4667,521.16804 L 333.4667,537.25549 L 341.74407,537.25549 L 341.74407,541.04706 z M 362.22387,531.11422 C 362.22385,534.32727 361.36496,536.85498 359.6472,538.69736 C 357.92941,540.53974 355.57526,541.46093 352.58474,541.46093 C 349.58531,541.46093 347.23116,540.52861 345.52229,538.66398 C 343.81341,536.79935 342.95897,534.28277 342.95897,531.11422 C 342.95897,527.919 343.81341,525.39351 345.52229,523.53777 C 347.23116,521.68205 349.58531,520.75419 352.58474,520.75417 C 355.57526,520.75419 357.92941,521.6776 359.6472,523.52441 C 361.36496,525.37126 362.22385,527.90119 362.22387,531.11422 L 362.22387,531.11422 z M 357.07054,531.10087 C 357.07053,529.91713 356.94815,528.90916 356.7034,528.07696 C 356.45863,527.24479 356.13154,526.56169 355.72213,526.02765 C 355.2949,525.48474 354.81205,525.09535 354.27359,524.85947 C 353.73511,524.62363 353.17661,524.5057 352.5981,524.50568 C 351.98396,524.5057 351.42768,524.61473 350.92927,524.83277 C 350.43084,525.05085 349.95022,525.44024 349.48741,526.00095 C 349.07798,526.51719 348.74644,527.20251 348.49279,528.05694 C 348.23912,528.91139 348.11229,529.93048 348.1123,531.11422 C 348.11229,532.33358 348.23245,533.346 348.47276,534.15148 C 348.71307,534.95697 349.04238,535.63118 349.46071,536.17409 C 349.88792,536.72592 350.37299,537.11976 350.91592,537.35562 C 351.45884,537.59149 352.01956,537.70942 352.5981,537.70941 C 353.18551,537.70942 353.75513,537.58258 354.30697,537.32892 C 354.85878,537.07526 355.33495,536.68142 355.73548,536.14739 C 356.16269,535.56887 356.492,534.89467 356.72343,534.12478 C 356.95482,533.3549 357.07053,532.34694 357.07054,531.10087 L 357.07054,531.10087 z M 363.0249,541.04706 L 369.74024,521.16804 L 375.18728,521.16804 L 381.90263,541.04706 L 376.76265,541.04706 L 375.52105,536.98848 L 369.27297,536.98848 L 368.03137,541.04706 L 363.0249,541.04706 z M 374.4263,533.38382 L 372.39701,526.82868 L 370.36772,533.38382 L 374.4263,533.38382 z M 400.94057,541.04706 L 396.13435,541.04706 L 388.47112,527.18915 L 388.47112,541.04706 L 383.90522,541.04706 L 383.90522,521.16804 L 390.03314,521.16804 L 396.37466,532.55609 L 396.37466,521.16804 L 400.94057,521.16804 L 400.94057,541.04706 z M 411.14041,541.40752 C 409.61843,541.40752 408.28115,541.26067 407.12855,540.96695 C 405.97595,540.67324 404.90568,540.30833 403.91774,539.87221 L 403.91774,535.1461 L 404.37166,535.1461 C 405.3685,535.99164 406.4677,536.64137 407.66925,537.09528 C 408.8708,537.54921 410.03675,537.77617 411.16711,537.77616 C 411.45191,537.77617 411.82795,537.74502 412.29523,537.68271 C 412.76249,537.62041 413.13853,537.52251 413.42336,537.389 C 413.77046,537.23769 414.06417,537.02631 414.30449,536.75484 C 414.54479,536.48339 414.66495,536.12515 414.66496,535.68012 C 414.66495,535.18171 414.46914,534.77674 414.07753,534.46522 C 413.68591,534.15371 413.21864,533.92675 412.67572,533.78434 C 411.99928,533.60634 411.27613,533.43723 410.50625,533.27702 C 409.73636,533.11682 409.01766,532.92101 408.35013,532.68959 C 406.81036,532.14668 405.70671,531.41685 405.03919,530.5001 C 404.37166,529.58337 404.03789,528.43522 404.03789,527.05564 C 404.03789,525.19548 404.82558,523.68909 406.40095,522.53647 C 407.97631,521.38389 409.9433,520.80759 412.30191,520.80757 C 413.48565,520.80759 414.66272,520.92775 415.83314,521.16804 C 417.00352,521.40837 418.05154,521.73323 418.9772,522.14263 L 418.9772,526.68183 L 418.53663,526.68183 C 417.79788,526.04992 416.89672,525.51589 415.83314,525.07976 C 414.76953,524.64366 413.67701,524.4256 412.55557,524.42558 C 412.11944,524.4256 411.72782,524.45675 411.38072,524.51903 C 411.03359,524.58135 410.66868,524.70151 410.28597,524.8795 C 409.97445,525.02192 409.70521,525.23331 409.47826,525.51365 C 409.25129,525.79403 409.13781,526.10777 409.13782,526.45487 C 409.13781,526.9622 409.31804,527.36495 409.67852,527.6631 C 410.03897,527.96127 410.73543,528.23051 411.76788,528.47081 C 412.4354,528.62213 413.07846,528.76898 413.69704,528.91138 C 414.31561,529.05379 414.97646,529.2496 415.6796,529.4988 C 417.05915,529.99723 418.08492,530.66699 418.75691,531.50806 C 419.42888,532.34916 419.76487,533.45948 419.76488,534.83904 C 419.76487,536.81493 418.98831,538.40364 417.43521,539.60519 C 415.88208,540.80675 413.78381,541.40752 411.14041,541.40752 L 411.14041,541.40752 z" transform="scale(1.08841, 0.918768)" id="text3962" style="font-size: 70.308px; font-style: normal; font-weight: normal; text-align: start; line-height: 125%; text-anchor: start; fill: rgb(0, 0, 0); fill-opacity: 1; stroke: none; stroke-width: 1px; stroke-linecap: butt; stroke-linejoin: miter; stroke-opacity: 1; font-family: Bitstream Vera Sans;"/>
    <rect width="8.4787264" height="8.9370356" x="164.32584" y="459.71106" id="rect3979" style="opacity: 1; fill: rgb(255, 144, 0); fill-opacity: 1; stroke: rgb(255, 255, 255); stroke-width: 1.78328; stroke-linecap: butt; stroke-linejoin: miter; stroke-miterlimit: 4; stroke-dasharray: none; stroke-opacity: 1;"/>
    <path d="M 164.32584,464.52333 L 172.68999,464.40874 L 164.32584,464.52333 z" id="path3981" style="fill: none; fill-rule: evenodd; stroke: rgb(255, 255, 255); stroke-width: 1.42662; stroke-linecap: butt; stroke-linejoin: miter; stroke-miterlimit: 4; stroke-dasharray: none; stroke-opacity: 1;"/>
    <path d="M 168.45063,460.28395 L 168.5652,468.64811 L 168.45063,460.28395 z" id="path3985" style="fill: none; fill-rule: evenodd; stroke: rgb(255, 255, 255); stroke-width: 1.42662; stroke-linecap: butt; stroke-linejoin: miter; stroke-miterlimit: 4; stroke-dasharray: none; stroke-opacity: 1;"/>
    <rect width="8.4787264" height="8.9370356" x="193.8868" y="459.71106" id="rect3987" style="opacity: 1; fill: rgb(255, 144, 0); fill-opacity: 1; stroke: rgb(255, 255, 255); stroke-width: 1.78328; stroke-linecap: butt; stroke-linejoin: miter; stroke-miterlimit: 4; stroke-dasharray: none; stroke-opacity: 1;"/>
    <path d="M 193.8868,464.52333 L 202.25096,464.40874 L 193.8868,464.52333 z" id="path3989" style="fill: none; fill-rule: evenodd; stroke: rgb(255, 255, 255); stroke-width: 1.42662; stroke-linecap: butt; stroke-linejoin: miter; stroke-miterlimit: 4; stroke-dasharray: none; stroke-opacity: 1;"/>
    <path d="M 198.01159,460.28395 L 198.12617,468.64811 L 198.01159,460.28395 z" id="path3991" style="fill: none; fill-rule: evenodd; stroke: rgb(255, 255, 255); stroke-width: 1.42662; stroke-linecap: butt; stroke-linejoin: miter; stroke-miterlimit: 4; stroke-dasharray: none; stroke-opacity: 1;"/>
    <rect width="11.524704" height="23.957369" x="177.41147" y="457.09958" id="rect3993" style="opacity: 1; fill: rgb(254, 0, 0); fill-opacity: 1; stroke: rgb(255, 255, 255); stroke-width: 1.47424; stroke-linecap: butt; stroke-linejoin: miter; stroke-miterlimit: 4; stroke-dasharray: none; stroke-opacity: 1;"/>
    <rect width="5.1194472" height="44.29435" x="244.49028" y="412.26297" id="rect3997" style="opacity: 1; fill: rgb(255, 255, 255); fill-opacity: 1; stroke: rgb(255, 255, 255); stroke-width: 0pt; stroke-linecap: butt; stroke-linejoin: miter; stroke-miterlimit: 4; stroke-dasharray: none; stroke-opacity: 1;"/>
    <path d="M 270.64979,438.84571 C 270.64977,443.71096 269.63324,447.45511 267.60019,450.07818 C 265.56711,452.70124 262.67886,454.01277 258.93545,454.01277 C 255.20816,454.01277 252.32798,452.70124 250.29492,450.07818 C 248.26185,447.45511 247.24531,443.71096 247.24531,438.84571 C 247.24531,433.9805 248.26185,430.23635 250.29492,427.61326 C 252.32798,424.99022 255.20816,423.67867 258.93545,423.67865 C 262.66273,423.67867 265.54694,424.99454 267.58809,427.62624 C 269.6292,430.258 270.64977,433.99781 270.64979,438.84571 L 270.64979,438.84571 z M 258.93545,448.58484 C 260.71034,448.58485 262.07378,447.74078 263.02579,446.05267 C 263.97776,444.36456 264.45376,441.96224 264.45378,438.84571 C 264.45376,435.78115 263.96566,433.39182 262.98948,431.67772 C 262.01328,429.96365 260.66193,429.10661 258.93545,429.10659 C 257.22509,429.10661 255.88181,429.96365 254.90562,431.67772 C 253.92942,433.39182 253.44132,435.78115 253.44133,438.84571 C 253.44132,441.94493 253.92135,444.34292 254.88142,446.03969 C 255.84147,447.73646 257.19281,448.58485 258.93545,448.58484 L 258.93545,448.58484 z M 296.83764,453.31156 L 290.64163,453.31156 L 290.64163,450.3249 L 289.60089,450.11713 C 288.5198,451.51957 287.52343,452.48049 286.6118,452.99991 C 285.70012,453.51933 284.61503,453.77903 283.35646,453.77903 C 281.74291,453.77903 280.36333,453.40245 279.21772,452.6493 C 278.07209,451.89614 277.19271,450.76641 276.57958,449.26009 C 276.19232,448.37708 275.92206,447.29495 275.76877,446.01371 C 275.61547,444.73247 275.53884,442.64615 275.53884,439.7547 L 275.53884,438.63794 L 275.53884,424.58763 L 281.58963,424.58763 L 281.58963,442.3518 C 281.58963,444.4468 281.97687,446.03536 282.75138,447.11748 C 283.52588,448.1996 284.65535,448.74067 286.13983,448.74067 C 286.93045,448.74067 287.68882,448.51992 288.41493,448.07841 C 289.14101,447.63689 289.88324,446.93137 290.64163,445.96177 L 290.64163,424.58763 L 296.83764,424.58763 L 296.83764,453.31156 z M 303.75974,424.58763 L 309.95576,424.58763 L 309.95576,427.5743 L 310.99649,427.78207 C 312.12597,426.36235 313.14249,425.3971 314.0461,424.8863 C 314.94967,424.37556 316.01461,424.12018 317.24092,424.12016 C 320.12914,424.12018 322.16624,425.15037 323.35222,427.2107 C 324.53816,429.2711 325.13113,433.28793 325.13115,439.26125 L 325.13115,453.31156 L 319.03196,453.31156 L 319.03196,435.5474 C 319.03193,433.4351 318.65679,431.84222 317.9065,430.76874 C 317.15619,429.69529 316.03074,429.15856 314.53017,429.15853 C 313.70724,429.15856 312.92467,429.37931 312.18245,429.82079 C 311.44021,430.26232 310.69799,430.95054 309.95576,431.88549 L 309.95576,453.31156 L 303.75974,453.31156 L 303.75974,424.58763 z M 338.85436,453.25962 C 335.9177,453.25962 334.05809,452.8311 333.27553,451.97405 C 332.49296,451.11701 332.10167,448.78395 332.10168,444.97487 L 332.10168,429.80781 L 328.68902,429.80781 L 328.68902,425.34079 L 332.80357,425.34079 L 332.80357,416.92618 L 338.2977,416.92618 L 338.2977,425.34079 L 343.84022,425.34079 L 343.84022,429.80781 L 338.2977,429.80781 L 338.2977,445.1307 C 338.29768,446.63702 338.44289,447.6066 338.73334,448.03945 C 339.02377,448.47231 339.85474,448.68872 341.22627,448.68872 L 343.84022,448.68872 L 343.84022,453.25962 L 338.85436,453.25962 z M 347.90635,424.58763 L 353.25526,424.58763 L 353.25526,430.32723 L 354.3202,430.48304 C 355.25605,428.45735 356.33308,427.02894 357.55132,426.19783 C 358.76953,425.36679 360.39518,424.95125 362.42827,424.95123 L 363.08175,424.95123 L 363.08175,432.04131 L 360.05635,432.04131 C 357.78124,432.04133 356.22013,432.45686 355.37303,433.28792 C 354.52592,434.11901 354.10236,436.04086 354.10237,439.05347 L 354.10237,453.31156 L 347.90635,453.31156 L 347.90635,424.58763 z M 365.18742,456.71377 L 368.7695,456.71377 C 369.8667,456.71376 370.69364,456.42808 371.25031,455.85673 C 371.80698,455.28535 372.27088,454.22054 372.642,452.66228 L 364.60655,424.58763 L 371.64967,424.58763 L 375.01391,447.93557 L 376.15146,447.93557 L 380.02398,424.58763 L 385.97796,424.58763 L 377.84569,453.46739 C 376.813,457.13795 375.64722,459.50131 374.34832,460.55747 C 373.04941,461.61361 371.10912,462.14169 368.52746,462.1417 L 365.18742,462.1417 L 365.18742,456.71377 z M 405.65515,437.31342 C 405.50991,436.60356 405.38083,435.8201 405.26789,434.96305 C 405.15493,434.10602 405.06619,433.21868 405.00166,432.30102 L 403.86411,432.30102 C 403.79955,432.97629 403.71081,433.69049 403.59788,434.44363 C 403.48491,435.19681 403.32355,436.1534 403.11381,437.31342 L 400.13682,453.25962 L 394.35226,453.25962 L 387.21232,424.58763 L 393.65036,424.58763 L 396.62736,441.57266 C 396.67575,441.90164 396.7645,442.69376 396.89359,443.94901 C 397.02267,445.20429 397.15982,446.73225 397.30504,448.5329 L 398.39419,448.5329 C 398.52326,447.02659 398.65637,445.65012 398.79354,444.4035 C 398.93068,443.15691 399.04766,442.20464 399.14449,441.5467 L 401.97626,424.58763 L 407.5672,424.58763 L 410.15694,441.5467 C 410.31826,442.51629 410.45946,443.58976 410.58049,444.76711 C 410.70148,445.94446 410.8104,447.19973 410.90724,448.5329 L 412.04479,448.5329 C 412.07703,447.39018 412.14964,446.27343 412.26262,445.18264 C 412.37553,444.09186 412.54496,442.87989 412.77088,441.5467 L 415.79627,424.58763 L 422.30694,424.58763 L 414.85236,453.25962 L 408.92257,453.25962 L 405.65515,437.31342 z M 426.22786,413.26428 L 433.56142,413.26428 L 433.56142,418.74416 L 426.22786,418.74416 L 426.22786,413.26428 z M 432.93214,425.34079 L 432.93214,453.25962 L 426.73612,453.25962 L 426.73612,425.34079 L 432.93214,425.34079 z M 454.64239,431.67772 C 454.30353,430.77741 453.8114,430.09785 453.166,429.63899 C 452.52056,429.1802 451.76219,428.95079 450.8909,428.95077 C 448.92235,428.95079 447.47017,429.76455 446.53432,431.39204 C 445.59846,433.01957 445.13053,435.52145 445.13054,438.89765 C 445.13053,441.99688 445.59846,444.39486 446.53432,446.09162 C 447.47017,447.7884 448.78521,448.63679 450.47944,448.63678 C 451.43142,448.63679 452.24625,448.42035 452.92396,447.9875 C 453.60164,447.55466 454.17444,446.87942 454.64239,445.96177 L 454.64239,431.67772 z M 460.8384,453.25962 L 454.64239,453.25962 L 454.64239,450.27295 L 454.10992,450.06519 C 453.25473,451.32911 452.33904,452.25541 451.36285,452.84409 C 450.38665,453.43276 449.28541,453.7271 448.05912,453.7271 C 445.25155,453.7271 443.00468,452.38526 441.31854,449.70159 C 439.63238,447.01792 438.78931,443.41662 438.78931,438.89765 C 438.78931,434.20558 439.62028,430.51338 441.28223,427.82103 C 442.94417,425.12873 445.20313,423.78256 448.05912,423.78253 C 449.33381,423.78256 450.47136,424.09421 451.47177,424.71749 C 452.47216,425.34082 453.36767,426.29309 454.15833,427.5743 L 454.64239,427.47041 L 454.64239,413.26428 L 460.8384,413.26428 L 460.8384,453.25962 z M 472.06869,436.19667 L 472.67377,436.81998 L 483.22634,436.81998 L 483.83143,436.19667 C 483.07304,433.1148 482.25417,430.98518 481.3748,429.80781 C 480.49541,428.63048 479.34576,428.04181 477.92585,428.04178 C 476.50592,428.04181 475.3603,428.6348 474.489,429.82079 C 473.61768,431.00682 472.8109,433.13212 472.06869,436.19667 L 472.06869,436.19667 z M 488.38163,439.91051 L 472.67377,439.91051 C 472.94806,442.75003 473.74272,444.94025 475.05777,446.48119 C 476.3728,448.02214 478.10332,448.79261 480.24935,448.79261 C 481.41109,448.79261 482.44779,448.5632 483.35947,448.10438 C 484.2711,447.64556 485.17065,446.89673 486.05811,445.85787 L 488.38163,445.85787 L 488.38163,451.77928 C 487.07463,452.54109 485.64665,453.1211 484.09766,453.51933 C 482.54865,453.91754 480.91896,454.11666 479.20862,454.11666 C 475.07793,454.11666 471.90732,452.75318 469.69677,450.02623 C 467.48621,447.29928 466.38093,443.37333 466.38093,438.24838 C 466.38093,433.66019 467.40553,430.08485 469.45474,427.52236 C 471.50392,424.95992 474.37604,423.67867 478.07107,423.67865 C 481.36269,423.67867 483.92015,424.80408 485.74348,427.05487 C 487.56676,429.30573 488.47842,432.47418 488.47843,436.56027 C 488.47842,437.13164 488.45421,438.09258 488.40583,439.44305 C 488.40581,439.65083 488.39774,439.80666 488.38163,439.91051 L 488.38163,439.91051 z" id="path3999" style="font-size: 1102830px; font-style: normal; font-weight: normal; text-align: start; line-height: 125%; text-anchor: start; fill: rgb(0, 0, 0); fill-opacity: 1; stroke: rgb(0, 0, 0); stroke-width: 2.58661; stroke-linecap: butt; stroke-linejoin: miter; stroke-miterlimit: 4; stroke-opacity: 1; font-family: Bitstream Vera Sans;"/>
    <rect width="275.58777" height="2.2165239" x="214.85855" y="467.07346" id="rect4001" style="opacity: 1; fill: rgb(0, 0, 0); fill-opacity: 1; stroke: rgb(255, 255, 255); stroke-width: 0pt; stroke-linecap: butt; stroke-linejoin: miter; stroke-miterlimit: 4; stroke-dasharray: none; stroke-opacity: 1;"/>
  </g>
</svg>