<?xml version="1.0" encoding="utf-8"?>
<!-- Generator: Adobe Illustrator 12.0.0, SVG Export Plug-In . SVG Version: 6.00 Build 51448)  -->
<!DOCTYPE svg PUBLIC "-//W3C//DTD SVG 1.1//EN" "http://www.w3.org/Graphics/SVG/1.1/DTD/svg11.dtd" [
	<!ENTITY ns_svg "http://www.w3.org/2000/svg">
	<!ENTITY ns_xlink "http://www.w3.org/1999/xlink">
]>
<svg  version="1.1" id="Layer_1" xmlns="&ns_svg;" xmlns:xlink="&ns_xlink;" width="227.1" height="130" viewBox="0 0 227.1 130"
	 overflow="visible" enable-background="new 0 0 227.1 130" xml:space="preserve">
<path fill="#0473BB" d="M15.398,112.61c0-3.564,0-6.957,4.641-6.957c2.866,0,4.024,1.589,3.912,4.476h-2.75
	c0-1.789-0.323-2.458-1.161-2.458c-1.585,0-1.789,1.494-1.789,4.939c0,3.444,0.204,4.942,1.789,4.942
	c1.294,0,1.245-1.685,1.28-2.751h2.778c0,3.604-1.435,4.761-4.059,4.761C15.398,119.562,15.398,116.131,15.398,112.61
	 M35.313,112.61c0,3.444-0.214,4.942-1.793,4.942c-1.585,0-1.789-1.498-1.789-4.942c0-3.445,0.203-4.939,1.789-4.939
	C35.099,107.67,35.313,109.165,35.313,112.61 M33.521,119.562c4.641,0,4.641-3.431,4.641-6.952c0-3.564,0-6.957-4.641-6.957
	c-4.648,0-4.648,3.392-4.648,6.957C28.873,116.131,28.873,119.562,33.521,119.562z M43.455,119.341h2.743v-10.387h0.039
	l2.463,10.387h2.68l2.585-10.387h0.046v10.387h2.736v-13.46h-4.385l-2.231,9.149h-0.039l-2.105-9.149h-4.532V119.341
	 M62.107,119.341h2.736v-10.387h0.028l2.47,10.387h2.68l2.593-10.387h0.035v10.387h2.74v-13.46h-4.382l-2.231,9.149h-0.038
	l-2.105-9.149h-4.525V119.341 M89.9,105.881h-2.817v9.357c0,1.49-0.558,2.314-1.788,2.314c-1.021,0-1.741-0.66-1.741-2.314v-9.357
	h-2.803v9.545c0,2.536,1.488,4.136,4.579,4.136c3.427,0,4.57-2.122,4.57-4.136V105.881 M95.324,119.341h2.628v-9.847h0.039
	l3.672,9.847h3.709v-13.46h-2.625v9.317h-0.042l-3.575-9.317h-3.807V119.341 M110.864,119.341h2.812v-13.46h-2.812V119.341z
	 M119.024,112.61c0,3.521,0,6.952,4.645,6.952c2.628,0,4.062-1.157,4.062-4.761h-2.773c-0.046,1.066,0.014,2.751-1.288,2.751
	c-1.585,0-1.793-1.498-1.793-4.942c0-3.445,0.208-4.939,1.793-4.939c0.834,0,1.15,0.67,1.15,2.458h2.765
	c0.108-2.887-1.046-4.476-3.915-4.476C119.024,105.653,119.024,109.045,119.024,112.61 M137.034,108.47l1.371,5.812h-2.686
	l1.272-5.812H137.034 M134.385,119.341l0.765-2.985h3.841l0.751,2.985h2.965l-3.656-13.46h-3.711l-3.725,13.46H134.385z
	 M154.416,105.881h-9.081v2.234h3.128v11.226h2.816v-11.226h3.137V105.881 M159.208,119.341h2.816v-13.46h-2.816V119.341z
	 M173.796,112.61c0,3.444-0.199,4.942-1.782,4.942c-1.577,0-1.791-1.498-1.791-4.942c0-3.445,0.214-4.939,1.791-4.939
	C173.597,107.67,173.796,109.165,173.796,112.61 M172.014,119.562c4.643,0,4.643-3.431,4.643-6.952c0-3.564,0-6.957-4.643-6.957
	c-4.654,0-4.654,3.392-4.654,6.957C167.36,116.131,167.36,119.562,172.014,119.562z M182.026,119.341h2.636v-9.847h0.032
	l3.666,9.847h3.722v-13.46h-2.642v9.317h-0.03l-3.581-9.317h-3.803V119.341 M201.219,119.562c2.144,0,4.693-0.414,4.693-3.897
	c0-4.23-5.673-4.006-5.673-6.56c0-0.933,0.548-1.434,1.459-1.434c1.134,0,1.303,1.027,1.303,2.03h2.746
	c0.186-2.813-1.179-4.047-3.923-4.047c-3.426,0-4.433,1.69-4.433,3.789c0,4.003,5.668,4.153,5.668,6.58
	c0,0.912-0.463,1.53-1.411,1.53c-1.557,0-1.608-1.088-1.608-2.375h-2.816C197.082,117.512,197.735,119.562,201.219,119.562"/>
<path fill="#0473BB" d="M170.861,35.708L156.836,54.5l-24.121-34.592h27.063L170.861,35.708 M103.744,64.536
	c6.467,0,11.723-5.245,11.723-11.724c0-6.469-5.256-11.72-11.723-11.72c-6.477,0-11.725,5.251-11.725,11.72
	C92.019,59.292,97.267,64.536,103.744,64.536 M138.361,52.813c0,19.119-15.502,34.627-34.617,34.627
	c-19.122,0-34.614-15.508-34.614-34.627c0-19.115,15.492-34.613,34.614-34.613C122.859,18.199,138.361,33.698,138.361,52.813z
	 M62.013,20.764c-4.294-1.2-8.848-1.853-13.289-1.853c-19.227,0-34.29,15.313-34.29,34.462c0,18.714,14.625,33.244,33.329,33.244
	c3.441,0,9.868-0.508,14.25-1.663l0.105-25.46c-3.448,3.371-6.63,4.925-11.562,4.925c-6.42,0-11.983-5.02-11.983-11.514
	c0-6.422,5.248-11.52,11.66-11.52c4.862,0,8.447,2.01,11.893,5.227L62.013,20.764 M215.801,8.805
	c-23.563,19.435-58.2,65.013-70.695,92.729l23.264-30.516l10.163,14.554h27.323l-23.281-33.185L215.801,8.805 M211.592,81.396h0.849
	c0.754-0.029,0.93-0.333,0.93-0.729c0-0.387-0.176-0.583-0.814-0.583h-0.964V81.396 M211.592,82.199v2.224h-0.807v-5.139h1.666
	c0.946,0,1.93,0.256,1.93,1.417c0,0.589-0.365,1.06-1.061,1.197v0.021c0.706,0.14,0.793,0.457,0.878,1.01
	c0.072,0.488,0.121,1.024,0.305,1.494h-1.024c-0.056-0.294-0.146-0.617-0.182-0.916c-0.05-0.448-0.05-0.856-0.296-1.101
	c-0.189-0.207-0.455-0.186-0.743-0.207H211.592z M208.128,81.904c0-2.403,1.955-4.36,4.392-4.36c2.434,0,4.373,1.958,4.373,4.36
	c0,2.441-1.939,4.396-4.373,4.396C210.083,86.3,208.128,84.345,208.128,81.904z M216.127,81.904c0-1.971-1.605-3.588-3.607-3.588
	c-2.008,0-3.629,1.617-3.629,3.588c0,2.006,1.621,3.634,3.629,3.634C214.522,85.538,216.127,83.911,216.127,81.904z"/>
<path fill="#02958E" d="M205.438,8.805l-70.695,92.729C147.246,73.818,181.886,28.24,205.438,8.805"/>
<path fill="#CE1F43" d="M195.09,8.805l-70.692,92.729C136.893,73.818,171.537,28.24,195.09,8.805"/>
<rect fill="none" width="227.1" height="130"/>
</svg>
