<?xml version="1.0" encoding="UTF-8" standalone="no"?>
<!-- Created with Inkscape (http://www.inkscape.org/) -->

<svg
   xmlns:dc="http://purl.org/dc/elements/1.1/"
   xmlns:cc="http://creativecommons.org/ns#"
   xmlns:rdf="http://www.w3.org/1999/02/22-rdf-syntax-ns#"
   xmlns:svg="http://www.w3.org/2000/svg"
   xmlns="http://www.w3.org/2000/svg"
   version="1.1"
   width="300"
   height="295.82428"
   id="svg49256">
  <defs
     id="defs49258">
    <clipPath
       id="clipPath6189">
      <path
         d="m 373.829,468.82 0,19.364 -19.104,0 0,-19.364 19.104,0"
         id="path6191" />
    </clipPath>
  </defs>
  <metadata
     id="metadata49261">
    <rdf:RDF>
      <cc:Work
         rdf:about="">
        <dc:format>image/svg+xml</dc:format>
        <dc:type
           rdf:resource="http://purl.org/dc/dcmitype/StillImage" />
        <dc:title></dc:title>
      </cc:Work>
    </rdf:RDF>
  </metadata>
  <g
     transform="translate(-56.469219,-148.47189)"
     id="layer1">
    <g
       transform="matrix(12.394439,0,0,12.394439,238.75974,-4725.8914)"
       id="g49221">
      <g
         transform="matrix(0,1.25,1.25,0,-600.73304,-50.138567)"
         id="g6185">
        <g
           clip-path="url(#clipPath6189)"
           id="g6187">
          <g
             transform="translate(365.028,488.185)"
             id="g6193">
            <path
               d="m 0,0 -0.24,-0.005 c -0.062,0 -0.119,-0.018 -0.164,-0.075 -0.067,0 -0.092,-0.011 -0.154,-0.011 -0.022,0.043 -0.174,0.021 -0.224,0.021 l -0.236,0.018 c -0.089,0.02 -0.159,-0.008 -0.241,-0.018 -0.02,-0.037 -0.092,-0.093 -0.144,-0.079 l -0.255,0.027 c -0.565,0.024 -1.124,-0.15 -1.668,-0.282 L -3.64,-0.521 c -0.112,0 -0.207,-0.055 -0.308,-0.079 l -0.239,-0.097 c -0.054,0 -0.086,-0.037 -0.138,-0.048 l -0.138,-0.083 c -0.321,0.027 -0.178,-0.055 -0.378,-0.176 l -0.121,-0.079 c -0.054,0 -0.102,-0.078 -0.154,-0.091 l -0.129,-0.085 -0.089,-0.053 -0.102,-0.064 -0.111,-0.069 -0.095,-0.069 -0.122,-0.054 c -0.058,-0.019 -0.099,-0.074 -0.159,-0.074 l -0.118,-0.069 c -0.11,-0.06 -0.187,-0.146 -0.292,-0.228 L -6.487,-2.045 -6.644,-2.16 c -0.06,-0.02 -0.087,-0.056 -0.136,-0.088 -0.072,-0.018 -0.11,-0.065 -0.18,-0.1 l -0.101,-0.17 0.014,-0.082 -0.035,-0.051 -0.101,-0.043 -0.128,-0.079 c -0.055,-0.013 -0.112,-0.075 -0.155,-0.116 -0.102,-0.099 -0.117,-0.21 -0.222,-0.303 l -0.101,-0.096 -0.112,-0.054 c -0.053,0 -0.067,-0.067 -0.105,-0.098 L -8.113,-3.55 C -8.139,-3.602 -8.215,-3.64 -8.248,-3.692 L -8.367,-3.815 -8.483,-3.928 C -8.534,-3.96 -8.577,-4.012 -8.614,-4.046 l -0.142,-0.135 -0.138,-0.132 -0.021,-0.018 c -0.015,-0.044 -0.007,-0.043 -0.059,-0.063 -0.003,-0.013 -0.077,-0.08 0,-0.08 L -9.069,-4.643 C -9.085,-4.708 -9.181,-4.77 -9.181,-4.835 l -0.058,-0.196 -0.037,-0.138 c -0.027,0.08 -0.067,-0.099 -0.08,-0.107 0,-0.048 -0.085,-0.104 -0.085,-0.153 l -0.117,-0.192 c -0.016,-0.073 -0.127,-0.09 -0.127,-0.17 l -0.053,-0.175 0.015,-0.175 c -0.011,0 -0.037,-0.16 -0.089,-0.16 l -0.102,-0.196 c -0.007,-0.062 -0.049,-0.104 -0.055,-0.171 -0.008,-0.069 -0.006,-0.139 -0.009,-0.207 l -0.021,-0.143 -0.027,-0.091 -0.068,-0.074 c 0.005,-0.08 -0.028,-0.127 -0.006,-0.191 l -0.069,-0.164 -0.101,-0.351 -0.026,-0.26 -0.005,-0.197 0.042,-0.139 0.037,-0.175 c 0.007,-0.064 -0.006,-0.105 0.006,-0.165 l 0.016,-0.228 -0.043,-0.18 -0.043,-0.314 c 0,-0.052 -0.008,-0.403 0.027,-0.403 l 0.043,-0.234 0.047,-0.192 c 0,-0.171 -0.012,-0.346 0,-0.517 l 0.032,-0.375 0.021,-0.186 c 0,-0.062 -0.037,-0.102 -0.037,-0.154 l -0.01,-0.075 c 0,-0.055 0.002,-0.126 0.01,-0.186 -0.006,-0.076 0.016,-0.131 0.016,-0.201 l 0.06,-0.144 c 0.016,-0.053 0.025,-0.117 0.025,-0.178 0,-0.08 0.042,-0.15 0.042,-0.231 l 0.043,-0.128 c 0.144,-0.427 0.166,-0.627 0.356,-1.062 l 0.083,-0.154 c 0.005,-0.05 0.055,-0.083 0.029,-0.138 l 0.068,-0.133 0.075,-0.127 c 0.009,-0.062 0.096,-0.109 0.096,-0.165 -0.054,0 0.074,-0.185 0.076,-0.193 l 0.078,-0.12 c 0,-0.048 0.085,-0.083 0.085,-0.134 l 0.107,-0.121 c 0.027,-0.039 0.087,-0.085 0.1,-0.138 l 0.042,-0.053 0.091,-0.106 0.069,-0.118 c 0.017,-0.05 0.06,-0.132 0.101,-0.159 l 0.048,-0.054 0.05,-0.068 c 0.039,-0.004 -10e-4,0.041 0.046,-0.017 -0.005,0 0.116,-0.155 0.116,-0.063 0.056,-0.016 0.065,-0.099 0.117,-0.117 l 0.117,-0.149 0.074,-0.085 0.117,-0.144 c 0.063,-0.039 0.123,-0.112 0.169,-0.164 0.018,-0.051 0.108,-0.117 0.155,-0.159 0.045,-0.089 0.148,-0.153 0.202,-0.234 0.055,-0.019 0.127,-0.058 0.16,-0.102 l 0.101,-0.079 0.124,-0.057 0.109,-0.097 0.08,-0.042 c 0.061,-0.012 0.121,-0.091 0.16,-0.138 0.043,-0.051 0.232,-0.153 0.217,-0.229 l 0.053,0.026 0.005,0.006 0.075,-0.106 0.09,-0.043 0.212,-0.09 0.144,-0.032 0.107,-0.009 0.239,-0.07 c 0.057,0 0.105,-0.078 0.159,-0.097 l 0.164,-0.073 0.113,-0.065 0.089,-0.036 0.133,-0.102 c 0.064,-0.069 0.165,-0.084 0.24,-0.084 l 0.125,-0.013 c 0.054,-0.003 0.094,-0.035 0.135,-0.035 l 0.111,-0.037 0.223,-0.038 0.133,-0.09 c 0.067,0 0.119,-0.054 0.18,-0.054 l 0.149,-0.046 c 0.128,0 0.231,-0.058 0.366,-0.08 l 0.32,-0.069 c 0.312,-0.055 0.507,-0.165 0.796,-0.255 l 0.144,-0.017 c 0.05,0.014 0.081,0.049 0.132,0.049 l 0.224,-0.049 0.351,-0.047 0.197,-0.011 0.147,-0.042 c 0.064,-0.013 0.707,-0.107 0.707,-0.081 l 0.075,0.017 0.047,-0.005 0.097,0.031 0.095,0.017 0.08,0.015 0.387,-0.005 c 0.041,0 0.33,-0.038 0.33,0.022 0.104,0 0.174,0.138 0.286,0.138 0,0.056 0.287,0.059 0.328,0.055 0.071,-0.007 0.133,0.016 0.207,0.021 0.069,0.006 0.104,0.049 0.178,0.056 l 0.165,0.043 c 0.398,0.138 0.552,0.178 0.94,0.382 l 0.26,0.059 c 0.066,0 0.112,0.073 0.181,0.084 l 0.133,0.059 0.111,0.074 c 0.032,0.065 0.189,0.08 0.219,0.139 0.074,0 0.122,0.1 0.2,0.127 l 0.075,0.059 0.08,0.054 c 0.051,0.007 0.087,0.046 0.138,0.046 l 0.131,0.063 0.06,0.054 0.085,0.079 c 0.025,0.034 0.08,0.107 0.08,0.161 l 0.085,0.106 0.075,0.08 0.069,0.08 0.101,0.142 c 0.034,0.037 -10e-4,0.046 0.056,0.061 l 0.066,0.035 0.091,0.09 c 0.05,0 0.093,0.144 0.143,0.144 0.031,0.064 0.137,0.09 0.18,0.154 l 0.139,0.126 0.08,0.055 c 0.036,0.048 0.121,0.075 0.148,0.127 l 0.117,0.134 0.1,0.1 0.112,0.085 c 0.026,0.052 0.096,0.046 0.109,0.106 l 0.024,0.069 0.025,0.12 0.034,0.077 0.042,0.074 0.011,0.037 c 0.049,0.039 0.03,0.085 0.061,0.129 l 0.083,0.052 0.047,0.037 0.052,0.074 0.08,0.112 c 0,0.094 0.134,0.133 0.165,0.228 l 0.068,0.082 c 0.169,0.164 0.346,0.23 0.485,0.482 l 0.073,0.122 c 0.008,0.042 0.028,0.057 0.033,0.106 l 0.048,0.042 c 0.062,0.043 0.062,0.14 0.116,0.18 0,0.055 0.043,0.099 0.058,0.151 l 0.075,0.291 c 0,0.051 0.032,0.098 0.032,0.149 l 0.049,0.106 0.089,0.282 0.101,0.239 0.07,0.148 c 0.06,0.031 0.075,0.178 0.095,0.24 0.06,0 0.096,0.371 0.096,0.427 0,0.061 0.03,0.561 0.021,0.561 -0.003,0.125 0.011,0.266 0.011,0.399 l 0.005,0.228 0.005,0.185 0.063,0.381 0.017,0.203 c -0.005,0.079 -0.027,0.094 -0.037,0.16 -0.053,0 -0.019,0.371 -0.064,0.394 -0.061,0.121 0.032,0.227 0.032,0.328 l 0.075,0.473 -0.011,0.309 -0.043,0.127 -0.064,0.101 -0.079,0.169 c -0.017,0.053 -0.063,0.082 -0.074,0.14 l -0.011,0.09 C 8.52,-7.514 8.5,-7.44 8.5,-7.379 l -0.026,0.196 c -0.1,0.655 -0.101,0.707 -0.431,1.286 l -0.068,0.123 c 0,0.077 -0.096,0.135 -0.096,0.211 l -0.101,0.24 -0.107,0.243 c 0,0.052 -0.076,0.126 -0.105,0.166 L 7.475,-4.776 C 7.452,-4.708 7.411,-4.666 7.39,-4.601 L 7.305,-4.49 7.232,-4.398 7.189,-4.319 7.113,-4.202 7.071,-4.106 6.981,-4.07 6.869,-4.033 6.811,-3.979 6.736,-3.884 6.63,-3.767 c -0.012,0.052 -0.052,0.085 -0.09,0.11 L 6.486,-3.613 C 6.439,-3.58 6.414,-3.486 6.359,-3.459 l -0.1,0.119 -0.065,0.078 -0.068,0.064 c 0,0.06 -0.057,0.079 -0.07,0.137 l -0.043,0.059 -0.052,0.048 -0.053,0.069 -0.064,0.107 c 0.144,0 -0.027,0.078 -0.064,0.1 l -0.053,0.037 -0.106,0.069 -0.109,0.066 -0.13,0.094 -0.213,0.149 -0.122,0.053 c -0.053,0.059 -0.17,0.095 -0.201,0.159 l -0.139,0.09 c -0.214,0.169 -0.319,0.229 -0.515,0.435 l -0.016,0.092 -0.07,0.016 -0.063,0.037 -0.068,0.07 -0.049,0.035 -0.106,0.017 -0.057,0.031 c -0.072,0 -0.106,0.021 -0.172,0.038 L 3.469,-1.147 3.235,-1.116 3.161,-1.089 3.117,-1.046 C 3.101,-0.978 3.034,-0.879 2.987,-0.821 2.93,-0.75 2.886,-0.75 2.8,-0.755 l -0.08,0.01 -0.356,0.081 -0.084,0.015 -0.081,0.027 -0.117,0.08 -0.132,0.059 -0.171,0.064 -0.133,0.04 -0.148,0.017 -0.181,0.011 C 1.26,-0.34 1.185,-0.325 1.126,-0.325 l -0.069,0.059 -0.04,0.001 -0.087,0.024 c -0.055,0.027 -0.133,0.03 -0.165,0.092 L 0.616,-0.139 0.52,-0.128 0.43,-0.091 0.294,-0.055 0.131,-0.039 0,0"
               id="path6195"
               style="fill:#080300;fill-opacity:1;fill-rule:nonzero;stroke:none" />
          </g>
        </g>
      </g>
      <g
         transform="matrix(0,1.25,1.25,0,-3.68804,413.14768)"
         id="g6197">
        <path
           d="m 0,0 c -0.053,-0.013 -0.096,-0.024 -0.104,-0.024 l -0.141,-0.031 -0.109,-0.099 -0.058,-0.125 -0.047,-0.13 -0.087,-0.353 c 0.194,-0.015 0.333,-0.052 0.503,-0.072 L 0.29,-0.933 c 0.088,0 0.18,-0.073 0.27,-0.073 l 0.228,-0.04 c 0.128,-0.008 0.113,0.041 0.193,0.107 0,0.147 0.117,0.25 0.087,0.429 -0.011,0.065 -0.076,0.303 -0.155,0.303 L 0.793,-0.103 0.742,-0.066 0.643,-0.05 0.513,0.002 C 0.426,0.021 0.362,0.046 0.263,0.059 0.263,0.065 0.214,0.054 0.151,0.039 L 0,0 m -11.869,3.934 c 0.022,-0.122 0.15,-0.068 0.228,-0.068 0,0.073 -0.182,0.069 -0.228,0.068 m -0.078,-7.147 -0.141,0.145 -0.129,-0.156 -0.068,-0.083 -0.021,-0.073 c 0.094,10e-4 0.163,0.035 0.25,0.047 l 0.197,-0.047 -0.088,0.167 m -1.388,1.947 c 0.107,0.027 0.237,0.089 0.37,0.089 l -0.042,0.109 c -0.05,0.01 -0.073,0.046 -0.073,0.093 l -0.093,0.166 -0.088,0.035 -0.126,-0.014 -0.099,-0.026 c -0.048,-0.009 -0.106,-0.059 -0.119,-0.109 l -0.036,-0.14 c 0,-0.082 -0.053,-0.228 0.081,-0.234 l 0.225,0.031 m 10.44,-3.074 0.016,0.005 -0.016,-0.005 m 0.281,-0.219 c -0.025,0.075 -0.127,0.11 -0.171,0.176 -0.049,0 -0.085,0.079 -0.14,0.079 L -2.9,-4.481 c 0,-0.06 0.042,-0.116 0.042,-0.176 l 0.047,-0.125 0.015,-0.026 0.08,0.02 c 0.034,0.017 0.049,0.113 -0.002,0.126 l 0.104,0.103 m -8.581,8.794 0.105,0.057 0.145,0.187 0.024,0.137 c 0.014,0.065 0.006,0.125 0.006,0.185 l -0.072,0.145 c -0.174,0.265 -0.513,0.551 -0.841,0.577 l -0.286,-0.031 c -0.06,-0.006 -0.111,-0.046 -0.162,-0.046 l -0.102,-0.095 -0.073,-0.082 -0.053,-0.11 c 0,-0.055 -0.036,-0.095 -0.016,-0.162 0.015,-0.052 0.032,-0.106 0.032,-0.155 l 0.135,-0.245 0.073,-0.097 0.088,-0.088 0.136,-0.099 0.134,-0.099 c 0.014,-0.053 0.207,-0.044 0.207,-0.068 0.072,0 0.143,-0.031 0.224,-0.031 l 0.171,0.057 0.125,0.063 m 4.211,5.473 C -7.196,9.693 -7.4,9.628 -7.607,9.598 -7.817,9.568 -8.038,9.607 -8.243,9.562 -8.45,9.518 -8.653,9.449 -8.854,9.39 -9.057,9.33 -9.244,9.223 -9.441,9.149 -9.639,9.075 -9.833,8.998 -10.024,8.91 -10.217,8.822 -10.398,8.716 -10.582,8.615 -10.768,8.514 -10.976,8.452 -11.152,8.338 -11.33,8.224 -11.5,8.096 -11.669,7.97 -11.837,7.843 -12.009,7.718 -12.168,7.58 -12.328,7.441 -12.458,7.272 -12.608,7.123 -12.756,6.974 -12.931,6.847 -13.07,6.688 -13.208,6.529 -13.348,6.367 -13.475,6.199 -13.601,6.03 -13.723,5.855 -13.838,5.678 -13.951,5.5 -14.041,5.305 -14.142,5.12 -14.243,4.936 -14.3,4.729 -14.387,4.537 -14.475,4.345 -14.547,4.149 -14.62,3.95 c -0.074,-0.196 -0.209,-0.374 -0.269,-0.576 -0.06,-0.202 -0.063,-0.42 -0.108,-0.627 -0.045,-0.205 -0.054,-0.415 -0.085,-0.625 -0.029,-0.207 -0.086,-0.412 -0.1,-0.624 -0.015,-0.209 -0.005,-0.419 -0.005,-0.632 0,-0.212 0.004,-0.421 0.018,-0.63 0.015,-0.212 -0.004,-0.426 0.025,-0.634 0.03,-0.21 0.108,-0.411 0.152,-0.615 0.045,-0.207 0.089,-0.413 0.148,-0.614 0.06,-0.203 0.144,-0.396 0.218,-0.593 0.073,-0.198 0.089,-0.421 0.177,-0.612 0.088,-0.192 0.256,-0.344 0.356,-0.529 0.102,-0.185 0.158,-0.396 0.272,-0.573 0.115,-0.177 0.282,-0.317 0.409,-0.485 0.126,-0.169 0.238,-0.347 0.376,-0.506 0.139,-0.16 0.246,-0.349 0.395,-0.498 0.149,-0.149 0.323,-0.275 0.482,-0.413 0.159,-0.139 0.307,-0.293 0.476,-0.419 0.169,-0.127 0.372,-0.206 0.549,-0.321 0.177,-0.114 0.336,-0.259 0.522,-0.361 0.184,-0.101 0.391,-0.162 0.583,-0.249 0.191,-0.088 0.375,-0.196 0.573,-0.27 0.197,-0.074 0.399,-0.141 0.602,-0.201 0.201,-0.059 0.405,-0.12 0.613,-0.165 0.205,-0.044 0.424,-0.009 0.635,-0.04 0.207,-0.029 0.409,-0.124 0.62,-0.139 0.209,-0.015 0.422,-0.022 0.634,-0.022 0.213,0 0.421,0.076 0.63,0.091 0.212,0.015 0.428,-0.025 0.635,0.004 0.21,0.03 0.422,0.059 0.627,0.103 0.206,0.045 0.404,0.131 0.605,0.19 0.203,0.059 0.419,0.084 0.616,0.158 0.198,0.074 0.374,0.201 0.565,0.289 0.193,0.088 0.375,0.194 0.559,0.295 0.186,0.101 0.394,0.165 0.57,0.279 0.178,0.115 0.314,0.289 0.482,0.415 0.169,0.127 0.366,0.217 0.525,0.356 0.16,0.138 0.304,0.294 0.453,0.443 0.149,0.149 0.304,0.294 0.443,0.453 0.138,0.159 0.252,0.338 0.379,0.507 0.126,0.169 0.261,0.332 0.376,0.51 0.113,0.177 0.186,0.378 0.288,0.563 0.101,0.185 0.224,0.359 0.312,0.551 0.087,0.191 0.131,0.4 0.205,0.598 0.073,0.197 0.19,0.38 0.249,0.583 0.06,0.201 0.114,0.406 0.159,0.614 0.045,0.205 0.034,0.421 0.064,0.63 0.029,0.208 0.077,0.414 0.092,0.625 C 2.497,0.444 2.48,0.654 2.48,0.866 2.48,1.079 2.493,1.289 2.478,1.498 2.464,1.71 2.488,1.926 2.458,2.133 2.428,2.343 2.318,2.538 2.274,2.743 2.229,2.95 2.173,3.151 2.114,3.352 2.054,3.555 2.014,3.763 1.94,3.959 1.867,4.157 1.801,4.358 1.713,4.55 1.626,4.742 1.566,4.95 1.466,5.134 1.364,5.32 1.19,5.463 1.077,5.64 0.962,5.817 0.868,6.007 0.741,6.175 0.615,6.345 0.466,6.495 0.328,6.654 0.19,6.813 0.037,6.957 -0.112,7.106 c -0.149,0.149 -0.282,0.313 -0.442,0.451 -0.159,0.139 -0.345,0.241 -0.513,0.368 -0.169,0.126 -0.307,0.295 -0.485,0.41 -0.177,0.114 -0.35,0.24 -0.535,0.341 -0.185,0.101 -0.405,0.133 -0.597,0.221 -0.191,0.088 -0.386,0.163 -0.584,0.238 -0.196,0.073 -0.393,0.142 -0.596,0.202 -0.202,0.059 -0.401,0.125 -0.608,0.17 -0.205,0.045 -0.411,0.075 -0.622,0.105 -0.207,0.03 -0.416,0.034 -0.628,0.049 -0.209,0.015 -0.417,0.023 -0.63,0.023 -0.212,0 -0.423,0.039 -0.632,0.024 M -6.309,8.851 -6.231,8.764 -6.176,8.665 C -5.953,8.368 -6.096,8.363 -5.691,7.97 L -5.69,7.843 -5.743,7.734 C -5.793,7.159 -6.027,7.207 -5.936,7.054 L -5.982,6.947 -6.03,6.854 -6.097,6.981 -6.189,7.112 -6.273,7.203 -6.34,7.315 l -0.111,0.05 -0.078,0.095 -0.055,0.107 -0.097,0.076 -0.005,0.11 0.011,0.118 0.015,-0.007 -0.007,0.108 0.075,0.111 0.066,0.128 -0.026,0.13 0.064,0.103 0.072,0.095 0.011,0.122 0.019,0.124 0.001,0.122 0.075,-0.065 10e-4,0.009 z m 0.524,-15.676 -0.035,-0.12 -0.103,-0.066 -0.064,-0.09 -0.069,-0.077 0.001,-0.009 -0.084,-0.067 -0.006,0.125 -0.002,0.125 0.001,0.128 -0.094,0.086 -0.061,0.11 0.01,0.122 -0.022,0.143 -0.097,0.102 -0.011,0.085 0.002,0.008 -0.024,0.124 c 0.119,0.198 0.328,0.497 0.506,0.641 l 0.074,0.14 0.089,0.117 0.068,-0.083 0.023,-0.126 -0.013,-0.019 0.03,-0.096 0.039,-0.108 0.036,-0.104 0.032,-0.124 0.066,-0.099 0.036,-0.113 -0.009,-0.121 0.009,-0.105 -0.062,-0.139 -0.12,-0.079 -0.062,-0.102 -0.079,-0.082 -0.005,-0.127 z m -1.577,0.047 0.018,0.034 -0.02,0.079 c 0.002,0.05 -0.012,0.097 -0.059,0.099 -0.041,0.035 -0.068,0.186 -0.073,0.24 -0.028,10e-4 -0.125,0.377 -0.101,0.45 0.021,0 0.071,0.27 0.157,0.266 0.058,0.044 0.11,0.098 0.17,0.125 0.02,0.07 0.085,0.276 0.148,0.315 l 0.133,0.176 0.08,0.066 c -0.005,-0.11 0.082,-0.18 0.079,-0.268 l 0.086,-0.302 c -0.083,0.017 0.035,-0.375 0.111,-0.368 l 0.002,-0.097 0.007,0 0.017,-0.121 -0.027,-0.102 -0.086,-0.08 c -0.002,-0.046 -0.171,-0.272 -0.228,-0.27 l -0.161,-0.189 -0.082,-0.136 -0.078,-0.121 c -0.013,-0.053 -0.091,0.167 -0.093,0.204 m -1.09,0.155 -0.037,0.133 -0.062,0.145 -0.034,0.158 0.01,0.121 -0.021,0.144 -0.097,0.102 -0.011,0.085 0.001,0.008 -0.024,0.123 0.049,0.095 c 0.136,0.159 0.274,0.41 0.457,0.546 l 0.074,0.141 0.089,0.116 0.068,-0.083 0.024,-0.125 -0.014,-0.019 0.03,-0.097 0.04,-0.107 c 0.07,-0.346 0.205,-0.305 0.16,-0.561 l 0.009,-0.106 -0.041,-0.16 -0.109,-0.106 -0.057,-0.096 -0.074,-0.074 -0.033,-0.113 -0.062,-0.095 -0.09,-0.07 -0.064,-0.091 -0.069,-0.076 0.003,-0.011 -0.088,-0.066 -0.027,0.139 z m -2.83,9.409 0.074,0.132 c 0.606,1.356 1.786,2.533 3.234,2.942 l 0.137,0.066 c 0.048,0.015 0.103,0.003 0.152,0.016 0.048,0.012 0.093,0.036 0.142,0.048 0.049,0.011 0.097,0.024 0.147,0.034 0.048,0.01 0.098,0.017 0.147,0.025 0.05,0.009 0.094,0.051 0.144,0.058 0.05,0.007 0.102,-0.006 0.152,0 0.05,0.005 0.103,-0.014 0.152,-0.011 0.05,0.005 0.099,0.024 0.149,0.027 0.05,0.003 0.1,0.018 0.15,0.02 0.05,0.001 0.101,-0.029 0.15,-0.029 0.051,0 0.101,0.005 0.151,0.003 0.05,-0.001 0.1,0.008 0.15,0.005 0.05,-0.003 0.101,-0.004 0.15,-0.008 0.05,-0.004 0.098,-0.028 0.148,-0.034 0.05,-0.006 0.105,0.027 0.154,0.02 0.05,-0.007 0.099,-0.02 0.148,-0.029 0.05,-0.009 0.101,-0.007 0.15,-0.017 0.05,-0.01 0.095,-0.041 0.143,-0.052 0.049,-0.012 0.097,-0.028 0.145,-0.041 L -4.87,5.914 -4.727,5.868 C -3.914,5.65 -2.884,4.979 -2.379,4.309 l 0.1,-0.113 0.117,-0.099 c 0.457,-0.731 0.591,-0.856 0.845,-1.752 l 0.024,-0.046 0.051,-0.09 C -1.23,2.161 -1.249,2.105 -1.238,2.056 L -1.199,1.937 -1.192,1.912 -1.188,1.864 -1.185,1.761 C -1.176,1.711 -1.118,1.67 -1.111,1.62 -1.104,1.57 -1.119,1.517 -1.113,1.468 -1.107,1.418 -1.084,1.369 -1.079,1.319 -1.075,1.271 -1.075,1.222 -1.073,1.173 l 10e-4,-0.004 c 0.002,-0.05 0.004,-0.101 0.005,-0.152 l -0.001,-0.03 -0.005,-0.12 c 0,-0.051 0.016,-0.102 0.014,-0.152 C -1.06,0.665 -1.095,0.616 -1.098,0.566 -1.101,0.516 -1.121,0.467 -1.125,0.418 -1.13,0.367 -1.124,0.317 -1.129,0.267 -1.134,0.217 -1.148,0.169 -1.155,0.119 c -0.007,-0.049 0.01,-0.103 0.002,-0.152 -0.008,-0.05 -0.04,-0.095 -0.05,-0.143 -0.01,-0.05 0.011,-0.106 -10e-4,-0.155 -0.011,-0.048 -0.051,-0.09 -0.064,-0.139 L -1.272,-0.625 -1.329,-0.766 C -1.66,-1.67 -1.892,-1.959 -2.453,-2.711 L -2.568,-2.81 -2.667,-2.925 -2.694,-2.942 -2.806,-2.996 -2.912,-3.103 -3.031,-3.193 -3.13,-3.311 -3.248,-3.404 -3.388,-3.468 -3.507,-3.56 -3.641,-3.627 -3.75,-3.74 -3.882,-3.814 -4.029,-3.857 -4.167,-3.917 -4.305,-3.975 -4.439,-4.045 -4.581,-4.097 -4.728,-4.13 -4.861,-4.209 -5.013,-4.227 c -0.048,-0.012 -0.091,-0.047 -0.14,-0.059 -0.049,-0.011 -0.102,-0.006 -0.151,-0.016 -0.049,-0.01 -0.098,-0.023 -0.148,-0.032 -0.049,-0.008 -0.102,0.01 -0.152,0.003 -0.049,-0.007 -0.095,-0.049 -0.145,-0.055 -0.049,-0.006 -0.101,0.007 -0.152,0.002 -0.049,-0.004 -0.101,0.013 -0.15,0.01 -0.051,-0.003 -0.1,-0.013 -0.15,-0.014 -0.05,-0.002 -0.1,0.011 -0.151,0.011 -0.049,0 -0.099,-0.005 -0.149,-0.003 -0.05,0.001 -0.101,-0.003 -0.15,0 -0.051,0.003 -0.103,-0.027 -0.153,-0.023 -0.05,0.004 -0.096,0.053 -0.145,0.059 -0.05,0.006 -0.106,-0.036 -0.156,-0.029 -0.05,0.007 -0.092,0.063 -0.14,0.072 -0.05,0.008 -0.104,-0.009 -0.153,0.001 -0.049,0.01 -0.094,0.04 -0.143,0.051 l -0.155,10e-4 -0.134,0.079 c -0.799,0.222 -1.476,0.601 -2.09,1.147 l -0.117,0.095 -0.084,0.129 c -0.666,0.685 -0.919,1.148 -1.227,2.041 l -0.045,0.143 -0.051,0.142 c -0.012,0.048 -0.022,0.097 -0.034,0.146 -0.011,0.049 -0.049,0.092 -0.059,0.142 -0.01,0.049 0.022,0.106 0.013,0.155 -0.008,0.05 -0.045,0.094 -0.052,0.144 -0.007,0.05 -0.005,0.101 -0.011,0.151 -0.006,0.049 0.012,0.101 0.007,0.151 -0.004,0.05 -0.028,0.099 -0.031,0.149 -0.003,0.05 0.015,0.101 0.014,0.151 -0.002,0.05 -0.006,0.099 -0.006,0.15 0,0.05 -0.013,0.1 -0.011,0.15 0.001,0.05 0.004,0.1 0.007,0.15 0.002,0.05 -0.003,0.101 10e-4,0.151 0.005,0.05 -0.002,0.101 0.004,0.151 0.005,0.05 0.046,0.095 0.054,0.145 0.007,0.05 0.021,0.097 0.029,0.146 0.009,0.05 0,0.103 0.01,0.151 0.01,0.05 -0.01,0.106 0.002,0.154 l 0.072,0.137 0.042,0.144 0.036,0.147 0.051,0.141 0.024,0.152 m 2.471,5.037 0.037,0.152 0.039,0.151 0.05,0.132 0.043,0.132 0.072,-0.067 0.002,0.01 0.079,-0.086 0.053,-0.099 C -8.275,7.934 -8.077,7.683 -7.95,7.452 L -7.949,7.326 -8.001,7.216 C -8.051,6.643 -8.286,6.688 -8.195,6.537 L -8.241,6.429 -8.289,6.337 -8.356,6.463 -8.448,6.595 -8.531,6.685 -8.599,6.796 -8.71,6.847 -8.787,6.941 -8.842,7.05 -8.94,7.125 l -0.005,0.11 0.012,0.118 0.014,-0.008 -0.006,0.11 0.074,0.11 0.066,0.128 -0.026,0.13 z m 1.222,0.586 c 0.002,0.037 0.08,0.258 0.093,0.205 l 0.078,-0.122 0.082,-0.136 0.161,-0.188 c 0.057,0.002 0.226,-0.224 0.228,-0.27 l 0.086,-0.081 0.027,-0.101 -0.018,-0.122 -0.006,0 L -6.86,7.498 C -6.937,7.505 -7.054,7.112 -6.972,7.13 L -7.058,6.827 C -7.054,6.74 -7.141,6.669 -7.136,6.559 l -0.08,0.066 -0.133,0.177 c -0.063,0.038 -0.128,0.245 -0.148,0.315 -0.06,0.026 -0.112,0.081 -0.17,0.124 -0.086,-0.003 -0.136,0.267 -0.157,0.266 -0.025,0.073 0.073,0.449 0.101,0.45 0.005,0.055 0.032,0.206 0.073,0.24 0.047,0.002 0.061,0.05 0.059,0.1 l 0.019,0.079 -0.017,0.033 M -10.572,2.332 -10.64,2.197 -10.665,2.048 C -10.678,2 -10.723,1.96 -10.735,1.911 l 0.003,-0.154 c -0.01,-0.049 -0.056,-0.091 -0.064,-0.141 -0.009,-0.049 -0.011,-0.1 -0.018,-0.149 -0.006,-0.05 10e-4,-0.101 -0.004,-0.151 -0.006,-0.05 10e-4,-0.1 -0.003,-0.15 -0.003,-0.05 -0.04,-0.098 -0.042,-0.149 -0.002,-0.049 0.004,-0.1 0.004,-0.15 0,-0.051 -0.005,-0.102 -0.003,-0.151 10e-4,-0.051 0.035,-0.099 0.038,-0.149 0.003,-0.05 0.01,-0.099 0.016,-0.149 0.005,-0.05 -0.022,-0.104 -0.015,-0.153 0.007,-0.05 0.021,-0.098 0.03,-0.148 0.008,-0.049 0.043,-0.094 0.053,-0.142 0.01,-0.05 -0.01,-0.105 10e-4,-0.154 l 0.042,-0.145 c 0.445,-1.509 1.535,-2.614 3.014,-3.103 l 0.141,-0.054 c 0.048,-0.013 0.103,10e-4 0.152,-0.011 0.049,-0.011 0.093,-0.042 0.142,-0.053 0.049,-0.009 0.099,-0.015 0.149,-0.024 0.048,-0.008 0.096,-0.032 0.146,-0.039 0.049,-0.006 0.104,0.029 0.154,0.025 0.049,-0.005 0.097,-0.043 0.147,-0.046 0.049,-0.003 0.101,0.013 0.151,0.011 0.049,-0.002 0.1,-0.006 0.149,-0.006 0.051,0 0.1,0.015 0.15,0.016 0.05,0.002 0.1,0.007 0.149,0.01 0.051,0.003 0.102,-0.008 0.151,-0.003 0.05,0.005 0.097,0.032 0.146,0.038 0.05,0.007 0.106,-0.027 0.155,-0.018 0.049,0.008 0.092,0.052 0.141,0.062 0.049,0.01 0.098,0.016 0.147,0.028 l 0.142,0.047 c 0.495,0.01 1.655,0.722 1.921,1.103 l 0.084,0.057 c -0.041,0.042 -0.088,0.088 -0.143,0.136 -0.117,-0.113 -0.088,0.075 -0.24,0.063 -0.08,-0.13 -0.249,-0.049 -0.372,-0.071 -0.1,-0.082 -0.269,-0.447 -0.395,-0.463 -0.034,0.298 -0.189,0.324 -0.231,0.304 l -0.104,-0.084 c -0.168,-0.12 0.028,-0.135 -0.15,-0.242 -0.12,0.068 -0.356,-0.074 -0.405,-0.135 -0.049,-0.12 -0.184,-0.195 -0.31,-0.217 -0.133,-0.02 -0.282,0.084 -0.373,-0.062 -0.261,-0.119 -0.517,0.052 -0.754,0.139 -0.178,0.156 -0.373,0.361 -0.541,0.543 -0.391,-0.085 -0.734,0.097 -1.077,0.233 -0.162,0.071 -0.241,0.263 -0.399,0.321 -0.049,0.113 -0.162,0.065 -0.25,0.117 -0.106,0.038 -0.232,0.084 -0.294,0.187 -0.213,0.101 -0.319,0.259 -0.464,0.428 -0.137,0.21 -0.089,0.372 -0.202,0.598 -0.143,0.227 -0.081,0.303 -0.2,0.543 -0.004,0.11 -0.114,0.178 -0.133,0.285 -0.039,0.145 -0.117,0.272 -0.107,0.437 -0.049,0.191 -0.049,0.443 0,0.637 0.068,0.058 0.003,0.139 0,0.207 0.003,0.395 0.188,0.91 0.466,1.202 l 0.088,0.071 0.077,0.029 c 0.098,0.145 0.16,0.1 0.192,0.301 0.207,0.213 0.531,0.262 0.816,0.233 0.129,0.006 0.259,-0.081 0.359,0.016 0.191,0.013 0.259,0.216 0.469,0.226 0.059,0.029 0.117,0.042 0.184,0.049 0.137,0.071 0.305,0.007 0.366,0.208 0.143,0.106 0.384,0.225 0.591,0.225 0.084,0.065 0.123,0.085 0.165,0.165 0.052,0 0.009,0.056 0.035,0.079 L -6.528,4.675 C -6.457,4.708 -6.359,4.5 -6.346,4.458 -6.33,4.361 -6.351,4.306 -6.354,4.215 -6.296,4.208 -6.345,4.139 -6.306,4.096 -6.241,4.074 -6.186,4.009 -6.112,4.032 l 0.033,0.052 c 0.013,-0.013 0.002,0.206 -0.076,0.174 l -0.054,0.051 c 0.068,0.107 0.176,0.115 0.341,0.079 0.207,-0.109 0.491,-0.522 0.517,-0.729 0.148,-0.023 0.09,0.053 0.239,-0.045 l 0.143,-0.016 c 0.385,-0.158 0.923,-0.25 1.34,-0.359 0.22,-0.123 0.255,-0.419 0.424,-0.588 l 0.106,0.015 c 0.068,-0.003 0.139,-0.01 0.194,0.016 l 0.149,0 C -2.803,2.907 -2.704,3.104 -2.597,3.3 L -2.67,3.393 C -3.197,4.278 -4.085,4.818 -5.015,5.174 L -5.172,5.171 C -5.221,5.183 -5.267,5.202 -5.315,5.213 -5.364,5.225 -5.403,5.281 -5.452,5.29 -5.501,5.3 -5.553,5.299 -5.602,5.308 -5.651,5.316 -5.705,5.299 -5.754,5.306 c -0.05,0.006 -0.101,-0.002 -0.15,0.004 -0.05,0.005 -0.098,0.03 -0.147,0.033 -0.05,0.004 -0.099,0.031 -0.15,0.033 -0.05,10e-4 -0.1,-0.04 -0.151,-0.04 -0.049,0 -0.1,0.02 -0.15,0.018 C -6.551,5.352 -6.6,5.329 -6.65,5.326 -6.7,5.323 -6.752,5.349 -6.802,5.344 -6.852,5.338 -6.903,5.342 -6.952,5.335 -7.002,5.328 -7.05,5.309 -7.099,5.301 -7.149,5.292 -7.196,5.271 -7.244,5.262 -7.294,5.251 -7.343,5.243 -7.391,5.231 L -7.54,5.205 C -8.888,4.84 -10.029,3.769 -10.541,2.48 l -0.031,-0.148 m 7.467,-3.782 -0.017,0.016 0.017,-0.016"
           id="path6199"
           style="fill:#900027;fill-opacity:1;fill-rule:nonzero;stroke:none" />
      </g>
      <g
         transform="matrix(0,1.25,1.25,0,3.48821,405.59768)"
         id="g6201">
        <path
           d="M 0,0 0.031,-0.01 0.13,-0.047 c 0.05,-0.004 0.099,-0.005 0.149,-0.011 0.049,-0.007 0.101,-0.002 0.15,-0.009 0.049,-0.008 0.1,-0.008 0.149,-0.017 0.049,-0.01 0.095,-0.035 0.144,-0.046 L 0.866,-0.17 0.997,-0.194 1.013,-0.197 C 1.501,-0.388 1.54,-0.314 1.983,-0.591 L 2.113,-0.665 2.25,-0.727 2.373,-0.814 2.496,-0.901 2.622,-0.977 2.624,-0.979 2.744,-1.069 2.756,-1.082 2.834,-1.197 2.968,-1.263 2.972,-1.266 2.98,-1.275 3.073,-1.378 3.163,-1.5 3.286,-1.589 3.371,-1.714 3.484,-1.815 3.548,-1.956 C 3.801,-2.2 3.934,-2.54 4.11,-2.837 L 4.114,-2.848 4.161,-2.959 4.168,-2.977 4.181,-3.019 4.207,-3.122 4.247,-3.19 4.261,-3.211 4.283,-3.253 4.299,-3.29 C 4.336,-3.378 4.355,-3.399 4.346,-3.497 L 4.351,-3.546 4.394,-3.69 4.398,-3.71 4.413,-3.838 c 0.011,-0.049 0.031,-0.096 0.04,-0.145 0.009,-0.048 0.01,-0.099 0.017,-0.148 l 0.038,-0.121 0.005,-0.024 0.004,-0.138 10e-4,-0.012 c 0.004,-0.05 -0.007,-0.1 -0.005,-0.15 0.004,-0.05 0.04,-0.098 0.042,-0.148 0.001,-0.05 0.004,-0.1 0.004,-0.15 0,-0.051 -0.017,-0.1 -0.019,-0.15 -0.002,-0.05 -0.004,-0.1 -0.007,-0.149 L 4.534,-5.259 4.533,-5.324 4.532,-5.337 4.518,-5.473 C 4.512,-5.523 4.493,-5.571 4.486,-5.62 L 4.457,-5.724 4.447,-5.765 4.446,-5.809 4.447,-5.827 4.451,-5.919 4.418,-6.066 4.377,-6.15 4.358,-6.189 4.352,-6.203 4.344,-6.238 4.331,-6.309 4.32,-6.35 4.31,-6.375 4.275,-6.436 4.251,-6.484 4.248,-6.494 4.24,-6.576 4.231,-6.636 4.196,-6.688 4.142,-6.762 4.128,-6.864 4.117,-6.915 4.099,-6.946 4.03,-7.039 C 3.983,-7.242 3.84,-7.284 3.734,-7.539 L 3.726,-7.554 3.65,-7.683 3.574,-7.805 3.571,-7.811 3.46,-7.915 3.362,-8.027 3.278,-8.153 3.164,-8.251 3.133,-8.298 3.116,-8.333 3.098,-8.362 3.083,-8.382 C 2.915,-8.49 2.891,-8.591 2.719,-8.649 L 2.605,-8.745 2.535,-8.829 2.515,-8.849 2.504,-8.86 2.484,-8.872 2.366,-8.926 2.258,-9.019 2.235,-9.034 2.121,-9.098 1.972,-9.14 1.851,-9.231 1.717,-9.297 1.578,-9.353 1.444,-9.422 1.302,-9.472 1.287,-9.475 1.153,-9.499 1.011,-9.544 0.863,-9.57 C 0.815,-9.582 0.775,-9.629 0.725,-9.639 L 0.633,-9.66 0.579,-9.672 0.547,-9.676 0.43,-9.689 C 0.38,-9.696 0.327,-9.673 0.278,-9.679 0.228,-9.686 0.181,-9.71 0.131,-9.715 0.081,-9.719 0.032,-9.734 -0.017,-9.737 c -0.05,-0.003 -0.1,-0.002 -0.151,-0.003 -0.049,-0.002 -0.099,0.004 -0.15,0.004 -0.049,0 -0.1,-0.014 -0.149,-0.013 l -0.001,0 c -0.05,0.002 -0.1,0.01 -0.149,0.013 -0.051,0.004 -0.099,0.022 -0.148,0.027 -0.051,0.004 -0.099,0.012 -0.149,0.018 -0.049,0.006 -0.097,0.025 -0.146,0.033 l -0.117,-0.017 -0.038,0 -0.043,0.015 c -0.273,0.087 -0.85,0.18 -1.087,0.378 l -0.143,0.048 -0.128,0.081 -0.086,0.027 -0.059,0.021 -0.123,0.086 -10e-4,0 -0.11,0.104 -0.135,0.068 -0.039,0.022 -0.027,0.017 -0.063,0.039 -0.118,0.093 -0.064,0.06 -0.045,0.044 -0.043,0.055 -0.049,0.066 -0.059,0.04 -0.067,0.045 c -0.373,0.394 -0.737,0.829 -0.948,1.334 l -0.082,0.126 -0.052,0.088 -0.023,0.043 -0.008,0.029 -0.019,0.122 -0.065,0.134 -0.034,0.061 -0.001,0.003 -0.038,0.071 -0.003,0.053 0.004,0.103 -0.058,0.139 -0.035,0.097 -0.014,0.046 -0.003,0.026 0.002,0.109 -10e-4,0.017 c -0.009,0.049 -0.015,0.098 -0.023,0.147 -0.007,0.05 -0.009,0.099 -0.016,0.149 -0.006,0.048 -0.028,0.095 -0.032,0.144 l -0.001,0.002 c -0.005,0.05 -0.006,0.1 -0.009,0.15 l -0.022,0.095 -0.009,0.053 0.007,0.047 0.023,0.1 10e-4,0.004 c 0,0.05 -10e-4,0.099 0,0.149 l 0,0.002 -0.021,0.092 -0.009,0.058 0.019,0.074 0.02,0.073 0.011,0.103 0.005,0.045 0.001,0.009 -0.002,0.093 0.002,0.05 c 0.007,0.049 0.017,0.099 0.026,0.148 0.009,0.049 0.008,0.101 0.019,0.149 l 0.013,0.039 0.025,0.056 0.017,0.047 c 0.012,0.048 0.05,0.089 0.063,0.138 l 0.03,0.146 0.024,0.127 0.005,0.022 0.042,0.145 0.04,0.066 0.039,0.063 0.03,0.099 0.016,0.045 0.016,0.025 0.075,0.097 0.031,0.117 0.012,0.03 0.069,0.134 0.031,0.034 0.078,0.075 0.078,0.127 0.078,0.127 0.088,0.121 0.081,0.127 0.104,0.109 0.056,0.086 0.029,0.039 0.024,0.019 0.106,0.065 0.098,0.112 0.114,0.097 0.115,0.095 0.095,0.12 0.133,0.073 0.062,0.081 0.024,0.029 0.011,0.011 0.007,0.003 0.038,0.014 0.106,0.028 0.103,0.108 0.007,0.005 0.14,0.049 0.118,0.094 0.145,0.046 0.082,0.066 0.039,0.027 0.006,0.002 0.131,0.06 0.149,0.033 0.087,0.062 0.041,0.022 0.142,0.051 0.078,0.012 0.072,0.011 0.075,0.031 0.065,0.025 0.062,0.007 0.045,0.001 0.044,0.005 c 0.049,0.011 0.099,0.014 0.148,0.023 0.049,0.009 0.098,0.022 0.147,0.029 l 0.091,0.03 0.054,0.015 0.044,-0.002 0.109,-0.019 c 0.05,0.005 0.1,0.002 0.149,0.005 l 0.102,0.032 0.046,0.011 0.104,-0.02 0.046,-0.007 c 0.051,0 0.1,-0.001 0.15,-0.003 l 0.093,0.023 0.014,0.004 0.044,0.007 L 0,0 M -0.616,0.056 C -0.665,0.053 -0.714,0.028 -0.763,0.023 L -0.876,0.008 -0.91,0.003 -0.937,0.002 -1.061,0.007 -1.207,-0.019 -1.353,-0.051 C -1.402,-0.061 -1.452,-0.066 -1.5,-0.078 L -1.638,-0.14 c -1.613,-0.43 -3.094,-1.905 -3.458,-3.557 l -0.047,-0.142 c -0.01,-0.048 -0.013,-0.098 -0.022,-0.147 -0.009,-0.049 0.007,-0.102 0,-0.15 -0.007,-0.05 -0.008,-0.099 -0.014,-0.148 -0.006,-0.049 -0.046,-0.095 -0.05,-0.144 -0.005,-0.049 0.025,-0.101 0.022,-0.15 -0.003,-0.05 -0.017,-0.098 -0.018,-0.148 -0.001,-0.049 0.002,-0.098 0.002,-0.148 0,-0.05 0.004,-0.099 0.006,-0.148 10e-4,-0.05 0.012,-0.099 0.014,-0.148 0.004,-0.049 -0.021,-0.101 -0.016,-0.15 0.004,-0.049 0.014,-0.098 0.02,-0.147 0.006,-0.049 0.027,-0.096 0.034,-0.145 0.008,-0.049 0.022,-0.096 0.032,-0.145 0.008,-0.049 -0.009,-0.102 0.001,-0.151 l 0.052,-0.14 0.022,-0.148 0.043,-0.142 c 0.096,-0.488 0.229,-0.426 0.341,-0.823 l 0.071,-0.131 0.071,-0.13 c 0.235,-0.326 0.403,-0.639 0.731,-0.937 l 0.102,-0.108 0.118,-0.092 0.119,-0.089 0.119,-0.088 c 0.347,-0.328 0.422,-0.271 0.785,-0.502 l 0.079,-0.077 0.114,-0.012 0.04,-0.008 0.041,-0.026 0.084,-0.058 0.123,-0.025 0.025,-0.006 0.02,-0.011 0.11,-0.064 0.144,-0.036 0.145,-0.034 0.134,-0.075 0.154,0.01 c 0.049,-0.011 0.088,-0.065 0.137,-0.074 l 0.15,-0.005 c 0.049,-0.008 0.099,-0.006 0.149,-0.012 0.048,-0.006 0.095,-0.031 0.145,-0.035 l 0.085,0.014 0.066,0.01 0.074,-0.022 0.073,-0.02 c 0.049,-0.002 0.099,-0.002 0.148,-0.002 0.05,0 0.1,0.004 0.149,0.005 0.05,0.002 0.099,0.015 0.148,0.018 0.05,0.003 0.098,0.019 0.148,0.023 0.049,0.004 0.1,-0.005 0.149,10e-4 0.049,0.006 0.101,-0.006 0.15,0.001 0.049,0.008 0.098,0.019 0.146,0.028 l 0.144,0.04 0.084,0.036 0.055,0.023 0.057,10e-4 0.096,0 0.139,0.055 0.139,0.054 0.136,0.059 0.145,0.038 0.137,0.059 0.124,0.084 0.141,0.051 0.12,0.088 0.145,0.047 0.127,0.078 0.119,0.09 0.114,0.096 0.105,0.107 0.127,0.078 0.115,0.094 0.094,0.116 0.09,0.086 0.017,0.017 0.106,0.103 0.119,0.093 0.077,0.12 0.004,0.005 0.093,0.115 0.052,0.069 0.037,0.05 0.06,0.059 0.046,0.048 0.081,0.124 0.09,0.119 0.029,0.103 10e-4,0.006 0.002,0.008 0.012,0.03 0.026,0.034 0.071,0.082 0.075,0.129 0.03,0.15 0.051,0.139 0.089,0.124 0.057,0.139 0.004,0.154 0.087,0.129 0.037,0.145 0.032,0.146 c 0.01,0.048 0.02,0.097 0.029,0.146 0.009,0.048 -0.007,0.101 0,0.151 l 0.035,0.141 0,0.004 c 0.006,0.049 0.021,0.098 0.025,0.147 0.004,0.049 -0.004,0.099 -0.001,0.149 l 0,0.026 0.001,0.123 c 0.002,0.049 -0.003,0.099 -0.003,0.149 l -0.009,0.11 -0.003,0.038 0.001,0.016 0.022,0.133 -0.013,0.114 -0.004,0.035 -0.008,0.124 -10e-4,0.024 c -0.006,0.049 -0.019,0.098 -0.026,0.147 -0.007,0.049 -0.01,0.099 -0.019,0.148 -0.009,0.049 -0.021,0.097 -0.031,0.146 -0.01,0.048 -0.044,0.092 -0.056,0.14 l -0.01,0.032 -0.04,0.108 -0.02,0.089 -0.013,0.055 -10e-4,0.003 -0.034,0.142 -0.06,0.124 -0.005,0.01 -0.031,0.147 -0.053,0.071 -0.038,0.052 -0.016,0.039 -0.041,0.097 -0.055,0.139 -0.029,0.09 -0.02,0.052 -0.08,0.093 -0.018,0.022 -0.095,0.115 -0.024,0.049 -0.042,0.085 -0.065,0.137 -0.008,0.009 -0.1,0.095 -0.059,0.053 -0.053,0.047 C 3.074,-1.167 1.777,-0.28 1.138,-0.202 L 0.997,-0.161 0.863,-0.082 C 0.816,-0.07 0.766,-0.062 0.717,-0.052 0.669,-0.042 0.619,-0.037 0.57,-0.028 0.522,-0.019 0.474,0.002 0.426,0.009 0.377,0.016 0.326,0.011 0.276,0.017 L 0.169,0.011 0.156,0.01 l -0.03,0 c -0.049,0.005 -0.098,0.008 -0.147,0.011 -0.05,0.003 -0.099,0 -0.148,10e-4 -0.05,0.002 -0.099,0.035 -0.149,0.035 -0.049,0 -0.098,-0.034 -0.148,-0.036 -0.049,-0.001 -0.1,0.038 -0.15,0.035 M 0.795,3.385 1.177,3.4 1.533,3.263 C 11.35,0.711 9.542,-13.33 -0.699,-13.234 l -0.37,0.075 -0.374,0.026 c -10.274,1.723 -9.297,16.294 1.12,16.608 L 0.052,3.494 0.43,3.498 0.795,3.385 z M -0.323,3.672 -0.697,3.694 -1.071,3.681 c -10.416,-1.294 -10.366,-15.83 0.003,-17.065 l 0.369,-0.087 0.376,0.065 C 10.319,-13.104 11.37,1.846 0.794,3.619 L 0.423,3.659 0.052,3.722"
           id="path6203"
           style="fill:#d59f0f;fill-opacity:1;fill-rule:nonzero;stroke:none" />
      </g>
      <g
         transform="matrix(0,1.25,1.25,0,-5.81929,406.72643)"
         id="g6205">
        <path
           d="m 0,0 -0.036,0.064 c -0.052,-0.103 -0.165,-0.191 -0.282,-0.187 l -0.03,0.057 c 0.015,0.035 0.108,0.047 0.13,0.1 l 0.004,0.036 0.057,0.104 c 0.041,0.103 0.037,0.206 0.037,0.321 -0.023,0.123 -0.155,0.2 -0.257,0.249 L -0.372,0.74 -0.377,0.742 C -0.24,0.639 -0.247,0.477 -0.192,0.338 L -0.225,0.291 -0.243,0.23 -0.292,0.158 C -0.372,0.138 -0.386,0.032 -0.479,0.071 l 0.004,0.038 0.089,0.109 0,0.001 0,0.001 c 0.033,0.239 -0.006,0.407 -0.2,0.547 L -0.584,0.763 -0.586,0.765 C -0.522,0.668 -0.522,0.571 -0.503,0.454 -0.491,0.381 -0.492,0.322 -0.507,0.27 -0.534,0.183 -0.599,0.116 -0.705,0.042 l 0,-0.001 -0.002,-0.001 0.008,-0.043 -0.052,-0.049 0.001,0 -0.001,-0.002 c 0.07,-0.038 0.139,-0.016 0.2,-0.077 0.065,-0.195 0.259,-0.114 0.404,-0.133 l 0.093,0.114 0.046,0.135 L 0,0 M 3.134,3.633 3.135,3.634 3.12,3.758 3.077,3.874 C 3.03,3.872 2.982,3.865 2.931,3.85 2.815,3.714 2.573,3.66 2.516,3.48 L 2.504,3.393 2.526,3.383 c 0.029,-0.078 0.075,0.019 0.126,0 l 0,10e-4 0.01,0.033 c 0.029,0.06 0.096,0.014 0.152,0.06 0.098,0.057 0.218,0.097 0.32,0.155 l 0,10e-4 m -8.026,-8.022 0.003,0.012 0.041,0.035 c 0.022,0.061 -0.007,0.185 -0.041,0.185 l -0.035,0.116 0.015,0.085 0.02,0.028 0.02,0.064 0.022,0.022 0,10e-4 0.007,0.019 0.055,0.058 0,10e-4 0.004,0.01 0.114,0.108 0.047,0.057 0,10e-4 0.001,0.001 0.01,0.039 0.078,0.115 0.162,0.166 0,0.002 10e-4,0 0.002,0.01 0.084,0.114 0,0.001 0.001,0 0.04,0.107 0.059,0.105 c 0.045,0.065 0.085,0.046 0.144,0.046 l 0.068,-0.021 0.047,-0.041 0.099,0.029 c 0.024,0.015 0.11,0.082 0.137,0.134 l 0.003,0.046 -0.041,0.031 -0.099,0.083 -0.155,0.099 -0.11,0.041 -0.088,0.083 -0.072,0.057 c -0.057,0 -0.101,0.125 -0.157,0.125 -0.027,0.053 -0.103,0.072 -0.125,0.114 -0.059,0.015 -0.147,0.075 -0.181,0.125 l -0.114,0.078 -0.121,0.068 -0.076,0.062 -0.094,0.004 -0.145,-0.102 -0.047,-0.032 -0.034,-0.018 0.012,-0.06 c -0.066,-0.012 -0.037,0.058 -0.103,0.02 l -0.109,-0.072 -0.04,-0.054 c -0.026,-0.051 -0.016,-0.097 -0.002,-0.155 l 0.057,-0.042 0.113,-0.023 0.136,0.019 0,10e-4 0.001,0 0.004,0.022 0.053,0.007 0.001,0.002 0.003,0.009 0.286,0 0.11,-0.073 0.182,-0.141 0.125,-0.072 0.004,-0.071 -0.021,-0.027 -0.01,-0.031 -0.075,-0.104 -0.004,-0.01 -0.014,-0.029 -0.017,-0.091 0.048,-0.104 0,-0.124 C -4.641,-3.147 -4.652,-3.15 -4.707,-3.15 l -0.042,0.021 c -0.053,0.036 -0.028,0.074 -0.088,0.057 l 0,-0.002 -0.002,-0.01 -0.138,0.064 c -0.046,0.069 -0.184,0.104 -0.148,0.218 l 0.021,0.075 -0.018,0.06 -0.12,0.068 c -0.042,0 -0.159,0.015 -0.186,-0.037 L -5.434,-2.662 -5.471,-2.708 -5.475,-2.725 -5.476,-2.737 -5.534,-2.815 -5.632,-2.932 -5.7,-3.026 -5.709,-3.052 -5.719,-3.073 c -0.018,-0.052 0.005,-0.103 0.055,-0.12 0.031,-0.059 0.154,-0.01 0.198,0.006 0.023,0.043 0.109,0.078 0.162,0.083 l 0.145,-0.12 c 0.323,-0.114 -0.037,-0.355 -0.078,-0.472 l -0.181,-0.098 c -0.097,0 -0.207,0.105 -0.276,0.151 l -0.062,0.077 -0.053,0.064 -0.018,0.119 0.014,0.019 0,10e-4 10e-4,0 -0.016,0.054 0.004,0.002 0,10e-4 10e-4,10e-4 0.014,0.066 0.011,0.01 0,10e-4 0,0 -0.047,0.115 -0.092,0.049 -0.078,-0.05 c -0.045,-0.053 -0.106,-0.1 -0.162,-0.161 -0.039,-0.043 -0.087,-0.094 -0.11,-0.146 l -0.014,-0.054 c -10e-4,-0.086 0.144,-0.11 0.144,-0.138 l 0.068,-0.063 0.098,-0.078 0.095,-0.072 0.113,-0.094 0.151,-0.088 0.163,-0.074 c 0.072,-0.052 0.147,-0.207 0.243,-0.207 l 0.108,-0.098 c 0.034,-0.023 0.206,-0.059 0.226,-0.002 m -2.256,2.786 0.065,0.076 0.003,0.007 0.125,0.137 0.003,0.018 0.142,-0.145 0.087,-0.164 -0.196,0.046 c -0.087,-0.012 -0.155,-0.046 -0.25,-0.047 l 0.021,0.072 m -1.275,2.011 c -0.133,0.006 -0.081,0.151 -0.08,0.233 l 0.01,0.007 0.018,0.127 0.008,0.006 0,0.001 0.006,0.018 0.112,0.089 0.099,0.027 0.125,0.013 0.089,-0.034 0.101,-0.158 -0.008,-0.007 0,-0.002 c 0,-0.046 0.022,-0.081 0.072,-0.093 l 0.043,-0.108 c -0.134,0 -0.262,-0.061 -0.369,-0.088 L -8.198,0.438 -8.2,0.431 -8.423,0.408 m 1.171,-2.401 0.13,0.031 c 0.13,0.014 0.268,0.073 0.42,0.073 l 0,0.001 0.002,0.004 0.211,0.063 0.327,0.078 c 0.071,0 0.14,0.032 0.224,0.041 l 0.002,0.006 0.229,0.029 0.112,-0.019 0.075,-0.052 0.121,-0.073 0.102,0.084 0.008,0.02 0.036,0.042 0.006,0.017 -0.045,0.056 c -0.167,0.184 -0.287,0.418 -0.428,0.587 l -0.079,0.054 c -0.072,0.03 -0.075,-0.028 -0.129,-0.064 l 0,-0.001 -0.001,-10e-4 -0.002,-0.013 -0.014,-0.024 -0.006,-0.016 0.034,-0.097 0.052,-0.181 C -5.94,-1.376 -6.036,-1.375 -6.104,-1.384 L -6.26,-1.431 c -0.059,0 -0.121,-0.114 -0.17,-0.128 l -0.053,0.071 c -0.014,0.053 -0.067,0.153 -0.115,0.177 l -0.069,0.125 -0.001,0.165 0.023,0.025 0,0.001 10e-4,0.001 0.009,0.032 0.079,0.106 0,0.001 0,0.001 0.003,0.014 0.067,0.084 0.003,0.015 0.075,0.105 0.003,0.01 0.024,0.027 0.011,0.035 0.052,-0.026 0.042,-0.058 c 0.036,-0.017 0.053,-0.068 0.105,-0.081 0.056,-0.014 0.127,0.011 0.17,0.047 l 0.038,0.051 0.011,0.059 -0.075,0.081 c -0.01,0.053 -0.07,0.112 -0.103,0.145 l -0.062,0.099 c -0.013,0.05 -0.094,0.099 -0.094,0.146 l -0.088,0.093 -0.098,0.104 -0.057,0.027 -0.008,0.032 0.04,0.052 0.003,0.008 0.021,0.018 -0.048,0.17 -0.04,0.144 c 0,0.078 -0.026,0.147 -0.026,0.224 l -0.047,0.151 c -0.013,0.052 -0.135,0.111 -0.135,0.135 -0.05,0 -0.084,-0.017 -0.109,-0.067 l 0,0 L -6.879,0.988 -6.912,0.9 -6.919,0.886 l 0,-0.001 -0.001,0 L -6.95,0.768 -6.998,0.722 -7.116,0.689 -7.278,0.663 C -7.33,0.663 -7.37,0.626 -7.414,0.626 L -7.521,0.605 c -0.076,0 -0.028,0.055 -0.027,0.083 l 0.037,0.046 0.016,0.04 0.04,0.048 0.116,0.136 c 0.052,0.032 0.14,0.186 0.206,0.186 l 0.087,0.096 0.001,0.004 0.005,0.013 0.115,0.126 0.093,0.109 0,0.001 0.002,0.005 0.066,0.078 0,10e-4 0,0 0.024,0.101 0.002,0.205 -0.026,0.234 c 0.029,0.058 -0.005,0.13 -0.078,0.13 0,0.015 -0.067,0.019 -0.061,0.069 l 0.019,0.092 c -0.017,0.037 0.017,0.143 0.017,0.192 0,0.18 0.041,0.364 0.041,0.545 l 0.003,0.006 0.034,0.133 0.012,0.022 c 0.025,0.063 0.037,0.242 0.058,0.293 l 0.011,0.013 0.001,10e-4 0,0 0.022,0.119 0.005,0.007 -0.057,0.177 C -6.769,3.97 -6.833,4.023 -6.852,4.08 L -6.977,4.174 C -7.064,4.19 -7.104,4.273 -7.204,4.246 L -7.33,4.163 -7.349,4.136 -7.335,4.032 -7.234,3.91 -7.149,3.819 -7.07,3.678 -7.045,3.469 -7.049,3.467 l 0,-10e-4 -10e-4,0 -0.033,-0.138 -0.003,-0.006 0,0 -10e-4,-10e-4 c 0,-0.05 -0.029,-0.084 -0.03,-0.135 L -7.125,3.176 -7.143,3.102 -7.148,3.087 -7.231,3.073 -7.423,3.078 c -0.053,0 -0.075,0 -0.133,-0.021 L -7.637,3.041 c -0.01,0.068 -0.069,0.058 -0.125,0.057 L -7.969,3.13 -8.093,3.145 -8.115,3.156 c -0.065,0 -0.036,0.017 -0.087,0.034 -0.091,0.027 -0.163,0.005 -0.247,0.009 L -8.603,3.244 -8.649,3.306 -8.69,3.441 -8.794,3.498 C -8.835,3.507 -8.928,3.474 -8.948,3.419 l 0,-10e-4 -0.002,0 C -8.994,3.299 -8.962,3.125 -8.961,3 L -8.996,2.957 C -9.021,2.899 -9.032,2.801 -9.037,2.783 l -10e-4,-10e-4 0,-10e-4 c 0,-0.061 0.006,-0.135 0.014,-0.219 l 0.17,-0.059 0.006,0.018 0.084,0.061 0.008,0.005 0.012,0.086 0.006,0.004 -0.001,10e-4 0.001,0 0,0.051 c 0.027,0.055 0.145,0.037 0.197,0.025 0.074,-0.016 0.12,0.039 0.176,0.027 0.054,-0.012 0.068,-0.021 0.116,-0.013 l 0.097,-0.019 0.172,-0.032 0.141,-0.04 0.15,-0.026 0.089,0 0.275,-0.027 c 0.038,0 0.098,0.016 0.099,-0.062 L -7.197,2.436 C -7.183,2.3 -7.156,2.248 -7.019,2.23 L -7.024,2.207 -7.069,2.134 -7.076,2.069 l 0,-0.052 -0.015,-0.156 0,-0.005 L -7.159,1.743 -7.246,1.631 -7.252,1.618 -7.301,1.561 -7.309,1.54 -7.418,1.478 -7.491,1.421 -7.605,1.328 C -7.679,1.303 -7.705,1.094 -7.787,1.094 l 0,-0.002 0,0 -0.003,-0.011 -0.06,0.075 -0.035,0.057 -0.053,0.052 -0.103,0.052 c -0.1,0.024 -0.181,0.057 -0.291,0.057 L -8.333,1.372 -8.335,1.369 -8.523,1.296 -8.524,1.291 c -0.067,0 -0.125,-0.063 -0.177,-0.099 l 0,-10e-4 -0.003,-0.007 -0.054,-0.096 0,0 -0.001,-0.001 c 0,-0.047 -0.035,-0.089 -0.036,-0.145 L -8.799,0.936 -8.812,0.774 c 0.02,-0.198 0.085,-0.399 0.106,-0.575 l 0.077,-0.39 0.084,-0.098 0.098,0.026 0.079,0.081 0.04,0.099 0.01,0.017 0.06,0.094 0.047,0.006 0.101,0.025 0.076,0.019 0.096,-0.024 0.317,0.073 c 0.061,0 0.107,0.03 0.172,0.03 l 0.12,0.037 0.004,0.016 c 0.038,0 0.057,0.076 0.125,0.056 l 0.155,0.016 0.133,0.06 0.153,-0.091 c 0,-0.068 0.134,-0.098 0.135,-0.155 l -0.061,-0.067 0,-0.001 -0.001,-0.001 0.033,-0.134 0.009,-0.104 -0.005,-0.004 -0.028,-0.05 -0.004,-0.018 -0.088,-0.098 -0.078,-0.063 0,-0.001 -0.003,-0.014 -0.103,-0.135 -0.111,-0.151 0,-0.001 -0.001,-0.001 -0.007,-0.028 -0.045,-0.069 -0.005,-0.015 -0.108,-0.161 -0.006,-0.016 c -0.055,0 -0.112,-0.14 -0.172,-0.14 l 0,-0.001 -0.013,-0.056 -0.057,-0.111 -0.013,-0.056 -0.093,-0.16 0,-10e-4 -0.001,-0.001 -0.004,-0.021 -0.114,-0.091 -0.006,-0.017 -0.056,-0.075 -0.01,-0.03 c -0.007,-0.042 0.005,-0.119 0.061,-0.119 0.033,-0.04 0.09,-0.093 0.14,-0.093 l 0.322,0.015 m 6.748,7.435 0.011,0.023 C -0.477,5.528 -0.52,5.65 -0.52,5.65 c 0,0 -0.032,-0.049 -0.066,-0.101 -0.035,-0.052 -0.148,-0.003 -0.149,-0.003 0.006,0.009 0.069,0.11 0.096,0.18 l 0.011,0.057 -0.121,0.1 0,-0.002 0,10e-4 0.013,-0.06 C -0.739,5.816 -0.807,5.684 -0.891,5.65 -0.934,5.633 -0.997,5.617 -1.051,5.604 L -1.072,5.64 -1.171,5.636 -1.278,5.712 -1.292,6.036 -1.316,6.01 l 0,-0.002 -0.019,-0.109 -0.03,0 0,-0.002 L -1.369,5.89 -1.407,5.83 C -1.43,5.815 -1.697,5.701 -1.769,5.689 -1.842,5.678 -2.067,5.495 -2.067,5.495 L -2.125,5.43 -2.052,5.383 c 0.038,-0.004 0.126,0.007 0.19,0.007 0.065,0 0.141,-0.034 0.141,-0.034 l 0.107,0.008 0,0.001 0.001,0 c 0,0 0.006,0.069 0.029,0.125 l 0.028,0.049 c 0.045,0.054 0.107,0.1 0.133,0.138 l 0.034,0.057 c 0,0 0.035,-0.065 0.027,-0.119 C -1.37,5.562 -1.427,5.433 -1.427,5.433 l 0.039,0.014 0.011,-0.075 0.104,0.034 0.26,0 c 0.173,0 0.26,-0.017 0.336,-0.058 0.077,-0.041 0.092,-0.01 0.173,0.094 m 0.785,-5.905 0,0.013 -0.029,-0.023 0.001,0 -0.001,-0.001 0.029,0.011 m 0.002,1.274 c 0.022,0.045 0.018,0.114 0.036,0.164 l 0.017,0.033 -0.001,0 0.001,10e-4 C 0.197,1.019 0.038,1.184 -0.12,1.071 L -0.162,1.014 C -0.222,0.888 -0.039,0.774 0.012,0.658 0.018,0.519 0.096,0.406 0.206,0.315 l 0,0.003 L 0.207,0.316 0.206,0.321 C 0.228,0.342 0.57,0.316 0.64,0.332 0.694,0.359 0.728,0.402 0.748,0.451 0.781,0.533 0.775,0.636 0.763,0.728 0.724,0.805 0.728,0.938 0.608,0.938 l 0,-0.002 0,0 C 0.667,0.815 0.635,0.671 0.584,0.553 L 0.563,0.504 C 0.463,0.355 0.265,0.452 0.135,0.482 L 0.137,0.536 0.151,0.548 0.235,0.532 C 0.319,0.509 0.394,0.548 0.452,0.603 l 0.046,0.084 c 0.019,0.051 0.026,0.11 0.009,0.167 L 0.43,0.754 C 0.324,0.695 0.216,0.666 0.097,0.689 0.077,0.724 0.001,0.721 0.012,0.781 0.061,0.81 0.116,0.762 0.174,0.765 0.238,0.755 0.267,0.777 0.283,0.811 M -5.201,7.486 -5.097,7.341 -5.014,7.2 -4.998,7.103 -5.081,7 -5.109,6.966 l 0.002,-0.14 0.079,-0.098 0.076,0.026 0.126,0.094 c 0.049,0 0.091,0.098 0.139,0.098 l 0.142,0.099 0.124,0.093 c 0.069,0.023 0.17,0.133 0.204,0.203 l 0,0.002 c 0.086,0.18 -0.138,0.164 -0.24,0.134 L -4.609,7.472 -4.675,7.508 c -0.021,0.061 -0.12,0.123 -0.12,0.193 l -0.094,0.14 c -0.054,0.027 -0.063,0.054 -0.049,0.081 0.033,0.058 0.18,0.113 0.2,0.151 l 0.118,0.057 0.053,-0.021 0.112,-0.06 c 0.067,-0.022 0.063,-0.031 0.118,0.019 l 0.078,0.095 -0.009,0.057 -0.065,0.114 c -0.052,0.048 -0.09,0.104 -0.14,0.146 l -0.036,0.057 -0.055,0.128 -0.096,0.075 -0.1,0 0,-10e-4 C -4.76,8.694 -4.801,8.63 -4.801,8.572 L -4.777,8.401 -4.781,8.377 -4.869,8.306 -5.008,8.184 -5.056,8.136 c -0.056,0.006 -0.095,0.039 -0.123,0.095 -0.015,0.068 -0.093,0.12 -0.109,0.186 l -0.11,0.234 -0.017,0.078 c 0.024,0.054 0.091,0.113 0.132,0.113 l 0.007,0.015 0.019,0.089 0.008,0.037 0.006,0.004 0.001,10e-4 0.005,0.018 0.16,0.085 -0.005,-0.029 C -5.101,9.007 -5.163,8.98 -5.184,8.928 L -5.191,8.899 c 0.078,0.023 0.109,0.059 0.177,0.073 l 0.114,0.015 0.079,-0.093 0.129,-0.036 0.094,-0.006 0.055,0.072 0.006,0.034 -0.02,0.093 -0.025,0.062 c 0,0.101 -0.119,0.168 -0.145,0.276 C -4.85,9.475 -4.952,9.346 -5.05,9.321 L -5.164,9.233 -5.206,9.202 -5.283,9.17 -5.338,9.128 C -5.39,9.087 -5.462,8.959 -5.533,8.942 L -5.534,8.941 -5.536,8.933 -5.611,8.884 -5.726,8.828 -5.73,8.817 -5.84,8.745 -5.952,8.661 -6.067,8.579 -6.155,8.465 -6.13,8.39 -6.037,8.343 -5.902,8.379 -5.87,8.395 C -5.805,8.42 -5.804,8.369 -5.772,8.354 -5.736,8.3 -5.724,8.208 -5.668,8.172 l 0.052,-0.069 0.035,-0.056 0.08,-0.113 c 0.024,-0.047 0.093,-0.083 0.093,-0.136 l 0.063,-0.135 c 0.048,-0.044 0.126,-0.121 0.144,-0.177 m 5.36,-7.64 C 0.142,-0.206 0.09,-0.245 0.064,-0.295 c -0.068,-0.081 -0.145,-0.068 -0.233,-0.1 l 0.002,-0.001 -0.002,-0.001 c 0.117,-0.093 0.249,-0.016 0.356,0.049 l 0.066,0.119 0.012,0.044 C 0.262,-0.133 0.177,-0.159 0.164,-0.13 l 0,-0.001 0,0 -0.005,-0.023 m -6.891,5.791 c 0.048,0.002 0.225,0.006 0.227,-0.066 -0.078,0 -0.204,-0.052 -0.227,0.066 m 0.379,0.183 c -0.082,0 -0.153,0.031 -0.224,0.031 0,0.024 -0.194,0.015 -0.209,0.067 L -6.919,6.017 -7.054,6.116 -7.142,6.205 -7.215,6.302 -7.35,6.548 c 0,0.048 -0.017,0.102 -0.033,0.154 -0.019,0.067 0.016,0.106 0.016,0.162 l 0.045,0.085 0.008,0.023 0.073,0.083 0,0.001 0,0 0.004,0.013 0.098,0.08 c 0.051,0 0.101,0.04 0.161,0.046 l 0.287,0.032 C -6.364,7.201 -6.025,6.914 -5.85,6.65 l 0.072,-0.146 c 0,-0.059 0.007,-0.12 -0.006,-0.184 L -5.809,6.183 -5.952,5.997 -6.057,5.94 -6.182,5.877 -6.353,5.82 m 0.187,-0.4 c 0.042,0.007 0.172,0.037 0.186,0.093 l 0.087,0.059 0.018,0.027 -0.011,0.07 0.009,0.015 0.007,0.021 0.107,0.114 0.06,0.032 0.043,0.026 0.013,0.035 c 0.05,0.103 0.101,0.15 0.154,0.259 l 0.018,0.042 0.014,0.014 c 0.026,0.053 0.021,0.271 0.018,0.306 L -5.517,6.911 -5.559,7.02 -5.632,7.145 c -0.056,0.038 -0.093,0.119 -0.15,0.17 l -0.1,0.083 -0.201,0.131 -0.113,0.052 -0.23,0.051 -0.095,0.006 C -6.577,7.648 -6.619,7.643 -6.67,7.643 L -6.81,7.612 -7.047,7.556 -7.049,7.55 -7.173,7.498 -7.278,7.447 -7.335,7.37 l 0,-0.014 -0.006,-0.01 -0.042,-0.03 -0.159,-0.224 0,0 L -7.543,7.091 -7.579,6.999 C -7.604,6.944 -7.631,6.885 -7.631,6.885 L -7.632,6.884 c 0,-0.063 -0.047,-0.143 -0.047,-0.229 L -7.686,6.61 -7.714,6.583 l 0,0 0,-0.001 0.01,-0.124 c 0,-0.083 0.062,-0.142 0.062,-0.213 l 0.124,-0.244 0.074,-0.12 0.068,-0.093 c 0.037,-0.02 0.067,-0.131 0.13,-0.131 0.041,-0.049 0.099,-0.075 0.14,-0.124 l 0.16,-0.067 0.151,-0.067 c 0.063,0 0.105,-0.046 0.181,-0.049 0.07,-0.003 0.147,0.017 0.209,0.017 L -6.166,5.42 M 5.401,1.763 C 5.5,1.75 5.563,1.724 5.65,1.705 L 5.779,1.653 5.878,1.638 5.93,1.601 6.05,1.497 C 6.129,1.497 6.194,1.258 6.206,1.193 6.22,1.104 6.198,1.034 6.173,0.967 L 6.153,0.919 C 6.135,0.87 6.118,0.821 6.118,0.766 6.038,0.7 6.053,0.651 5.925,0.659 l -0.227,0.04 c -0.091,0 -0.183,0.072 -0.27,0.072 L 5.095,0.87 C 4.925,0.892 4.785,0.928 4.591,0.943 4.59,0.981 4.644,1.22 4.67,1.282 l 0.008,0.013 0,0.001 0.001,0 0.023,0.093 0.023,0.036 0,10e-4 0.001,0 0.002,0.016 0.053,0.091 0.002,0.016 0.109,0.099 0.14,0.031 c 0.009,0 0.052,0.011 0.105,0.025 l 0.151,0.039 c 0.063,0.015 0.113,0.025 0.113,0.02 M 5.043,2.18 4.922,2.135 4.829,2.046 4.804,1.998 4.788,1.945 4.761,2.024 l 0,0.003 0,10e-4 10e-4,0 C 4.778,2.126 4.736,2.06 4.69,2.06 L 4.689,2.058 4.688,2.051 4.616,1.966 4.55,1.873 4.474,1.763 4.476,1.758 4.453,1.654 4.446,1.639 l 0,-0.001 -10e-4,0 C 4.445,1.552 4.395,1.431 4.371,1.326 4.341,1.203 4.318,1.14 4.294,1.038 4.275,0.956 4.222,0.852 4.222,0.782 L 4.199,0.745 C 4.161,0.649 4.117,0.391 4.18,0.391 4.206,0.342 4.24,0.298 4.289,0.298 l 0.13,0.01 0.067,0.057 0,0.001 0.012,0.053 C 4.513,0.464 4.543,0.487 4.611,0.49 4.611,0.424 4.696,0.43 4.767,0.422 L 4.933,0.381 C 5.04,0.381 5.167,0.322 5.292,0.316 5.401,0.312 5.455,0.246 5.547,0.246 L 5.812,0.189 C 5.856,0.189 5.899,0.176 5.949,0.17 6.014,0.162 5.98,0.027 6.008,0.027 L 6.05,-0.087 c 0.043,-0.047 0.175,-0.059 0.206,0.002 l 0.007,0.029 0.03,0.038 c 0.033,0.09 0.04,0.32 0.055,0.358 l 0.004,0.005 0,0.001 0.008,0.132 0.017,0.028 0.001,0.001 0.006,0.018 0.014,0.033 0.006,0.02 0.01,0.014 0.01,0.062 0.01,0.013 0,0.001 10e-4,0 0.032,0.128 0.003,0.006 0,0 0.001,0.001 0.016,0.087 0.036,0.059 0.005,0.072 c 0,0.15 -0.018,0.296 -0.055,0.441 L 6.431,1.579 6.38,1.655 6.341,1.717 6.284,1.821 6.195,1.93 6.113,2.018 6.025,2.075 5.947,2.148 5.827,2.2 5.687,2.231 5.646,2.247 5.519,2.248 C 5.432,2.245 5.341,2.24 5.332,2.247 L 5.043,2.18 M 3.996,5.573 3.992,5.561 3.91,5.628 l 0,-0.002 0,0 L 3.931,5.44 3.957,5.336 3.981,5.274 C 3.995,5.186 3.994,5.04 4.018,5.04 4.018,4.997 4.064,4.852 4.122,4.831 L 4.128,4.828 4.232,4.832 4.268,4.848 4.323,4.952 4.332,4.994 C 4.343,5.064 4.329,5.038 4.3,5.088 L 4.274,5.16 4.256,5.23 4.261,5.235 4.305,5.237 C 4.305,5.21 4.456,5.226 4.432,5.166 L 4.41,5.137 4.407,5.131 4.595,5.076 4.74,5.05 C 4.74,5.037 4.797,5.033 4.869,5.031 4.993,5.027 5.162,5.027 5.162,4.988 L 5.202,4.981 C 5.278,4.968 5.427,4.941 5.427,4.936 5.474,4.936 5.736,4.912 5.754,4.859 L 5.44,4.721 5.437,4.714 5.314,4.631 5.198,4.532 C 5.133,4.532 5.077,4.386 5.012,4.386 L 4.865,4.267 C 4.768,4.214 4.675,4.1 4.554,4.085 L 4.524,4.168 C 4.505,4.225 4.287,4.295 4.261,4.229 L 4.259,4.215 4.236,4.195 4.274,4.074 4.32,3.939 4.399,3.678 4.429,3.575 4.47,3.435 C 4.484,3.372 4.582,3.358 4.642,3.357 L 4.708,3.43 c 0.021,0.044 0.023,0.097 0.029,0.161 l 0.012,0.033 0.086,0.06 0.156,0.098 0.145,0.096 C 5.18,3.926 5.226,3.969 5.287,3.969 L 5.467,4.001 5.567,3.949 5.666,3.934 5.858,3.897 5.998,3.845 6.015,3.825 5.901,3.752 5.791,3.691 C 5.739,3.673 5.712,3.637 5.661,3.623 5.636,3.575 5.566,3.561 5.547,3.504 5.474,3.489 5.454,3.454 5.396,3.416 5.278,3.277 5.112,3.245 4.989,3.114 L 4.887,3.062 4.812,3.146 4.803,3.156 c -0.01,0 -0.149,0.08 -0.149,0.026 L 4.595,3.144 4.549,3.059 4.549,3.058 4.595,2.9 4.632,2.802 C 4.632,2.75 4.657,2.664 4.663,2.604 L 4.705,2.448 4.756,2.297 4.778,2.271 4.826,2.229 4.926,2.243 4.933,2.262 C 4.882,2.262 4.866,2.287 4.867,2.339 4.922,2.326 4.922,2.295 4.971,2.282 l 0,0.002 0,0 c 0.007,0.074 0.03,0.154 0.03,0.211 l 0.033,0.066 0.003,0.007 0.053,0.041 0.072,0.042 0.005,0.01 0.076,0.04 0.075,0.048 0.104,0.079 C 5.494,2.85 5.559,2.915 5.604,2.973 l 0.129,0.124 0.119,0.067 c 0.026,0.052 0.181,0.102 0.234,0.12 l 0.162,0.104 c 0.024,0.038 0.087,0.055 0.104,0.104 l 0.087,0.094 c 0.053,0.06 0.119,0.063 0.152,0.13 L 6.603,3.724 6.596,3.903 C 6.546,3.929 6.524,4.044 6.451,4.044 L 6.269,4.065 6.099,4.112 5.983,4.139 C 5.909,4.172 5.862,4.109 5.791,4.107 L 5.667,4.194 5.65,4.217 5.653,4.221 5.655,4.236 5.657,4.24 5.661,4.364 5.719,4.423 5.836,4.374 5.93,4.411 6.06,4.484 6.195,4.562 6.269,4.64 l 0,0.001 0,0 0.006,0.023 c 0.017,0.038 0.06,0.098 0.08,0.149 L 6.341,4.901 6.193,5.074 C 6.139,5.11 6.012,5.109 5.952,5.109 L 5.641,5.179 5.64,5.181 c -0.075,0 -0.145,0.031 -0.218,0.053 l -0.088,0.02 c 0,0.034 -0.232,0.053 -0.33,0.073 L 4.96,5.342 4.911,5.344 4.896,5.345 C 4.826,5.349 4.753,5.358 4.677,5.368 L 4.565,5.382 C 4.481,5.39 4.38,5.426 4.316,5.426 L 4.212,5.482 4.189,5.513 4.181,5.555 4.115,5.659 4.082,5.685 3.996,5.573 M 4.789,7.398 4.757,7.352 4.757,7.351 4.723,7.223 4.762,7.118 4.757,7.114 4.757,7.113 4.749,7.077 4.668,6.973 4.591,6.911 4.42,6.807 4.3,6.75 4.222,6.677 4.102,6.595 3.983,6.505 c -0.05,0 -0.09,-0.094 -0.14,-0.108 L 3.702,6.302 3.697,6.287 3.594,6.237 C 3.547,6.229 3.53,6.205 3.48,6.205 L 3.411,6.246 3.297,6.272 3.216,6.175 3.239,6.146 C 3.239,6.09 3.299,6.036 3.317,5.979 3.369,5.954 3.388,5.846 3.437,5.814 L 3.44,5.806 C 3.458,5.752 3.519,5.716 3.549,5.668 L 3.562,5.643 3.647,5.574 3.665,5.562 3.748,5.521 3.764,5.518 3.828,5.558 3.866,5.623 3.87,5.649 3.859,5.761 3.858,5.784 3.857,5.8 3.884,5.844 3.936,5.911 3.947,5.939 3.993,5.947 4.051,6.001 4.144,6.063 4.253,6.11 4.28,6.136 4.294,6.185 4.326,6.219 4.399,6.261 4.437,6.28 4.539,6.364 4.579,6.39 4.621,6.427 4.725,6.504 c 0.025,0.05 0.134,0.058 0.156,0.104 l 0.09,0.073 c 0.044,0 0.07,0.039 0.127,0.009 C 5.177,6.651 5.192,6.598 5.281,6.598 L 5.355,6.655 5.427,6.728 5.434,6.743 5.423,6.827 5.365,6.891 5.288,6.955 5.245,7.031 5.188,7.092 C 5.137,7.127 5.102,7.246 5.074,7.295 L 4.991,7.394 4.876,7.45 4.789,7.398 M 4.248,-0.024 4.291,0.032 4.313,0.109 C 4.315,0.192 4.223,0.242 4.15,0.242 l 0,-0.001 -0.001,0 C 4.166,0.194 4.18,0.136 4.175,0.086 L 4.102,0.096 4.108,0.109 4.123,0.148 4.119,0.232 4.08,0.19 4.001,0.096 3.998,0.085 3.916,-0.028 3.916,-0.029 3.913,-0.043 3.848,-0.159 C 3.786,-0.215 3.717,-0.293 3.681,-0.377 3.66,-0.427 3.65,-0.48 3.66,-0.533 l 0.11,-0.011 0.108,0.032 0.178,0.078 0.098,-0.053 0.062,-0.043 0.13,-0.149 0.095,-0.078 0.082,-0.052 0.082,-0.041 c 0.057,-0.025 0.103,-0.058 0.152,-0.083 0.058,0 0.189,-0.107 0.202,-0.165 -0.136,0 -0.329,-0.014 -0.45,-0.042 L 4.28,-1.203 c -0.075,0 -0.16,-0.08 -0.251,-0.033 C 3.944,-1.19 3.793,-1.197 3.7,-1.216 L 3.668,-1.22 C 3.592,-1.229 3.42,-1.247 3.403,-1.262 L 3.402,-1.264 3.397,-1.257 3.365,-1.098 3.297,-1.025 C 3.246,-1.008 3.158,-1.064 3.134,-1.111 L 3.128,-1.131 3.126,-1.139 3.12,-1.157 3.067,-1.25 3.058,-1.285 C 3.003,-1.326 2.994,-1.4 2.94,-1.436 L 2.939,-1.437 2.934,-1.453 2.785,-1.592 C 2.771,-1.6 2.734,-1.675 2.71,-1.738 2.69,-1.788 2.679,-1.832 2.694,-1.832 l 0.146,-0.063 0.079,0.048 0,0 10e-4,10e-4 -0.044,0.108 c 0.059,-0.006 0.082,-0.094 0.099,-0.094 0.042,0.077 0.149,0.073 0.224,0.073 0.017,-0.097 0.125,-0.104 0.17,-0.172 l 0.11,-0.067 0.119,-0.073 c 0.05,0 0.133,-0.091 0.166,-0.13 0.052,0 0.095,-0.093 0.146,-0.093 L 4.018,-2.367 4.164,-2.456 C 4.21,-2.487 4.227,-2.555 4.279,-2.58 l 0.026,-0.081 -0.016,-0.011 0,-0.002 -0.02,-0.055 -0.01,-0.021 0,-10e-4 -0.001,0 -0.017,-0.058 -0.004,-0.008 0,-0.002 c 0,-0.042 0.018,-0.124 0.073,-0.124 l 0.131,-0.026 0.031,0.029 0.005,0.012 0.067,0.088 0.068,0.094 0.004,0.011 0.055,0.098 10e-4,0.005 0.085,0.115 0.032,0.052 0.004,0.015 0.082,0.104 0.001,10e-4 0.004,0.014 0.034,0.06 -0.022,0.051 -0.136,0.038 C 4.694,-2.197 4.624,-2.236 4.581,-2.236 L 4.43,-2.251 c -0.06,0 -0.089,0.082 -0.146,0.098 0,0.065 -0.114,0.056 -0.14,0.094 L 4.047,-1.986 3.999,-1.939 3.931,-1.887 3.833,-1.82 3.734,-1.773 3.706,-1.764 3.81,-1.702 c 0.07,0.018 0.144,0.02 0.214,0.021 l 0.072,0.005 0.1,-0.002 0.182,0.017 0.182,0.027 c 0.058,0.016 0.183,0.036 0.254,0.036 0.055,0.005 0.118,0.021 0.182,0.021 0,0.024 0.471,0.034 0.534,0.036 l 0,10e-4 0.029,0.102 0.029,0.042 c 0.021,0.067 0.107,0.096 0.124,0.161 0.046,0.035 0.044,0.092 0.1,0.12 l 0,10e-4 0,0 c 0,0.048 0.036,0.066 0.015,0.122 L 5.724,-0.896 5.631,-0.875 5.536,-0.968 5.414,-1.022 c -0.077,-0.006 -0.153,0.045 -0.2,0.116 L 5.08,-0.797 4.966,-0.745 c -0.024,0.068 -0.11,0.106 -0.157,0.161 -0.047,0 -0.09,0.081 -0.141,0.093 l -0.135,0.079 -0.186,0.165 -0.083,0.11 -0.016,0.113 M 2.258,-2.63 2.245,-2.629 2.242,-2.637 2.256,-2.638 2.258,-2.63 M 2.443,-3.058 2.422,-3.083 2.342,-3.103 2.326,-3.077 2.28,-2.952 c 0,0.06 -0.043,0.116 -0.043,0.176 L 2.213,-2.6 C 2.266,-2.601 2.303,-2.679 2.352,-2.679 2.396,-2.745 2.497,-2.78 2.523,-2.854 L 2.424,-2.943 2.419,-2.959 2.443,-3.058 M 3.292,-2.88 3.137,-2.723 C 3.069,-2.715 3.028,-2.669 2.975,-2.625 2.917,-2.562 2.84,-2.5 2.8,-2.439 2.734,-2.406 2.703,-2.337 2.632,-2.314 L 2.524,-2.272 2.44,-2.225 2.316,-2.148 C 2.24,-2.128 2.258,-2.036 2.201,-2.017 L 2.082,-1.971 2.035,-1.986 1.957,-2.044 1.921,-2.117 1.916,-2.137 1.907,-2.144 c -0.034,-0.056 0,-0.508 0.008,-0.508 0,-0.052 0.081,-0.65 0.119,-0.65 0.011,-0.072 0.042,-0.136 0.042,-0.202 l 0.041,-0.151 c 0.049,0 0.063,-0.397 0.063,-0.447 l -0.015,-0.044 -0.058,-0.058 0,-0.002 -0.001,-0.004 -0.034,-0.056 -10e-4,-0.001 0,-10e-4 C 2.056,-4.328 2.013,-4.395 2.086,-4.461 l 0.177,0.017 c 0.11,0.036 0.163,0.158 0.275,0.187 l 0.141,0.098 0.138,0.115 0.095,0.12 L 2.907,-3.903 2.824,-3.841 2.637,-3.861 2.612,-3.872 2.53,-3.905 C 2.465,-3.912 2.49,-3.81 2.491,-3.76 c 0.003,0.081 -0.03,0.16 -0.03,0.237 l -0.021,0.074 -0.037,0.164 0.016,0.009 0.094,0.052 0.135,0.084 0.075,0.043 0.092,0.006 0.04,-0.018 0.082,-0.067 0.129,-0.1 C 3.124,-3.319 3.152,-3.361 3.224,-3.385 L 3.287,-3.421 3.284,-3.436 3.273,-3.45 3.271,-3.462 3.173,-3.56 3.14,-3.595 3.117,-3.681 C 3.098,-3.723 3.189,-3.833 3.245,-3.837 l 0.14,0.078 0.147,0.12 c 0.057,0 0.106,0.098 0.159,0.098 l 0.101,0.084 0.004,0.015 c 0.068,0.022 0.169,0.125 0.192,0.198 l 10e-4,0.001 -0.038,0.083 -0.098,0.031 c -0.046,0 -0.096,-0.029 -0.161,-0.021 l -0.079,0.021 -0.062,0.046 -0.103,0.094 c -0.053,0 -0.103,0.109 -0.156,0.109 M 2.934,8.703 2.858,8.606 2.876,8.509 3.012,8.458 3.296,8.462 c 0.09,0 0.175,-0.077 0.255,-0.103 L 3.655,8.276 3.718,8.198 3.759,8.14 3.847,7.985 C 3.858,7.927 3.884,7.895 3.884,7.834 L 3.874,7.607 3.862,7.591 3.839,7.52 3.822,7.498 C 3.796,7.421 3.718,7.346 3.657,7.29 L 3.655,7.289 3.651,7.276 3.51,7.114 3.51,7.113 3.506,7.1 3.381,7.031 3.266,6.968 3.199,6.923 3.089,6.908 C 2.982,6.912 2.908,6.926 2.809,6.932 L 2.654,7 C 2.626,7.039 2.586,7.063 2.566,7.113 L 2.529,7.186 2.507,7.228 2.439,7.461 C 2.405,7.634 2.511,7.882 2.301,7.908 l -0.11,0 C 2.173,7.854 2.131,7.834 2.113,7.778 L 2.084,7.737 2.066,7.642 2,7.52 1.996,7.507 1.998,7.449 2.071,7.32 c 0,-0.059 0.114,-0.105 0.114,-0.171 L 2.242,7.071 2.32,6.982 C 2.32,6.93 2.43,6.886 2.43,6.831 2.489,6.78 2.525,6.717 2.601,6.717 L 2.725,6.623 2.897,6.566 C 3.002,6.551 3.085,6.532 3.199,6.499 c 0.113,0 0.201,0.025 0.306,0.047 l 0.176,0.093 0.119,0.156 0.001,0.001 0.002,0.007 0.055,0.064 0,0.002 0.003,0.007 0.042,0.044 0.002,0.006 0.067,0.025 0.109,-0.016 10e-4,0.002 0.002,0.012 0.075,0.111 0,0.001 0.001,0 -0.014,0.088 0.01,0.037 0.024,0.03 0.052,0.047 0.064,0.038 -0.001,0.005 0.026,0.092 0.01,0.015 0,10e-4 10e-4,0 c 0,0.109 0.109,0.233 0.067,0.364 L 4.332,7.872 4.28,7.976 4.16,8.205 c 0,0.052 -0.103,0.227 -0.171,0.227 L 3.87,8.521 3.77,8.588 3.562,8.708 3.458,8.76 3.261,8.792 C 3.182,8.792 3.104,8.798 3.024,8.789 L 2.934,8.703 M 1.715,-4.354 c 0.023,0.052 0.038,0.109 0.026,0.191 l -0.043,0.239 -0.032,0.083 -0.067,0.12 C 1.523,-3.657 1.417,-3.576 1.328,-3.576 L 1.074,-3.467 0.82,-3.358 0.675,-3.3 0.617,-3.269 C 0.593,-3.22 0.563,-3.218 0.555,-3.157 l 0.012,0.085 c 0.036,0.074 0.13,0.116 0.21,0.122 0.069,0.005 0.08,0.01 0.129,-0.037 l 0.044,-0.05 0.061,-0.077 0.146,-0.079 c 0.055,0 0.146,-0.047 0.165,0.036 l 0.012,0.014 -0.011,0.154 c 0,0.055 -0.03,0.095 -0.03,0.146 L 1.246,-2.636 C 1.23,-2.636 1.19,-2.56 1.139,-2.555 1.087,-2.55 1.017,-2.58 1,-2.626 L 0.995,-2.646 0.974,-2.675 0.97,-2.683 0.934,-2.701 0.857,-2.677 0.788,-2.672 c -0.06,0 -0.117,-0.02 -0.176,-0.02 l -0.13,-0.053 c -0.053,0 -0.08,-0.086 -0.124,-0.109 l -0.001,-10e-4 0,0 L 0.354,-2.869 0.298,-2.959 0.295,-2.974 0.274,-3.009 0.248,-3.093 0.236,-3.108 C 0.21,-3.17 0.202,-3.421 0.238,-3.421 c 0,-0.053 0.042,-0.077 0.042,-0.125 l 0.077,-0.119 0.104,-0.089 0.073,-0.042 c 0.051,-0.006 0.114,-0.02 0.145,-0.051 L 0.783,-3.91 1.021,-4.003 c 0.1,-0.022 0.167,-0.07 0.261,-0.093 l 0.093,-0.084 0.03,-0.098 -0.004,-0.004 0,-0.001 0,-10e-4 c 0,-0.061 -0.03,-0.089 -0.036,-0.154 -0.067,-0.039 -0.102,-0.1 -0.176,-0.125 l -0.199,0.026 -0.149,0.14 -0.074,0.104 -0.05,0.068 -0.158,0.02 -0.053,-0.043 C 0.475,-4.305 0.498,-4.4 0.498,-4.444 l 0.046,-0.395 c 0,-0.052 0.089,-0.176 0.155,-0.13 0.041,0.048 0.082,0.074 0.101,0.13 l 0.009,0.068 C 0.947,-4.774 1.083,-4.81 1.223,-4.809 l 0.122,0.027 0.004,0.011 0.078,0.03 0.088,0.058 0.091,0.1 0.002,0.014 0.041,0.057 10e-4,10e-4 0.014,0.042 0.051,0.115 M 0.56,10.136 0.477,10.092 C 0.45,10.034 0.486,9.934 0.515,9.882 0.548,9.827 0.544,9.788 0.544,9.736 L 0.487,9.658 0.487,9.657 0.479,9.632 0.435,9.534 l 0,-0.001 C 0.435,9.495 0.363,9.204 0.322,9.095 L 0.3,9.056 0.3,9.054 C 0.257,8.932 0.22,8.806 0.16,8.693 l 0,-0.002 0,0 L 0.155,8.668 0.14,8.651 0.139,8.65 0.135,8.636 0.116,8.611 0.11,8.592 0.095,8.518 0.08,8.469 C 0.039,8.37 -0.027,8.386 -0.146,8.386 L -0.206,8.317 -0.209,8.301 -0.183,8.214 -0.121,8.177 0.025,8.094 C 0.025,8.053 0.331,8.029 0.331,7.969 0.395,7.957 0.436,7.907 0.498,7.907 L 0.633,7.949 0.638,7.965 C 0.6,7.965 0.531,7.986 0.529,8.037 0.577,8.036 0.6,7.991 0.654,7.99 L 0.687,8.04 0.68,8.132 0.638,8.163 C 0.574,8.183 0.597,8.223 0.529,8.227 0.473,8.232 0.476,8.291 0.491,8.334 l 0.027,0.045 0.001,0.002 0.014,0.04 C 0.557,8.477 0.587,8.536 0.609,8.595 L 0.638,8.728 0.647,8.746 0.679,8.852 0.819,8.815 C 0.909,8.806 0.964,8.748 1.049,8.748 L 1.251,8.67 1.391,8.618 1.494,8.556 1.464,8.466 1.442,8.432 1.442,8.431 1.433,8.396 C 1.414,8.345 1.376,8.266 1.365,8.266 l 0,-10e-4 L 1.36,8.241 1.323,8.173 1.314,8.165 1.292,8.062 1.239,8.012 c -0.075,0 -0.201,0.08 -0.266,0.007 L 0.908,7.94 0.902,7.902 0.9,7.898 0.913,7.829 C 0.935,7.742 1.167,7.712 1.167,7.678 1.224,7.67 1.263,7.636 1.312,7.636 L 1.438,7.569 1.598,7.522 1.858,7.533 1.882,7.584 1.885,7.607 1.853,7.658 1.77,7.783 1.714,7.91 1.718,7.919 1.786,8.054 1.791,8.08 C 1.806,8.169 1.879,8.294 1.88,8.385 l 0.013,0.017 0.018,0.051 0.019,0.03 0.001,10e-4 0.011,0.048 c 0.021,0.053 0.063,0.113 0.081,0.166 l 0,10e-4 0.018,0.093 0.008,0.013 0.02,0.024 0.007,0.023 0.01,0.012 0.012,0.051 0.005,0.008 0.033,0.135 0.008,0.007 0,0 0,0.001 0.022,0.09 0.009,0.013 0,10e-4 0.001,0 0.006,0.023 c 0.019,0.049 0.062,0.059 0.112,0.059 0,0.025 0.179,-0.005 0.2,0.063 L 2.497,9.33 C 2.679,9.512 2.291,9.57 2.169,9.627 L 2.035,9.658 c -0.132,0 -0.28,0.157 -0.428,0.116 L 1.552,9.727 1.536,9.612 1.531,9.606 1.614,9.501 c 0.059,0 0.144,-0.117 0.146,-0.18 L 1.727,9.28 1.7,9.174 1.672,9.139 l 0,-10e-4 -10e-4,0 L 1.666,9.116 1.645,9.078 1.641,9.056 1.612,9.02 1.588,8.848 C 1.508,8.854 1.438,8.917 1.37,8.917 l -0.099,0.04 c -0.075,0 -0.163,0.082 -0.254,0.094 L 0.852,9.103 C 0.798,9.142 0.801,9.159 0.801,9.216 l 0.013,0.04 0.015,0.032 0,0.002 0.006,0.017 0.022,0.029 0.005,0.02 0.007,0.011 0.013,0.067 0.006,0.008 0.028,0.129 0.018,0.024 0,10e-4 0,10e-4 0.002,0.02 c 0.029,0.092 0.242,0.079 0.242,0.103 0.041,0 0.113,0.02 0.131,0.071 l -10e-4,0.06 -0.01,0.01 C 1.28,9.913 1.29,9.92 1.233,9.934 L 1.163,9.96 C 1.083,9.98 1,10.054 0.923,10.054 L 0.56,10.136 M 2.682,4.549 2.76,4.667 2.76,4.668 2.716,4.724 2.637,4.852 2.617,4.885 2.616,4.884 C 2.529,4.671 2.494,4.416 2.597,4.192 2.607,4.13 2.682,4.179 2.659,4.114 2.714,4.049 2.811,4.091 2.886,4.066 l 0.022,0.025 -10e-4,0 0.002,0.002 C 2.779,4.164 2.76,4.339 2.652,4.449 L 2.656,4.462 2.683,4.518 2.682,4.549 M 2.962,4.18 2.91,4.32 2.855,4.459 2.836,4.519 2.835,4.518 l 0,0 L 2.821,4.454 C 2.829,4.346 2.88,4.244 2.964,4.172 l 0,0.003 L 2.965,4.173 2.962,4.18 m -0.801,-0.113 0,-0.001 C 2.206,3.939 2.173,3.778 2.2,3.671 2.183,3.603 2.203,3.567 2.186,3.509 L 2.17,3.321 C 2.161,3.241 2.096,3.143 2.161,3.105 2.249,3.166 2.304,3.247 2.337,3.337 2.392,3.487 2.387,3.663 2.381,3.821 2.355,3.85 2.298,3.853 2.31,3.904 L 2.365,3.927 C 2.468,3.888 2.465,3.771 2.526,3.71 l 0.149,0.11 0,0 0.001,0.001 C 2.685,3.879 2.662,3.928 2.643,3.976 L 2.614,3.967 C 2.487,4.057 2.316,4.115 2.161,4.067 M 1.359,0.312 1.377,0.348 1.426,0.432 C 1.444,0.48 1.452,0.531 1.462,0.582 L 1.377,0.589 1.377,0.587 1.37,0.432 1.362,0.417 l 0,-0.002 C 1.345,0.353 1.327,0.294 1.302,0.235 1.277,0.176 1.246,0.117 1.206,0.055 l 0.001,0 -0.001,-0.002 0.233,0.023 0.178,0.161 0,0.002 0.001,0 c -0.007,0.042 0.061,0.113 0,0.149 L 1.617,0.386 1.606,0.349 1.55,0.248 C 1.498,0.223 1.436,0.203 1.384,0.2 1.334,0.227 1.342,0.273 1.359,0.312 M 0.35,0.207 0.123,0.103 0.124,0.103 0.122,0.102 0.34,0.077 0.494,0.226 0.493,0.226 0.495,0.227 0.35,0.207 z m 0.624,0.637 0,-0.001 -0.001,0 0.061,-0.046 C 1.235,0.671 1.118,0.402 1.105,0.237 l 0.04,-0.055 0.077,0.117 0,0.001 0.001,0 C 1.212,0.472 1.258,0.666 1.123,0.815 1.051,0.776 1.035,0.893 0.974,0.844 M 3.147,3.305 3.195,3.386 3.196,3.387 3.166,3.462 3.159,3.501 C 3.022,3.426 2.89,3.319 2.744,3.261 L 2.721,3.277 C 2.394,3.135 2.055,2.951 1.811,2.685 1.579,2.42 1.327,2.252 1.067,2.018 0.825,1.796 0.559,1.592 0.345,1.381 l 0,-0.001 0,0 L 0.328,1.311 0.291,1.249 0.291,1.248 0.29,1.247 0.384,1.192 0.452,1.17 C 0.578,1.212 0.663,1.063 0.74,0.998 0.989,0.911 1.089,1.212 1.238,1.325 l 0.078,0.01 C 1.422,1.377 1.497,1.415 1.578,1.503 1.643,1.522 1.691,1.59 1.733,1.52 1.675,1.44 1.566,1.436 1.534,1.342 1.365,1.265 1.235,1.087 1.09,0.999 l 10e-4,0 L 1.089,0.998 C 1.151,0.979 1.203,0.949 1.268,0.985 1.362,0.988 1.41,1.114 1.501,1.047 1.464,0.935 1.332,0.921 1.284,0.815 l 0,-0.001 C 1.422,0.752 1.607,0.716 1.727,0.843 1.918,0.862 2.044,1.011 2.186,1.131 2.258,1.209 2.358,1.253 2.41,1.348 2.565,1.461 2.714,1.542 2.837,1.691 2.889,1.739 2.941,1.733 2.986,1.8 L 3.014,1.768 C 2.892,1.549 2.697,1.374 2.527,1.203 L 2.503,1.163 2.487,1.119 2.426,1.071 C 2.2,1.064 2.106,0.831 1.905,0.76 1.841,0.711 1.746,0.734 1.695,0.65 l 0,-0.001 -0.001,0 C 1.685,0.59 1.734,0.551 1.765,0.509 c 0.124,-0.123 0.25,0 0.383,0.023 0.348,0.182 0.672,0.477 0.936,0.766 L 3.085,1.299 3.113,1.386 C 3.126,1.434 3.137,1.483 3.148,1.532 3.16,1.58 3.174,1.628 3.184,1.677 3.193,1.726 3.223,1.772 3.231,1.822 3.239,1.871 3.223,1.924 3.229,1.974 3.236,2.023 3.259,2.071 3.265,2.121 L 3.282,2.211 3.203,2.174 C 3.071,2.122 2.977,1.948 2.837,1.879 l -0.029,0.023 0,0.048 0.006,0.012 c 0.168,0.142 0.269,0.276 0.389,0.45 l 0.07,0.102 0,0.001 0,0 -0.001,0.056 c 0,0.051 0.006,0.1 0.004,0.151 C 3.275,2.772 3.256,2.821 3.252,2.87 3.25,2.92 3.259,2.971 3.255,3.021 L 3.251,3.059 3.248,3.057 3.192,2.987 C 3.167,2.908 3.22,2.806 3.235,2.733 3.215,2.676 3.151,2.685 3.109,2.663 L 3.11,2.662 3.109,2.661 C 3.131,2.587 3.071,2.558 3.102,2.5 3.054,2.427 2.977,2.471 2.909,2.436 2.452,2.449 2.239,2.028 1.899,1.814 1.838,1.802 1.79,1.718 1.728,1.753 1.847,1.898 1.97,2.037 2.07,2.173 L 2.069,2.172 2.07,2.174 C 1.644,1.957 1.206,1.776 0.811,1.491 L 0.724,1.342 0.725,1.342 0.724,1.341 0.74,1.325 0.736,1.304 0.685,1.258 0.546,1.271 C 0.501,1.336 0.536,1.355 0.517,1.427 l 0.005,0.01 0,0.004 0.086,0.01 C 0.666,1.6 0.85,1.655 0.957,1.762 1.089,1.81 1.225,1.869 1.322,1.978 1.84,2.231 2.384,2.473 2.937,2.59 l 0.016,0 0.001,0.001 C 3.012,2.834 3.051,3.073 3.147,3.305 M -0.052,-0.58 c -0.075,-0.035 -0.158,0.023 -0.227,0.039 l 0.001,-0.002 -0.001,0.001 c 0.026,-0.065 0.106,-0.075 0.149,-0.11 0.139,-0.017 0.3,0.042 0.355,0.155 l 0.001,0.001 C 0.157,-0.544 0.057,-0.596 -0.052,-0.58 M -3.39,3.691 -3.365,3.635 C -3.427,3.589 -3.497,3.536 -3.525,3.461 L -3.536,3.378 c 0.047,-0.445 0.079,-0.908 0.281,-1.3 0.09,-0.132 0.207,-0.299 0.335,-0.395 L -2.923,1.65 -3.015,1.635 c -0.076,0.078 -0.239,0.06 -0.282,0.17 -0.089,0.218 -0.228,0.382 -0.274,0.617 -0.078,0.209 -0.089,0.508 -0.093,0.75 L -3.649,3.184 -3.657,3.233 -3.664,3.24 -3.718,3.127 C -3.831,2.854 -3.853,2.521 -3.828,2.281 -3.806,2.232 -3.799,2.142 -3.767,2.078 -3.743,2.01 -3.692,1.955 -3.662,1.89 -3.611,1.82 -3.377,1.507 -3.337,1.424 -3.29,1.332 -3.166,1.255 -3.028,1.1 -2.888,0.946 -2.847,0.851 -2.764,0.776 -2.685,0.703 -2.716,0.555 -2.718,0.546 -2.811,0.731 -3.072,0.891 -3.072,0.891 L -3.096,0.887 C -3.104,0.878 -3.105,0.853 -3.074,0.791 -3.012,0.668 -2.923,0.346 -2.86,0.256 c 0.061,-0.087 0.021,-0.198 0.019,-0.205 -10e-4,0 -0.132,0.106 -0.263,0.34 -0.132,0.234 -0.417,0.571 -0.51,0.772 -0.089,0.193 -0.35,0.938 -0.369,0.993 l 0.186,-0.221 0.045,-0.011 -0.001,0.001 0.001,0 c -0.057,0.083 -0.1,0.184 -0.143,0.272 -0.149,0.295 0.036,0.509 -0.007,0.822 0.007,0.132 0.043,0.275 0.093,0.403 L -3.913,3.379 C -4.055,3.288 -4.154,3.156 -4.21,3.007 -4.268,2.858 -4.282,2.691 -4.255,2.53 L -4.237,2.325 -4.279,2.318 c -0.082,0.258 -0.086,0.561 0.02,0.82 0.063,0.155 0.166,0.295 0.314,0.4 0.164,0.103 0.352,0.192 0.555,0.153 m 1.692,0.168 0.082,0.123 C -1.554,3.971 -1.502,3.951 -1.457,3.931 L -1.394,3.925 -1.315,3.845 -1.204,3.724 -1.318,3.655 C -1.38,3.621 -1.407,3.566 -1.427,3.53 L -1.428,3.529 -1.444,3.423 -1.452,3.289 -1.463,3.155 -1.522,3.301 -1.513,3.311 -1.519,3.309 -1.512,3.313 -1.585,3.242 -1.595,3.204 C -1.602,3.164 -1.6,3.116 -1.591,3.063 L -1.59,2.981 -1.514,2.789 -1.454,2.66 -1.385,2.535 -1.513,2.602 -1.601,2.718 c -0.023,0.04 -0.046,0.084 -0.065,0.132 l -0.051,0.139 c -0.012,0.046 -0.021,0.095 -0.03,0.144 -0.009,0.049 -0.019,0.097 -0.023,0.146 -0.006,0.05 -0.003,0.099 -0.003,0.148 0,0.05 0,0.099 0.006,0.147 0.004,0.051 0.01,0.1 0.022,0.146 0.012,0.05 0.027,0.097 0.047,0.139 m 2.159,0.297 c 0.021,0.036 0.036,0.109 0.103,0.119 l 0,10e-4 0.001,0 C 0.582,4.378 0.52,4.332 0.494,4.451 l 0.047,0.055 0.046,0.153 c 0.02,0.047 0.049,0.079 0.107,0.064 0,-0.157 0,-0.284 -0.005,-0.41 l -0.006,0.012 0,-0.001 0.002,-0.109 C 0.682,4.123 0.686,4.024 0.678,3.916 L 0.677,3.909 0.655,3.895 0.649,3.867 C 0.639,3.727 0.643,3.559 0.626,3.352 0.543,3.382 0.529,3.473 0.446,3.503 L 0.528,3.601 C 0.603,3.761 0.501,3.987 0.461,4.156 M 1.112,4.463 C 1.04,4.3 1.039,4.064 1.112,3.9 0.649,3.946 1.009,4.349 0.888,4.576 0.999,4.573 0.96,4.422 1.112,4.463 M -0.87,3.39 C -0.889,3.557 -0.989,3.685 -1,3.698 -0.88,3.65 -0.802,3.53 -0.782,3.436 L -0.789,3.348 C -0.81,3.292 -0.856,3.27 -0.87,3.39 m -0.139,-0.372 -0.018,-0.111 -0.085,0.008 0.001,-10e-4 -0.001,0 0.046,-0.127 -10e-4,-0.003 10e-4,0 -0.002,-10e-4 0.004,10e-4 0.049,0.02 0.014,-0.064 0.016,-0.078 0.093,-0.146 -0.127,-0.002 -0.072,0.185 0,-0.002 0,10e-4 -0.006,-0.077 -0.11,-0.13 0.017,0.126 0.007,0.05 -0.097,0.044 0.001,-0.002 -0.002,0 0.003,-0.003 -0.004,0.003 0.001,0 -0.001,10e-4 0.002,10e-4 -0.073,0.098 -0.076,0.112 c -0.017,0.038 -0.029,0.081 -0.031,0.13 l 0.104,-0.135 c 0.037,-0.038 0.082,-0.066 0.152,-0.07 l 0,10e-4 10e-4,0 -0.069,0.122 -0.05,0.131 -0.041,0.191 0.028,0.13 0.017,0.094 0.051,0.129 0.108,0.043 0.112,0.036 L -1.059,3.691 -1.119,3.619 -1.218,3.536 -1.246,3.485 -1.253,3.413 c 0.011,-0.031 0.037,0.014 0.117,-0.006 l 0.114,-0.055 c 0.023,-0.048 0.021,-0.102 0.023,-0.163 0.003,-0.055 0,-0.112 -0.01,-0.171 M -2.974,2.29 -2.899,2.194 -2.82,2.102 -2.743,2.008 -2.707,1.884 c -0.01,-0.027 -0.004,-0.083 0.009,-0.152 0.01,-0.046 0.022,-0.1 0.036,-0.151 0.014,-0.053 0.031,-0.104 0.045,-0.148 0.028,-0.085 0.061,-0.074 0.049,-0.147 L -2.573,1.266 C -2.585,1.235 -2.607,1.309 -2.661,1.391 -2.682,1.424 -2.707,1.468 -2.736,1.525 L -2.79,1.646 -2.835,1.774 -2.877,1.903 -2.914,2.035 C -2.928,2.084 -2.942,2.128 -2.952,2.167 -2.97,2.239 -2.979,2.287 -2.977,2.293 L -2.974,2.29 m 0.66,-0.635 c 0.082,-0.024 0.069,-0.026 0.164,-0.047 0.05,-0.012 0.161,-0.022 0.166,-0.014 0.026,0.054 0.122,-0.024 0.172,-0.015 0.071,0.01 0.13,0.021 0.178,0.03 0.085,0.015 0.14,0.027 0.178,0.018 L -1.449,1.624 C -1.454,1.619 -1.531,1.616 -1.598,1.579 L -1.681,1.493 -1.694,1.448 c -0.007,-0.04 0,-0.104 0.01,-0.179 L -1.624,1.117 -1.638,1.106 -1.64,1.102 c -0.006,-0.015 -0.004,-0.078 0.016,-0.187 0.012,-0.06 0.023,-0.12 0.031,-0.177 0.011,-0.064 0.02,-0.125 0.023,-0.179 0.004,-0.076 0,-0.139 -0.02,-0.175 -0.07,0.045 -0.023,0.064 -0.059,0.158 -0.017,0.046 -0.04,0.099 -0.062,0.155 -0.02,0.051 -0.077,0.144 -0.082,0.157 -0.003,0.007 -0.022,0.105 -0.043,0.155 -0.024,0.056 -0.07,0.18 -0.091,0.225 -0.032,0.068 -0.035,-0.009 -0.055,0.017 -0.03,0.04 -0.08,0.132 -0.136,0.163 -0.047,0.026 -0.101,0.048 -0.154,0.075 -0.05,0.025 -0.1,0.054 -0.148,0.086 l -0.132,0.111 c 0.063,0.1 0.076,0.013 0.238,-0.031 M -1.102,0.583 -1.181,0.51 -1.185,0.487 C -1.163,0.406 -1.118,0.338 -1.037,0.299 -0.988,0.267 -0.92,0.44 -0.913,0.326 -1.001,0.258 -1.104,0.216 -1.211,0.22 -1.262,0.319 -1.301,0.418 -1.259,0.514 l 0.074,0.096 0.077,0.009 0.006,-0.036 M -4.869,3.738 C -4.895,3.647 -4.977,3.384 -4.967,3.313 -4.921,3.258 -4.914,3.171 -4.94,3.106 -4.944,2.896 -4.979,2.65 -4.912,2.459 -4.892,2.113 -4.561,1.978 -4.519,1.641 -4.448,1.411 -4.524,1.332 -4.482,1.09 -4.265,0.87 -4.217,0.683 -3.968,0.476 -3.897,0.499 -3.916,0.311 -3.87,0.292 -3.805,0.256 -3.75,0.269 -3.669,0.263 l -0.002,0.001 0.002,0 c -0.075,0.087 -0.074,0.129 -0.116,0.233 0.023,0.087 -0.073,0.18 -0.045,0.271 L -3.779,0.751 C -3.75,0.58 -3.646,0.529 -3.558,0.39 c 0.081,-0.107 0.182,-0.201 0.237,-0.323 0.191,-0.175 0.348,-0.304 0.591,-0.392 0.207,-0.035 0.428,-0.168 0.605,-0.006 l 0.021,0.037 c 0.033,0.085 -0.025,0.179 -0.014,0.275 -0.077,-0.019 -0.142,-0.068 -0.217,-0.094 l -0.163,-0.056 -0.009,-0.022 0.11,-0.046 -0.003,-0.022 -0.051,-0.038 c -0.207,0.01 -0.324,0.155 -0.504,0.223 l -0.049,0.093 0.009,0.016 c 0.077,-0.03 0.146,-0.068 0.226,-0.087 0.133,-0.069 0.217,0.029 0.372,0.009 0.059,0.039 0.132,0.078 0.172,0.139 l 0,0.002 0.005,0.039 c 0.022,0.056 0.1,0.039 0.123,0.091 L -2.094,0.29 C -2.149,0.222 -2.379,0.202 -2.453,0.147 l -0.033,-0.03 c 0.003,0.008 0.049,0.067 0.083,0.137 0.03,0.063 0.05,0.134 0.018,0.186 -0.065,0.184 -0.02,0.254 -0.143,0.409 l -0.071,0.049 c -0.112,0.045 -0.104,0.11 -0.08,0.162 l 0.03,0.058 c 0.096,-0.069 0.435,-0.303 0.587,-0.464 l 0.045,-0.084 0,0.002 10e-4,-0.001 c -0.007,0.126 -0.055,0.263 -0.123,0.366 l -0.082,0.115 0.02,0.023 C -1.994,0.978 -1.871,0.755 -1.862,0.547 -1.869,0.46 -1.887,0.393 -1.918,0.325 l -0.037,-0.071 0,-0.001 c -0.016,-0.252 0.006,-0.518 0.116,-0.744 0.045,-0.029 0.045,-0.113 0.11,-0.133 0.032,-0.133 0.165,-0.204 0.24,-0.304 0.226,-0.165 0.579,-0.262 0.821,-0.107 l 0.026,-0.039 0.039,0 c 0.075,0.036 0.125,0.092 0.157,0.159 0.032,0.067 0.044,0.147 0.044,0.231 l 0,-0.002 0,0.001 -0.012,-0.053 c -0.04,-0.118 -0.163,-0.204 -0.282,-0.241 -0.117,0.023 -0.178,-0.08 -0.272,-0.032 -0.058,0.071 -0.225,0.036 -0.204,0.154 l 0.116,-0.023 c 0.107,0.023 0.24,0.036 0.366,0.03 0.062,0.042 0.118,0.108 0.15,0.18 l 0.028,0.132 c 0.02,0.058 -0.003,0.145 -0.03,0.194 l 0,-0.002 0,0 -0.025,-0.127 c -0.047,-0.119 -0.155,-0.211 -0.278,-0.259 -0.156,-0.023 -0.291,0.029 -0.404,0.093 l 0.001,-0.003 -0.002,0.002 0.103,-0.123 -0.054,-0.047 c -0.127,0.116 -0.278,0.271 -0.294,0.442 0.097,0.009 0.167,-0.126 0.26,-0.172 0.147,-0.084 0.322,-0.006 0.467,0.026 l 0.07,0.116 0.031,0.131 c -0.152,0.059 -0.324,-0.003 -0.472,-0.006 -0.237,0.023 -0.431,0.158 -0.567,0.349 l -0.006,0.048 0.035,0.029 c 0.055,-0.052 0.113,-0.117 0.181,-0.172 0.081,-0.042 0.168,-0.136 0.261,-0.077 l 0,0 0.002,0.001 -0.101,0.126 c 0.01,0.067 -0.101,0.125 -0.061,0.199 0.084,0.042 0.058,-0.071 0.106,-0.1 0.064,-0.019 0.12,-0.078 0.181,-0.116 0.071,-0.01 0.188,-0.023 0.256,0.029 0.117,0.04 0.168,0.107 0.196,0.185 0.028,0.078 0.034,0.167 0.06,0.25 C -0.605,0.61 -0.677,0.736 -0.803,0.782 -0.939,0.856 -1.065,0.749 -1.162,0.678 l -0.029,0.049 0.1,0.17 c 0.155,0.051 0.288,0.142 0.472,0.084 l -0.002,0.001 0.002,0 c -0.132,0.227 -0.392,0.401 -0.659,0.356 l -0.017,0.017 0.004,0.043 0.006,0.01 c 0.074,0.016 0.181,-0.003 0.223,0.046 0.178,-0.033 0.33,-0.124 0.466,-0.246 0.054,-0.107 0.116,-0.211 0.155,-0.321 l 0.032,0 0,0.001 0.001,0 C -0.431,1.012 -0.45,1.17 -0.542,1.254 l 0.006,0.052 0.017,0.008 C -0.415,1.256 -0.37,1.152 -0.292,1.081 l 0,0.002 0,0 0,0.126 c -0.085,0.259 -0.336,0.382 -0.575,0.45 -0.14,0.045 -0.372,-0.113 -0.434,0.106 -0.031,0.07 -0.171,0.094 -0.141,0.171 l 0.007,0.016 c 0.146,-0.055 0.266,-0.214 0.45,-0.162 l -0.001,10e-4 0.002,0 -0.139,0.123 0,0.032 0.048,0.022 C -0.952,1.823 -0.751,1.812 -0.609,1.702 -0.392,1.654 -0.26,1.512 -0.121,1.33 l 0,-0.022 C -0.043,1.201 0.09,1.279 0.181,1.292 l 0,10e-4 0.02,0.063 0.015,0.024 0.001,0.001 C 0.208,1.536 0.05,1.569 -0.067,1.608 L -0.075,1.66 -0.061,1.678 C 0.105,1.684 0.248,1.628 0.423,1.635 l 0.02,0.033 0.003,0.005 0.03,0.022 c 0.246,0.227 0.556,0.472 0.798,0.712 0.02,0.058 0.114,0.182 0.152,0.262 L 1.44,2.73 1.442,2.757 1.494,2.822 C 1.52,2.883 1.545,2.945 1.569,3.007 1.642,3.192 1.701,3.381 1.721,3.568 L 1.743,3.622 C 1.778,3.754 1.707,3.899 1.673,4.027 L 1.589,4.144 1.579,4.228 C 1.611,4.293 1.643,4.198 1.672,4.22 l 0,0.001 0.001,0 C 1.662,5.011 0.983,4.836 0.578,4.998 0.19,5.089 -0.221,5.202 -0.651,5.235 -0.931,5.175 -1.199,5.163 -1.47,5.175 l 0,-10e-4 C -1.491,5.109 -1.51,5.065 -1.526,5.031 L -1.575,4.93 -1.584,4.907 C -1.592,4.754 -1.592,4.706 -1.493,4.659 l 0,0.001 0,0 c 0.004,0.108 -0.01,0.25 0.022,0.34 0.02,0.054 0.056,0.089 0.123,0.089 L -1.376,5.041 c -0.06,-0.132 -0.07,-0.397 0.077,-0.479 l 0,0.002 10e-4,-0.001 C -1.326,4.65 -1.335,4.733 -1.33,4.81 l -0.014,0.025 0.025,0.077 0.012,0.056 C -1.291,5.035 -1.269,5.093 -1.25,5.141 -1.172,5.112 -1.032,5.094 -1.017,4.987 -1.095,5 -1.149,4.969 -1.166,4.931 l -0.006,-0.04 c 0.14,0.023 0.198,-0.116 0.146,-0.232 L -1.055,4.611 -1.056,4.61 c 0.234,0.023 0.173,0.337 0.216,0.033 0.284,0.007 0.384,0.072 0.718,0.186 C 0.196,4.823 -0.022,4.397 0.38,4.568 0.19,4.332 0.091,4.196 0.043,4.091 l 0,-0.001 C 0.046,4.01 0.049,3.931 0.029,3.818 -0.078,3.789 -0.137,3.833 -0.124,3.888 l 0.036,0.056 0.024,0.048 c 0.031,0.089 -0.016,0.173 0.021,0.266 l 0.054,0.077 0,0.002 C -0.007,4.569 -0.065,4.748 -0.182,4.709 -0.337,4.681 -0.578,4.59 -0.824,4.523 L -0.95,4.479 -0.991,4.493 -1.122,4.459 C -1.342,4.428 -1.529,4.433 -1.638,4.577 L -1.687,4.711 -1.735,4.703 C -1.76,4.779 -1.743,4.88 -1.736,5 -1.731,5.067 -1.77,5.148 -1.798,5.201 -1.918,5.214 -2.038,5.23 -2.162,5.247 -2.411,5.218 -2.576,5.254 -2.786,5.098 -3.013,5.001 -3.272,4.872 -3.401,4.694 l 0,0 -0.001,-0.001 C -3.311,4.615 -3.266,4.498 -3.198,4.411 -3.088,4.24 -3.139,4.001 -3.214,3.846 L -3.291,3.869 C -3.543,3.895 -3.773,3.759 -3.968,3.613 l -0.045,0.022 0.005,0.026 c 0.02,0.055 0.09,0.077 0.118,0.122 0.132,0.091 0.265,0.162 0.404,0.25 l -10e-4,0 0.002,10e-4 -0.243,0.1 C -3.935,4.156 -4.187,4.063 -4.34,3.885 l -0.054,0.023 0.016,0.039 c 0.05,0.088 0.145,0.143 0.216,0.208 0.265,0.111 0.528,0.136 0.783,-0.022 l -0.002,0.002 0.002,-10e-4 c -0.08,0.188 -0.304,0.233 -0.479,0.288 -0.054,0.029 -0.173,-0.01 -0.193,0.068 l 0.128,0.025 c 0.224,-0.056 0.48,-0.026 0.632,-0.26 L -3.293,4.259 -3.291,4.257 C -3.34,4.48 -3.534,4.671 -3.758,4.733 -3.816,4.758 -3.918,4.704 -3.944,4.777 l 0.07,0.01 c 0.124,0.069 0.323,-0.078 0.392,0.055 l 0.013,0.03 C -3.556,4.924 -3.66,4.937 -3.758,4.943 -3.99,4.904 -4.207,4.804 -4.333,4.594 l 0,-0.001 0,-0.001 -10e-4,-0.037 C -4.352,4.487 -4.473,4.526 -4.527,4.484 L -4.556,4.449 C -4.566,4.412 -4.532,4.366 -4.558,4.315 -4.647,4.24 -4.709,4.148 -4.756,4.048 -4.803,3.948 -4.837,3.842 -4.869,3.738"
           id="path6207"
           style="fill:#ffffff;fill-opacity:1;fill-rule:nonzero;stroke:none" />
      </g>
    </g>
  </g>
</svg>
