<?xml version="1.0" encoding="utf-8"?>
<!DOCTYPE svg PUBLIC "-//W3C//DTD SVG 20010904//EN" "http://www.w3.org/TR/2001/REC-SVG-20010904/DTD/svg10.dtd">
<svg version="1.0" xmlns="http://www.w3.org/2000/svg" width="900px" height="900px" viewBox="0 0 900 900" preserveAspectRatio="xMidYMid meet">
 <g fill="#fcba1f">
  <path d="M0 450 l0 -450 450 0 450 0 0 450 0 450 -450 0 -450 0 0 -450z m480.6 341 c45 -3.6 100.1 -14.6 122.1 -24.6 1.7 -0.8 3.5 -1.4 4 -1.4 0.9 0 18.5 -8.8 31.1 -15.7 15.3 -8.2 34.2 -22.1 46.5 -34.1 25.1 -24.6 41.4 -54.2 48 -87.2 6.6 -32.8 7.2 -44.4 5.4 -101.5 -1.2 -37 -2.6 -90 -4.2 -155.5 -0.8 -34.4 -1.9 -78 -2.5 -97 -0.5 -19 -1.2 -44.4 -1.5 -56.5 -0.3 -12.1 -1 -29.4 -1.5 -38.5 -0.5 -9.1 -1.2 -22.5 -1.6 -29.8 -0.8 -14.9 -0.6 -14.6 -9.2 -17.6 -4.2 -1.5 -4.2 -1.5 -3.8 0.7 1.2 5.6 2.7 50.3 6.1 182.2 1.7 65.6 3.9 149 5.6 210.8 1 37.5 0.9 43.2 -0.6 56.9 -5.4 47.8 -17 77.7 -41.8 107.5 -29 34.8 -80.5 63.9 -135.2 76.3 -31.5 7.1 -66.7 11.7 -97 12.6 -43.5 1.4 -86.9 -4.5 -115.2 -15.7 -11 -4.3 -11.3 -4.4 -6.8 -1.4 6.4 4.1 20.1 10.4 31.9 14.7 35.1 12.6 79.3 18 120.2 14.8z m-2.6 -28.5 c33.2 -3.8 67.2 -10.6 90.1 -17.9 35.1 -11.2 73.3 -34.4 96 -58.4 25.9 -27.3 38.9 -56.4 45.5 -101.7 1.9 -13.8 2 -27.7 0.4 -88 -0.5 -22 -1.5 -58.7 -2 -81.5 -0.6 -22.8 -1.5 -56.8 -2 -75.5 -0.5 -18.7 -1.4 -52.4 -2 -75 -2.1 -80.4 -4.4 -138.2 -5.7 -139.5 -1.3 -1.4 -144.7 1.1 -146.2 2.5 -0.2 0.2 1.1 12.9 2.8 28.2 1.7 15.3 3.1 29.3 3.1 31.1 l0 3.2 -7.6 0 -7.7 0 -5.8 -6.4 c-3.3 -3.5 -10.1 -9.8 -15.1 -13.9 -25.4 -20.5 -49.3 -30.8 -87.8 -37.9 -11 -2 -15.7 -2.3 -39.5 -2.3 -23.3 0 -29.1 0.3 -42 2.3 -42.2 6.5 -75.7 17.8 -103.1 34.8 -48.9 30.2 -76.6 67.3 -89.4 119.6 -4.1 16.9 -5.3 29.3 -4.7 49.7 0.5 18.9 1.8 27.9 7.1 49.1 7.4 29.3 23.4 67.1 39 91.8 38.9 61.6 98.7 97.3 171.3 102.3 46.4 3.2 97 -6.7 136.3 -26.6 24.7 -12.6 41.9 -27.4 55.6 -48.1 l7.6 -11.4 7.2 0 7.2 0 2 27.8 c2.6 37.4 2.6 76.6 0.1 87.7 -5.9 25.6 -21.6 50.2 -39.9 62.7 -23.4 15.8 -62.8 23.5 -102.1 19.9 -36.6 -3.4 -60.4 -17.3 -75.6 -44.3 -1.8 -3.2 -3.7 -5.8 -4.2 -5.8 -7.6 0 -114.8 19.5 -116.5 21.2 -0.9 1 12.2 25.5 17.4 32.4 6 7.9 18.2 20.5 25.7 26.5 29.8 23.8 71.8 38.6 121 42.8 14.5 1.3 46.6 0.5 63.5 -1.4z m-45 -157 c38.8 -3.4 74.5 -13.4 101.8 -28.5 5 -2.7 9.5 -5 10.1 -5 0.5 0 1.1 -0.3 1.3 -0.8 0.3 -0.8 10.5 -8.2 11.3 -8.2 0.3 0 2.8 -2.2 5.7 -5 2.9 -2.7 5.8 -5 6.5 -5 0.6 0 1.9 -1 2.8 -2.2 1.3 -1.9 1.4 -4.1 0.9 -12.8 -1.1 -16.4 -1 -16.3 -7.3 -8.6 -26 31.4 -77.9 55 -136.7 62.3 -19.7 2.4 -65.6 2.4 -80.7 0 -22.1 -3.5 -39.5 -8.1 -54.1 -14.3 -4.4 -1.9 -8.1 -3.2 -8.3 -3 -0.2 0.2 6.5 3.8 14.9 8 40.4 20 82.7 27.5 131.8 23.1z"/>
  <path d="M413.5 492.3 c-18.8 -2.4 -37.2 -10 -54.5 -22.6 -7.5 -5.5 -22.6 -20.8 -28.2 -28.7 -15.6 -22 -27.8 -54.5 -32.3 -85.9 -2 -14.1 -2 -43.8 0.1 -55.6 4 -23.2 14.3 -42.5 31.2 -58.6 13.2 -12.7 27.3 -21 45.2 -26.7 19.6 -6.3 30.3 -7.6 60 -7.6 21.6 0 25.7 0.3 34.9 2.3 47.1 10.1 80.8 41.6 95.5 89.1 7.3 23.9 10.7 53.3 8.8 76.3 -1.9 22.2 -5.3 35 -13.8 51.5 -16.3 31.7 -45.7 54.5 -81 62.7 -13.8 3.2 -26.7 4.5 -44.9 4.3 -9.9 0 -19.3 -0.3 -21 -0.5z m-79 -83.8 c-2.4 -7.2 -5.6 -18.6 -7 -25.5 -5 -23.7 -4.4 -64.4 1 -75.4 0.8 -1.6 1.5 -3.6 1.5 -4.5 0 -1.7 6.3 -14.6 10.6 -21.9 2.7 -4.4 19.2 -22.2 20.7 -22.2 0.4 0 1.3 -0.5 2 -1 5.7 -4.8 8.2 -6.4 16.1 -10.4 10.8 -5.3 19.4 -8.3 29.6 -10.2 4.1 -0.8 10.2 -1.9 13.5 -2.6 3.3 -0.6 15.9 -1.2 28 -1.2 23.5 -0.1 33.2 0.9 46.5 5 9.6 2.9 7.4 1 -6.5 -5.6 -17.5 -8.4 -30.7 -11.7 -51 -12.7 -23.8 -1.2 -53.7 4.3 -71 12.9 -15.5 7.8 -30.2 20 -39 32.3 -4.9 6.9 -11.5 19.8 -13.8 27 -8.5 26.6 -5.6 61.1 8.5 99 3.7 10.1 13.6 31 14.3 30.3 0.2 -0.2 -1.6 -6.2 -4 -13.3z"/>
 </g>
 <g fill="#ffffff">
  <path d="M411.5 766.9 c-33.4 -2.8 -66.7 -11.4 -90.5 -23.4 -8.7 -4.4 -23.4 -13.7 -30.5 -19.4 -7.5 -6 -19.7 -18.6 -25.7 -26.5 -5.4 -7.2 -16 -27.2 -18.6 -35.2 l-1 -3.1 15.1 -3.2 c32.3 -6.6 109.4 -19.9 110.1 -18.9 0.2 0.2 1.8 3 3.6 6.3 8.1 14.7 21.2 27.4 35.5 34.5 36 17.8 102.6 13 136.3 -9.8 18.3 -12.5 34 -37.1 39.9 -62.7 2.5 -10.9 2.4 -44.9 -0.1 -81.7 l-2 -27.8 -4.2 0 -4.2 0 -7.6 11.4 c-8.9 13.4 -21.4 26.4 -34 35.3 -18.4 13.1 -46.4 25.2 -73 31.7 -18.7 4.6 -31.3 6.4 -53.9 7.7 -81.1 4.9 -148 -23.3 -193.7 -81.7 -22.9 -29.2 -43.7 -72.8 -53.6 -112.4 -5.6 -22.5 -6.6 -30 -7.1 -52.2 -0.6 -23.6 0.5 -35.3 4.7 -52.6 12.8 -52.3 40.5 -89.4 89.4 -119.6 27.4 -17 60.9 -28.3 103.1 -34.8 13.2 -2 18.6 -2.3 45 -2.3 27 0 31.3 0.2 42.5 2.3 38.5 7.1 62.4 17.4 87.8 37.9 5 4.1 11.8 10.4 15.1 13.9 5.6 6.1 6.1 6.4 10.5 6.4 2.5 0 4.6 -0.1 4.6 -0.2 0 -0.2 -1.6 -14.2 -3.5 -31.2 -1.9 -17.1 -3.3 -31.1 -3.2 -31.2 1.2 -1.1 130.9 -3.7 143.4 -2.8 l10 0.7 0.7 10.1 c1.3 21.1 2.6 53.5 3.6 91.1 1.1 42.4 1.8 67.4 2.5 91.5 0.2 8.5 0.7 26.3 1 39.5 0.3 13.2 0.8 31 1 39.5 0.3 8.5 1 35.5 1.5 60 0.6 24.5 1.4 59.4 1.9 77.7 0.6 19.6 0.6 37 0.1 42.5 -5 51.9 -18.5 85.2 -46.9 115 -22.7 24 -60.9 47.2 -96 58.4 -22.9 7.3 -56.5 14 -90.1 17.9 -16.4 1.9 -54.5 2.7 -69.5 1.4z m48 -278.4 c18.8 -2.6 30.5 -6.1 44 -12.7 23.4 -11.6 42.1 -30 53.9 -53 8.2 -16.1 11.7 -28.8 13.7 -49.9 1.9 -19.8 -1.6 -48.9 -8.7 -71.9 -14.7 -47.5 -48.5 -79 -95.5 -89.1 -8.9 -1.9 -13.5 -2.3 -31.9 -2.3 -26.5 0 -38 1.5 -57 7.6 -17.9 5.7 -32 14 -45.2 26.7 -22.8 21.7 -32.8 47 -32.8 82.7 0 23 3.5 43.3 11.4 65.9 9.9 28.5 19.1 44 36.1 61.1 20.3 20.5 43.4 32.4 69 35.7 7.7 1 34 0.5 43 -0.8z"/>
 </g>
 <g fill="#d79d21">
  <path d="M428 793.8 c-42.5 -3.2 -81.4 -15.3 -111.1 -34.6 -13 -8.5 -34 -26.4 -32.6 -27.8 0.2 -0.2 5.5 3 11.8 7.2 31.9 21.3 71.4 33.4 119.3 36.5 37.1 2.4 84.7 -2.1 129.1 -12.1 45.5 -10.4 90.7 -33.1 120.5 -60.7 27.3 -25.3 44.7 -57 52.3 -95.8 5.9 -29.9 6.1 -35 4.2 -100 -0.3 -9.3 -1.2 -42.6 -2 -74 -4.7 -181.7 -5.6 -214.9 -6.5 -243 -0.6 -17 -1.5 -38.1 -2.1 -46.8 -0.5 -8.6 -0.7 -16.2 -0.4 -16.7 0.3 -0.5 3.5 0.2 7.3 1.6 11.7 4.4 10.7 1.9 12.1 28.6 0.7 12.8 1.6 30.1 2.1 38.3 0.5 8.3 0.9 23.8 1 34.5 0 10.7 0.3 23.1 0.5 27.5 0.3 4.4 1.4 45.6 2.5 91.5 1.9 77.2 2.9 114.8 4.8 174.5 0.9 29.2 0.9 72.8 0 78.1 -3.2 18.5 -5.2 29.2 -6.9 36.9 -2 9.4 -2.2 10 -3.2 12.5 -0.3 0.8 -1.8 4.6 -3.2 8.5 -8.5 23 -29.1 51.4 -50 68.7 -10.4 8.7 -26.4 19.6 -36.7 25.1 -12.6 6.9 -30.2 15.7 -31.1 15.7 -0.5 0 -2.3 0.6 -4 1.4 -11.5 5.2 -43.9 13.7 -66.8 17.5 -44.8 7.5 -76.8 9.5 -110.9 6.9z"/>
  <path d="M387 609.3 c-52.9 -3.7 -102.6 -24.5 -137.7 -57.7 -5.1 -4.9 -9.2 -9.1 -8.9 -9.3 0.3 -0.3 3.1 1.5 6.3 3.9 21.1 16 51.3 30.4 78.3 37.2 6.7 1.7 16.9 3.7 26.7 5.3 14.9 2.3 55.3 2.3 74.7 -0.1 51 -6.2 95.2 -23.9 124.3 -49.8 7.8 -6.9 18.9 -19.4 21.4 -23.9 0.6 -1.2 1.5 -1.7 1.9 -1.3 0.5 0.5 1.4 9.1 2.1 19.1 1.1 16.6 1.1 18.4 -0.5 20.7 -0.9 1.4 -2.2 2.6 -2.9 2.6 -0.6 0 -3.6 2.3 -6.5 5 -2.9 2.8 -5.4 5 -5.7 5 -0.8 0 -11 7.4 -11.3 8.2 -0.2 0.5 -0.8 0.8 -1.3 0.8 -0.6 0 -5.1 2.3 -10.1 5 -19.5 10.7 -47.5 20.2 -73.8 25 -21.8 3.9 -55.6 5.8 -77 4.3z"/>
  <path d="M352.7 446.3 c-14.7 -15.1 -22.9 -28.6 -31.5 -51.8 -9.4 -25.3 -13.2 -44.8 -13.2 -68 0 -22.1 2.5 -34.5 10.3 -50 9.8 -19.8 25.6 -35.4 46.7 -46 28.4 -14.3 79.8 -17.7 112 -7.4 11 3.5 26.1 11.3 34.7 17.8 7.8 5.8 16.8 14.9 15.9 15.8 -0.2 0.3 -3.5 -1.3 -7.3 -3.5 -13.2 -7.6 -26.9 -12.6 -42.3 -15.4 -9.2 -1.6 -43.9 -1.6 -52.5 0 -3.3 0.7 -9.4 1.8 -13.5 2.6 -10.2 1.9 -18.8 4.9 -29.6 10.2 -7.9 4 -10.4 5.6 -16.1 10.4 -0.7 0.5 -1.6 1 -2 1 -1.5 0 -18 17.8 -20.7 22.2 -4.3 7.3 -10.6 20.2 -10.6 21.9 0 0.9 -0.7 2.9 -1.5 4.5 -5.3 10.8 -5.9 46 -1 69.4 4.8 23.1 15.1 49.8 25 64.9 2.6 3.9 4.5 7.4 4.3 7.7 -0.3 0.2 -3.5 -2.6 -7.1 -6.3z"/>
 </g>
</svg>