<?xml version="1.0" encoding="UTF-8" standalone="no"?>
<svg
   xmlns:dc="http://purl.org/dc/elements/1.1/"
   xmlns:cc="http://creativecommons.org/ns#"
   xmlns:rdf="http://www.w3.org/1999/02/22-rdf-syntax-ns#"
   xmlns:svg="http://www.w3.org/2000/svg"
   xmlns="http://www.w3.org/2000/svg"
   viewBox="0 0 1154.2267 105.89333"
   height="105.89333"
   width="1154.2267"
   xml:space="preserve"
   id="svg2"
   version="1.1"><metadata
     id="metadata8"><rdf:RDF><cc:Work
         rdf:about=""><dc:format>image/svg+xml</dc:format><dc:type
           rdf:resource="http://purl.org/dc/dcmitype/StillImage" /></cc:Work></rdf:RDF></metadata><defs
     id="defs6"><clipPath
       id="clipPath44"
       clipPathUnits="userSpaceOnUse"><path
         style="clip-rule:evenodd"
         id="path42"
         d="m 2800.27,17.1836 -679.68,-3.9375 c -25.22,-0.1445 -45.85,19.7461 -45.85,44.2031 V 728.867 c 0,24.457 20.63,44.59 45.85,44.735 l 679.68,3.937 c 25.22,0.145 45.86,-19.746 45.86,-44.207 V 61.918 c 0,-24.4571 -20.64,-44.5899 -45.86,-44.7344 z" /></clipPath><clipPath
       id="clipPath54"
       clipPathUnits="userSpaceOnUse"><path
         style="clip-rule:evenodd"
         id="path52"
         d="M 4240.32,17.4492 H 2974.81 c -24.46,0 -44.47,20.0117 -44.47,44.4688 v 671.414 c 0,24.461 20.01,44.473 44.47,44.473 h 1265.51 c 24.46,0 44.47,-20.012 44.47,-44.473 V 61.918 c 0,-24.4571 -20.01,-44.4688 -44.47,-44.4688 z" /></clipPath></defs><g
     transform="matrix(1.3333333,0,0,-1.3333333,0,105.89333)"
     id="g10"><g
       transform="scale(0.1)"
       id="g12"><path
         id="path14"
         style="fill:#969db6;fill-opacity:1;fill-rule:evenodd;stroke:none"
         d="M 1930.38,0 H 924.469 C 900.012,0 880,20.0117 880,44.4688 V 749.766 c 0,24.457 20.012,44.468 44.469,44.468 H 1930.38 c 24.46,0 44.47,-20.011 44.47,-44.468 V 44.4688 C 1974.85,20.0117 1954.84,0 1930.38,0" /><path
         id="path16"
         style="fill:#e964b9;fill-opacity:1;fill-rule:evenodd;stroke:none"
         d="M 4240.32,0 H 2974.81 c -24.46,0 -44.47,20.0117 -44.47,44.4688 V 749.766 c 0,24.457 20.01,44.468 44.47,44.468 h 1265.51 c 24.46,0 44.47,-20.011 44.47,-44.468 V 44.4688 C 4284.79,20.0117 4264.78,0 4240.32,0" /><path
         id="path18"
         style="fill:#a9a9a7;fill-opacity:1;fill-rule:evenodd;stroke:none"
         d="M 5418.16,0 H 4408.14 c -24.46,0 -44.47,20.0117 -44.47,44.4688 V 749.766 c 0,24.457 20.01,44.468 44.47,44.468 h 1010.02 c 24.45,0 44.47,-20.011 44.47,-44.468 V 44.4688 C 5462.63,20.0117 5442.61,0 5418.16,0" /><path
         id="path20"
         style="fill:#e4684f;fill-opacity:1;fill-rule:evenodd;stroke:none"
         d="m 6448.89,0 h -863.35 c -24.46,0 -44.47,20.0117 -44.47,44.4688 V 749.766 c 0,24.457 20.01,44.468 44.47,44.468 h 863.35 c 24.45,0 44.47,-20.011 44.47,-44.468 V 44.4688 C 6493.36,20.0117 6473.34,0 6448.89,0" /><path
         id="path22"
         style="fill:#94995f;fill-opacity:1;fill-rule:evenodd;stroke:none"
         d="M 7661.23,0 H 6634.81 c -24.46,0 -44.47,20.0117 -44.47,44.4688 V 749.766 c 0,24.457 20.01,44.468 44.47,44.468 h 1026.42 c 24.46,0 44.47,-20.011 44.47,-44.468 V 44.4688 C 7705.7,20.0117 7685.69,0 7661.23,0" /><path
         id="path24"
         style="fill:#bf9e3a;fill-opacity:1;fill-rule:evenodd;stroke:none"
         d="m 8612.22,0 h -777.41 c -24.46,0 -44.47,20.0117 -44.47,44.4688 V 749.766 c 0,24.457 20.01,44.468 44.47,44.468 h 777.41 c 24.46,0 44.47,-20.011 44.47,-44.468 V 44.4688 C 8656.69,20.0117 8636.68,0 8612.22,0" /><path
         id="path26"
         style="fill:#b69e7d;fill-opacity:1;fill-rule:evenodd;stroke:none"
         d="m 2801.66,0 h -685.58 c -24.46,0 -44.47,20.0117 -44.47,44.4688 V 749.766 c 0,24.457 20.01,44.468 44.47,44.468 h 685.58 c 24.46,0 44.47,-20.011 44.47,-44.468 V 44.4688 C 2846.13,20.0117 2826.12,0 2801.66,0" /><path
         id="path28"
         style="fill:#36416a;fill-opacity:1;fill-rule:nonzero;stroke:none"
         d="M 1810.12,743.379 V 460.414 h -17.74 c -58.85,100.242 -151.77,259.359 -359.55,259.359 -256.45,0 -266.72,-243.199 -266.72,-361.05 0,-162.094 20.6,-306.6332 263.74,-306.6332 64.86,0 185.73,22.1133 200.49,79.7112 v 165.012 l -51.58,54.496 h -107.57 v 23.711 h 502.54 v -23.711 h -92.86 l -66.32,-55.954 V 137.633 c 0,-13.305 4.41,-27.945 11.79,-45.6877 l -8.81,-8.75 c -7.41,7.293 -20.66,11.7266 -41.31,11.7266 -79.56,0 -207.85,-66.2813 -372.86,-66.2813 -288.86,0 -434.794,178.2544 -434.794,338.8904 0,249.082 234.364,375.848 456.914,375.848 116.4,0 218.11,-53.07 278.53,-53.07 51.55,0 75.12,32.504 89.98,53.07 h 16.13" /><path
         id="path30"
         style="fill:#595b5d;fill-opacity:1;fill-rule:nonzero;stroke:none"
         d="m 4588.67,655.254 -61.12,62.668 h -96.79 v 23.848 h 421.71 v -23.848 h -38.77 l -46.17,-47.785 V 389.996 l 292.05,219.086 -78.92,108.84 h -55.17 v 23.848 h 482.82 v -23.848 h -128.13 l -266.77,-190.742 260.82,-389 56.68,-59.598 h 98.31 V 54.7031 H 4967.23 V 78.582 h 80.5 l 16.35,71.566 -189.23,278.61 -107.32,-84.922 V 130.707 l 49.21,-52.125 h 71.45 V 54.7031 H 4430.76 V 78.582 h 99.82 l 58.09,59.598 v 517.074" /><path
         id="path32"
         style="fill:#d81e27;fill-opacity:1;fill-rule:nonzero;stroke:none"
         d="m 5760.95,656.59 -69.47,61.941 h -101.04 v 23.965 h 842.01 l 10.57,-262.641 h -24.18 l -174.98,238.676 h -238.49 l -55.81,-57.445 V 436.23 h 110.12 l 135.79,156.993 h 18.08 v -338.09 h -18.08 l -137.34,152.48 H 5949.56 V 126.938 l 49.7,-55.8911 h 229.51 L 6427.89,312.488 H 6446 V 46.8633 h -855.56 v 24.1836 h 110.15 l 60.36,61.8481 V 656.59" /><path
         id="path34"
         style="fill:#41421b;fill-opacity:1;fill-rule:nonzero;stroke:none"
         d="m 6998.02,425.781 c 197.76,0 356.21,0 356.21,150.977 0,70.902 -27.16,141.863 -160.03,141.863 h -123.76 l -72.42,-57.351 z m -181.11,230.992 -69.57,61.848 h -110.15 v 24.18 h 611.32 c 128.35,0 307.91,-21.324 307.91,-167.5 0,-122.422 -166.01,-143.504 -250.49,-153.895 -69.45,-9.297 -80.08,-10.754 -80.08,-25.73 0,-28.692 64.95,-51.414 182.66,-51.414 l 58.94,-199.094 c 18.13,-58.9336 55.8,-74.1211 70.93,-74.1211 h 51.31 V 46.8633 h -283.76 l -90.56,280.8127 c -10.57,31.777 -43.71,73.863 -120.75,73.863 h -96.6 V 126.938 l 63.37,-55.8911 h 98.06 V 46.8633 h -522.26 v 24.1836 h 119.21 l 60.51,61.8481 v 523.878" /><path
         id="path36"
         style="fill:#d63b3e;fill-opacity:1;fill-rule:evenodd;stroke:none"
         d="M 756.684,0 H 44.4688 C 20.0117,0 0,20.0117 0,44.4688 V 749.766 c 0,24.457 20.0117,44.468 44.4688,44.468 H 756.684 c 24.461,0 44.472,-20.011 44.472,-44.468 V 44.4688 C 801.156,20.0117 781.145,0 756.684,0" /><g
         id="g38"><g
           clip-path="url(#clipPath44)"
           id="g40"><path
             id="path46"
             style="fill:#774f1b;fill-opacity:1;fill-rule:nonzero;stroke:none"
             d="M 2567.76,289.34 2450.2,562.633 c -1.49,1.609 -4.37,4.344 -8.81,4.344 -4.37,0 -7.35,-1.457 -11.72,-7.231 L 2276.84,289.34 Z m 73.52,-173.399 -57.36,141.079 h -324.67 l -41.2,-72.055 54.35,-113.1291 h 54.38 V 48.3242 H 2037.4 v 23.5117 c 48.39,13.3047 95.48,41.1911 126.22,95.5081 l 329.17,576.035 h 72.03 l 257.14,-602.465 c 29.35,-69.0781 114.65,-69.0781 142.5,-69.0781 V 48.3242 h -461.34 v 23.5117 h 104.29 l 33.87,44.1051" /></g></g><g
         id="g48"><g
           clip-path="url(#clipPath54)"
           id="g50"><path
             id="path56"
             style="fill:#db048c;fill-opacity:1;fill-rule:nonzero;stroke:none"
             d="m 2916.6,742.195 h 477.84 v -23.664 h -92.02 l -44.44,-72.726 170.6,-369.465 c 2.95,-4.559 5.9,-8.992 8.87,-8.992 4.5,0 5.96,4.433 7.45,8.992 l 200.31,465.855 h 62.27 L 3909.4,268.863 c 1.46,-4.433 7.35,-8.867 10.33,-8.867 3,0 7.41,4.434 8.93,8.867 l 157.24,314.641 -111.25,135.027 h -93.44 v 23.664 h 442.18 v -23.664 h -84.6 L 4115.66,578.914 3842.63,40.3047 h -34.18 L 3606.72,521.047 c -1.55,4.375 -7.48,9.051 -11.97,9.051 -4.44,0 -8.93,-3.098 -11.85,-9.051 L 3385.6,40.3047 h -40.13 l -267.08,575.7613 -86.06,102.465 h -75.73 v 23.664" /></g></g></g></g></svg>