<?xml version="1.0" encoding="UTF-8" standalone="no"?>
<svg
   data-name="Capa 2"
   viewBox="0 0 45.869001 54.406321"
   version="1.1"
   id="svg16"
   sodipodi:docname="Logo_Iberdrola_compacto_(2023).svg"
   width="45.868999"
   height="54.406319"
   inkscape:version="1.1.1 (3bf5ae0d25, 2021-09-20)"
   xmlns:inkscape="http://www.inkscape.org/namespaces/inkscape"
   xmlns:sodipodi="http://sodipodi.sourceforge.net/DTD/sodipodi-0.dtd"
   xmlns="http://www.w3.org/2000/svg"
   xmlns:svg="http://www.w3.org/2000/svg">
  <sodipodi:namedview
     id="namedview18"
     pagecolor="#ffffff"
     bordercolor="#666666"
     borderopacity="1.0"
     inkscape:pageshadow="2"
     inkscape:pageopacity="0.0"
     inkscape:pagecheckerboard="0"
     showgrid="false"
     fit-margin-top="0"
     fit-margin-left="0"
     fit-margin-right="0"
     fit-margin-bottom="0"
     inkscape:zoom="6.6537584"
     inkscape:cx="-7.4394044"
     inkscape:cy="43.358953"
     inkscape:window-width="1920"
     inkscape:window-height="1017"
     inkscape:window-x="-8"
     inkscape:window-y="-8"
     inkscape:window-maximized="1"
     inkscape:current-layer="svg16" />
  <defs
     id="defs4">
    <style
       id="style2">.cls-3{fill:#00a443}</style>
  </defs>
  <path
     class="cls-3"
     d="m 0,45.368676 h 1.3023678 v 8.800848 H 0 Z m 7.3406179,2.723132 c -0.4341226,-0.27626 -0.9471766,-0.434122 -1.4996961,-0.434122 -0.4735884,0 -0.8682452,0.07893 -1.2234364,0.27626 -0.3157255,0.197328 -0.6314509,0.473589 -0.8287793,0.789314 -0.039466,0.07893 -0.078932,0.118397 -0.118397,0.197328 V 45.368676 H 2.4468726 v 8.800848 H 3.6703091 V 53.02502 c 0.039466,0.07893 0.078932,0.118396 0.118397,0.197328 0.1973284,0.315726 0.4735881,0.591986 0.8287793,0.789314 0.3551912,0.197328 0.749848,0.27626 1.2234364,0.27626 0.3946569,0 0.7893138,-0.07893 1.1445049,-0.236794 0.3551912,-0.157864 0.6709168,-0.394658 0.9077108,-0.670918 0.2762599,-0.315724 0.4735883,-0.670916 0.631451,-1.065572 0.1578628,-0.434124 0.2367942,-0.868246 0.2367942,-1.341834 0,-0.670917 -0.1183971,-1.223437 -0.3946569,-1.736491 C 8.1693974,48.802191 7.7747405,48.407535 7.3406179,48.091808 Z m 0.039466,3.828172 c -0.078932,0.27626 -0.236794,0.513055 -0.3946568,0.710383 -0.1578627,0.197329 -0.3946569,0.355191 -0.5919854,0.434123 -0.2367941,0.118396 -0.5130539,0.157862 -0.7893137,0.157862 -0.5525196,0 -1.026108,-0.197328 -1.3812991,-0.591985 -0.3551912,-0.394658 -0.5525196,-0.947177 -0.5525196,-1.618093 0,-0.315726 0.039466,-0.631451 0.1578627,-0.947177 0.078932,-0.236794 0.2367942,-0.473588 0.3946567,-0.710382 0.1578628,-0.197328 0.3946569,-0.355192 0.5919853,-0.434123 0.2367942,-0.07893 0.513054,-0.157863 0.7498481,-0.157863 0.5525197,0 1.0261079,0.197329 1.3812991,0.591986 0.3551912,0.394656 0.5525197,0.947176 0.5525197,1.618093 0.039466,0.355191 -0.039466,0.670916 -0.118397,0.947176 z m 6.5513041,-3.828172 c -0.473588,-0.27626 -0.986642,-0.434122 -1.539162,-0.394657 -0.434123,0 -0.828779,0.07893 -1.223435,0.236795 -0.355193,0.157862 -0.710383,0.394657 -0.986643,0.670917 -0.27626,0.315725 -0.5130541,0.670916 -0.6314512,1.065572 -0.1578625,0.434124 -0.2367941,0.907713 -0.2367941,1.3813 0,0.670917 0.1183976,1.262903 0.3946572,1.736491 0.2367941,0.473588 0.6314501,0.90771 1.1050381,1.18397 0.473589,0.27626 1.065575,0.434123 1.618093,0.434123 0.355192,0 0.710384,-0.03946 1.065575,-0.157863 0.355191,-0.118398 0.670916,-0.27626 0.947176,-0.513054 0.315725,-0.27626 0.55252,-0.591986 0.749848,-0.90771 l -0.947176,-0.591987 c -0.118397,0.236795 -0.27626,0.473589 -0.473588,0.631452 -0.197329,0.157863 -0.394657,0.276259 -0.631451,0.355191 -0.236794,0.07893 -0.473589,0.118397 -0.749849,0.118397 -0.355191,0 -0.670917,-0.07893 -0.986641,-0.236794 -0.27626,-0.197329 -0.513054,-0.434122 -0.670918,-0.749848 -0.07893,-0.394657 -0.157863,-0.749848 -0.157863,-1.065574 h 4.77535 v -0.315725 c 0,-0.670917 -0.118398,-1.223437 -0.394658,-1.736491 -0.236795,-0.473588 -0.591985,-0.868244 -1.026108,-1.144505 z m -2.880995,1.223437 c 0.157863,-0.197328 0.355192,-0.355191 0.591986,-0.434122 0.236794,-0.118398 0.513054,-0.157863 0.749847,-0.157863 0.473589,0 0.947177,0.197328 1.223437,0.552519 0.236794,0.27626 0.394657,0.63145 0.434122,1.10504 H 10.61627 c 0,-0.118398 0.03946,-0.236795 0.07893,-0.355192 0.07893,-0.27626 0.197328,-0.513054 0.355191,-0.710382 z m 8.445658,-1.657559 h -0.355192 c -0.355191,0 -0.710383,0.07893 -1.026108,0.27626 -0.315725,0.197328 -0.552519,0.473589 -0.710382,0.868245 v -1.065574 h -1.223437 v 6.393441 h 1.223437 v -3.354582 c 0,-0.552521 0.157863,-0.986643 0.434122,-1.302369 0.27626,-0.315724 0.631451,-0.513053 1.065574,-0.473588 h 0.631451 v -1.341833 z m 5.051607,1.302368 c -0.03947,-0.07893 -0.07893,-0.118397 -0.118397,-0.197329 -0.197329,-0.315725 -0.513053,-0.591985 -0.828779,-0.789314 -0.315725,-0.197328 -0.749848,-0.315725 -1.223437,-0.27626 -0.394657,0 -0.789313,0.07893 -1.183969,0.236795 -0.355192,0.157862 -0.670919,0.394657 -0.947177,0.670917 -0.27626,0.315725 -0.473588,0.670916 -0.631452,1.065572 -0.157862,0.434124 -0.236794,0.907713 -0.236794,1.341835 0,0.670916 0.118398,1.223435 0.394658,1.73649 0.236794,0.473588 0.591984,0.868244 1.065573,1.18397 0.434122,0.27626 0.986642,0.434123 1.499696,0.434123 0.473589,0 0.868245,-0.07893 1.223436,-0.276261 0.315726,-0.197328 0.631451,-0.473588 0.82878,-0.789312 0.03946,-0.07893 0.07893,-0.118398 0.118396,-0.197329 v 1.144505 h 1.223437 v -8.87978 h -1.223437 v 3.591378 z m -0.473588,3.670309 c -0.157862,0.197329 -0.394656,0.355191 -0.63145,0.434123 -0.236795,0.118396 -0.513054,0.157862 -0.789315,0.157862 -0.552519,0 -1.026107,-0.197328 -1.381299,-0.591985 -0.35519,-0.394658 -0.552519,-0.947177 -0.552519,-1.618093 0,-0.315726 0.03946,-0.631451 0.157863,-0.947177 0.07893,-0.236794 0.236794,-0.473588 0.394656,-0.710382 0.157863,-0.197328 0.394657,-0.355192 0.591986,-0.434123 0.236794,-0.118397 0.513053,-0.157863 0.789313,-0.157863 0.55252,0 1.026109,0.197329 1.381299,0.591986 0.355192,0.394656 0.55252,0.947176 0.55252,1.618093 0,0.315725 -0.03947,0.631451 -0.157863,0.90771 -0.07893,0.315726 -0.197329,0.552521 -0.355191,0.749849 z m 6.235578,-4.972677 h -0.394656 c -0.355191,0 -0.710382,0.07893 -1.026108,0.27626 -0.315725,0.197328 -0.552519,0.473589 -0.710383,0.868245 v -1.065574 h -1.223435 v 6.393441 h 1.223435 v -3.354582 c 0,-0.552521 0.157864,-0.986643 0.434123,-1.302369 0.27626,-0.315724 0.631452,-0.513053 1.065574,-0.473588 h 0.63145 z m 4.893747,0.434122 c -0.513054,-0.27626 -1.10504,-0.434122 -1.65756,-0.434122 -0.434122,0 -0.868244,0.07893 -1.302367,0.236794 -0.394657,0.157862 -0.749848,0.394656 -1.026108,0.670917 -0.315725,0.315726 -0.513054,0.670916 -0.670917,1.065574 -0.157863,0.434122 -0.236795,0.868245 -0.236795,1.341833 0,0.670916 0.157863,1.223436 0.434124,1.73649 0.27626,0.473588 0.670916,0.90771 1.144504,1.18397 0.513054,0.27626 1.065575,0.434123 1.657559,0.434123 0.434123,0 0.868245,-0.07893 1.302369,-0.236795 0.394656,-0.157862 0.749847,-0.394656 1.026107,-0.670916 0.315725,-0.315725 0.513054,-0.670916 0.670917,-1.065573 0.157863,-0.434123 0.236794,-0.907711 0.236794,-1.341833 0,-0.670917 -0.157862,-1.262903 -0.434123,-1.736491 -0.236794,-0.513054 -0.670916,-0.90771 -1.144504,-1.183971 z m 0.157862,3.828172 c -0.07893,0.27626 -0.236794,0.513055 -0.434122,0.710383 -0.157863,0.197329 -0.394657,0.355191 -0.631452,0.434123 -0.236794,0.118396 -0.513054,0.157862 -0.789314,0.157862 -0.35519,0 -0.710382,-0.07893 -0.986642,-0.27626 -0.315725,-0.197328 -0.552519,-0.434122 -0.710382,-0.749848 -0.157863,-0.315726 -0.27626,-0.710382 -0.27626,-1.18397 0,-0.315726 0.03946,-0.631451 0.157863,-0.947177 0.07893,-0.236794 0.236794,-0.473588 0.394657,-0.710382 0.157863,-0.197328 0.394657,-0.355192 0.631452,-0.434123 0.236794,-0.07893 0.513054,-0.157863 0.789312,-0.157863 0.355192,0 0.710383,0.07893 1.026109,0.27626 0.315726,0.197328 0.55252,0.434122 0.710382,0.749848 0.157863,0.315726 0.27626,0.710383 0.27626,1.183971 0,0.355191 -0.03947,0.670916 -0.157863,0.947176 z m 3.512447,0.986642 c -0.118397,-0.118396 -0.157863,-0.315724 -0.157863,-0.552519 v -6.985427 h -1.223437 v 7.064359 c 0,0.315725 0.03946,0.631451 0.197328,0.90771 0.118398,0.276259 0.315726,0.473589 0.591986,0.631451 0.276261,0.157862 0.631451,0.236794 0.947177,0.236794 h 0.710383 v -1.065574 h -0.513055 c -0.236794,-0.03946 -0.434122,-0.07893 -0.552519,-0.236794 z m 6.748633,-3.828171 c -0.157862,-0.315726 -0.35519,-0.591985 -0.63145,-0.789315 -0.27626,-0.197328 -0.591987,-0.35519 -0.907711,-0.434122 -0.355192,-0.07893 -0.710383,-0.157863 -1.065574,-0.157863 -0.55252,0 -1.065574,0.118397 -1.578628,0.394657 -0.473588,0.276261 -0.828778,0.670917 -1.026108,1.183971 l 0.986643,0.55252 c 0.118397,-0.315726 0.315725,-0.55252 0.591985,-0.749848 0.276259,-0.157863 0.591986,-0.27626 0.986642,-0.27626 0.27626,0 0.55252,0.03947 0.82878,0.157863 0.236794,0.07893 0.473588,0.276259 0.591984,0.473587 0.157865,0.236794 0.236795,0.513054 0.236795,0.907712 v 0.710382 c -0.03946,-0.03946 -0.07893,-0.07893 -0.157863,-0.118397 -0.394656,-0.35519 -0.947176,-0.513054 -1.697024,-0.513054 -0.434123,0 -0.907711,0.07893 -1.302368,0.236794 -0.355191,0.118398 -0.670916,0.355192 -0.947176,0.670917 -0.434123,0.631451 -0.473589,1.499697 0,2.131147 0.236794,0.315726 0.55252,0.55252 0.90771,0.670916 0.394657,0.157864 0.828779,0.236795 1.262903,0.236795 0.749847,0 1.341833,-0.197329 1.736489,-0.552519 l 0.236795,-0.236795 v 0.631451 h 1.18397 v -3.986035 c 0.03947,-0.394656 -0.03946,-0.789314 -0.236794,-1.144504 z m -1.381299,4.0255 c -0.315726,0.157863 -0.670916,0.276259 -1.144504,0.276259 -0.473588,0 -0.828781,-0.07893 -1.144506,-0.276259 -0.315725,-0.157863 -0.473588,-0.434122 -0.473588,-0.749848 0,-0.315726 0.157863,-0.631451 0.473588,-0.789314 0.315725,-0.157863 0.670918,-0.27626 1.144506,-0.27626 0.434122,0 0.828778,0.07893 1.144504,0.27626 0.276261,0.157863 0.473589,0.473588 0.434123,0.789314 0,0.315726 -0.157862,0.591985 -0.434123,0.749848 z"
     id="path6"
     style="stroke-width:0.394656" />
  <g
     id="g842"
     transform="translate(7.580189e-5)">
    <path
       d="m 24.7,24.3 c 0,2.6 1,5 2.8,6.9 3.5,3.5 8.2,3.5 11.2,1.8 3.7,-2 12,-8 3.4,-33 0.1,11.8 -17.4,13 -17.4,24.3 z"
       style="fill:#ff9c1a"
       id="path8" />
    <path
       d="M 32.7,10.4 C 32.1,7.3 31.2,4.2 29.8,0.1 c 0,11.8 -17.4,13 -17.4,24.3 0,2.6 1,5 2.8,6.9 3.5,3.5 8.3,3.5 11.2,1.8 -6.9,-7.5 -4.5,-16 6.3,-22.7 z"
       style="fill:#0da9ff"
       id="path10" />
    <path
       class="cls-3"
       d="M 20.3,10.4 C 19.7,7.3 18.8,4.2 17.4,0.1 17.4,11.8 0,13 0,24.3 0,30.1 4.7,32.6 4.7,32.6 4,35.7 3.8,38.9 4.3,42.1 L 6.5,41.7 C 5.4,37.9 6.1,33.7 6.1,33.3 9,34.4 11.9,34.1 14,32.9 7.1,25.6 9.6,17.1 20.3,10.4 Z"
       id="path12" />
  </g>
</svg>
