<?xml version="1.0" encoding="UTF-8" standalone="no"?>
<!-- Created with Inkscape (http://www.inkscape.org/) -->

<svg
   xmlns:dc="http://purl.org/dc/elements/1.1/"
   xmlns:cc="http://creativecommons.org/ns#"
   xmlns:rdf="http://www.w3.org/1999/02/22-rdf-syntax-ns#"
   xmlns:svg="http://www.w3.org/2000/svg"
   xmlns="http://www.w3.org/2000/svg"
   xmlns:sodipodi="http://sodipodi.sourceforge.net/DTD/sodipodi-0.dtd"
   xmlns:inkscape="http://www.inkscape.org/namespaces/inkscape"
   width="187.99336"
   height="50.775108"
   viewBox="0 0 49.739909 13.434247"
   version="1.1"
   id="svg773"
   inkscape:version="0.92.0 r15299"
   sodipodi:docname="michaels.svg">
  <defs
     id="defs767" />
  <sodipodi:namedview
     id="base"
     pagecolor="#ffffff"
     bordercolor="#666666"
     borderopacity="1.0"
     inkscape:pageopacity="0.0"
     inkscape:pageshadow="2"
     inkscape:zoom="4.7969615"
     inkscape:cx="93.996681"
     inkscape:cy="25.387555"
     inkscape:document-units="mm"
     inkscape:current-layer="layer1"
     showgrid="false"
     fit-margin-top="0"
     fit-margin-left="0"
     fit-margin-right="0"
     fit-margin-bottom="0"
     units="px"
     inkscape:window-width="1280"
     inkscape:window-height="744"
     inkscape:window-x="-4"
     inkscape:window-y="-4"
     inkscape:window-maximized="1" />
  <metadata
     id="metadata770">
    <rdf:RDF>
      <cc:Work
         rdf:about="">
        <dc:format>image/svg+xml</dc:format>
        <dc:type
           rdf:resource="http://purl.org/dc/dcmitype/StillImage" />
        <dc:title></dc:title>
      </cc:Work>
    </rdf:RDF>
  </metadata>
  <g
     inkscape:label="Layer 1"
     inkscape:groupmode="layer"
     id="layer1"
     transform="translate(12.26445,-141.98392)">
    <g
       transform="translate(184.98054,-76.623876)"
       id="g754">
      <path
         id="path733"
         d="m -149.27778,225.33425 c 0.10583,0.37042 0.5027,0.39687 0.60854,-0.0794 0.10583,-0.58208 -0.39688,-1.03187 -1.00542,-1.21708 -1.32292,-0.39687 -3.175,1.00542 -2.01083,2.61938 0.55562,0.74083 1.42875,0.87312 2.06375,1.32291 0.23812,0.15875 1.40229,1.05834 0.0794,2.38125 -0.97896,1.00542 -2.8575,0.52917 -2.96333,-0.60854 -0.0265,-0.29104 0.29104,-0.26458 0.13229,-0.9525 -0.0794,-0.37042 -0.87312,-0.37042 -1.05833,0.34396 -0.0794,0.47625 -0.0794,1.64042 1.53458,2.38125 2.24896,1.08479 5.26521,-1.13771 3.91583,-3.14854 -0.87312,-1.27 -2.69875,-1.69334 -3.01625,-2.48709 -0.42333,-1.00541 1.45521,-1.40229 1.7198,-0.55562 m -35.71875,4.97417 c -0.26459,-1.05834 -0.0794,-3.22792 0.0794,-4.49792 0.29104,-2.30188 0.9525,-3.57188 0.9525,-4.94771 0,-0.66146 -0.18521,-2.01083 -1.61396,-2.06375 -3.51896,-0.10583 -4.81541,8.41375 -4.97416,9.60438 -0.0794,-0.52917 -0.0265,-3.70417 -0.26459,-5.97959 -0.42333,-3.36021 -1.16416,-3.57187 -1.87854,-3.62479 -2.61937,-0.18521 -2.77812,4.84188 -2.75167,9.65729 0,-0.97896 0.10584,-2.98979 -0.79375,-3.99521 -0.47625,-0.52916 -1.19062,-0.47625 -0.71437,0.21167 l 0.18521,0.34396 c 0.89958,1.32292 0.71437,6.82625 1.64041,6.77333 0.29105,0 0.74084,-0.13229 0.68792,-1.34937 -0.10583,-3.70417 0.18521,-10.31875 1.42875,-10.31875 1.34938,0 1.05833,6.56166 1.45521,9.12812 0.21167,1.29646 1.5875,1.40229 1.98437,-0.44979 0.55563,-2.46062 0.58209,-4.04812 1.79917,-6.61458 1.64042,-3.43959 2.98979,-2.30188 2.38125,0.0794 -0.26458,1.21709 -1.27,4.15396 -0.79375,7.54063 0.15875,0.97896 0.79375,2.2225 1.27,1.95791 0.26458,-0.13229 0.13229,-0.60854 -0.0794,-1.42875 m 2.06375,-5.21229 c -0.34396,0.26459 -1.45521,2.61938 -0.97896,4.97417 0.47625,1.98437 1.85208,2.48708 3.36021,0.66146 0.87312,1.85208 3.86291,1.00541 5.42395,-1.27 0.10584,1.08479 0.18521,1.27 0.21167,1.34937 0.13229,0.66146 0.87313,0.92604 1.05833,0.37042 0.15875,-0.50271 0.74084,-2.96333 2.14313,-4.41854 0.37042,-0.37042 1.64042,-0.89959 1.29646,0.44979 -0.0794,0.34396 -0.66146,2.35479 -0.66146,3.25437 0.0265,0.89959 0.3175,1.69334 0.92604,1.32292 0.26458,-0.18521 0.15875,-0.9525 0.13229,-1.40229 -0.15875,-1.95792 0.47625,-2.91042 0.79375,-3.70417 0.29104,-0.82021 0.0794,-1.79916 -1.29646,-1.5875 -1.4552,0.21167 -2.91041,1.905 -3.62479,4.04813 0,-3.41313 1.82563,-6.79979 3.01625,-9.71021 0.18521,-0.34396 -0.58208,-1.19062 -1.40229,-0.3175 a 23.547916,23.547916 0 0 0 -2.51354,8.255 c -0.0529,0.42333 -0.68792,2.11667 -1.66688,2.8575 -0.97895,0.71437 -2.64583,1.05833 -2.64583,-0.71438 -0.0529,-1.79916 0.9525,-3.38666 1.69333,-3.70416 0.42334,-0.15875 0.60855,0.18521 0.79375,0.39687 0.23813,0.26459 1.16417,0.44979 1.13771,-0.39687 0,-0.87313 -0.97896,-1.5875 -2.35479,-0.92604 -1.95792,0.97895 -2.54,3.28083 -2.69875,4.23333 -0.21167,1.27 -0.71437,1.82562 -0.82021,1.905 -0.13229,0.0794 -0.89958,0.84667 -1.00541,-0.9525 -0.0529,-1.16417 0.26458,-2.38125 0.58208,-3.22792 l 0.34396,-1.00541 a 0.76729166,0.76729166 0 0 0 -1.24354,-0.74084"
         inkscape:connector-curvature="0"
         style="fill:#d30e2c;fill-rule:evenodd;stroke-width:0.26458332" />
      <path
         id="path735"
         d="m -181.53049,222.55612 c -0.52917,0.0529 -1.13771,0.74084 -0.76729,1.48167 0.21166,0.3175 0.52916,0.39688 0.84666,0.26458 0.29104,-0.10583 0.79375,-0.60854 0.79375,-1.05833 0,-0.44979 -0.26458,-0.74083 -0.87312,-0.68792 m 17.38312,3.70417 c 0.0794,0.18521 0.44979,0.26458 0.55563,-0.18521 0.13229,-0.47625 -0.26459,-1.66687 -1.19063,-1.69333 -0.89958,-0.0265 -1.5875,0.47625 -2.30187,1.21708 -0.60854,0.68792 -2.43417,3.22792 -2.32834,5.10646 0.0794,0.97896 0.97896,1.32292 2.0373,0.74083 1.27,-0.74083 2.16958,-2.11666 2.38125,-2.38125 0,1.64042 1.40229,2.69875 3.06916,1.13771 a 3.4395833,3.4395833 0 0 0 0.97896,1.19063 c 1.21708,0.79375 3.36021,0.66146 4.94771,-1.85209 0.3175,1.19063 0.52917,1.64042 0.635,1.85209 0.3175,0.635 0.9525,0.74083 1.00542,-0.0794 0.0264,-0.26458 -0.26459,-0.87312 -0.47625,-1.69333 -0.635,-2.38125 -1.53459,-6.50875 0.47625,-9.28688 0.84666,-0.9525 1.74625,-1.19062 1.85208,-0.10583 0.0794,0.60854 -0.0265,3.25438 -1.98438,6.77333 -0.29104,0.60855 0.3175,0.79375 0.50271,0.37042 0.26459,-0.635 2.80459,-4.49792 2.75167,-7.09083 -0.0529,-1.56104 -2.32833,-2.38125 -3.96875,-0.26459 -1.5875,1.98438 -1.69333,5.92667 -1.13771,8.14917 -1.05833,1.93146 -2.2225,3.4925 -3.73062,2.72521 -1.5875,-1.00542 -1.0848,-4.39208 -0.0529,-5.13292 0.71437,-0.50271 1.16417,0.0794 0.76729,0.79375 -0.52917,0.97896 -0.89958,1.13771 -1.21708,1.37584 -0.44979,0.34395 -0.15875,0.79375 0.26458,0.635 1.24354,-0.4498 1.85208,-1.45521 2.11667,-2.27542 0.68791,-2.2225 -2.03729,-3.01625 -3.38667,-0.47625 -0.9525,1.71979 -0.58208,3.22792 -0.58208,3.43958 -0.29104,0.3175 -1.21709,1.53459 -1.34938,0.71438 -0.15875,-0.79375 0.0794,-2.09021 0.13229,-2.43417 0.1323,-0.92604 -0.79375,-1.29646 -1.32291,-0.50271 -0.52917,0.84667 -1.61396,3.06917 -2.91042,3.70417 -1.27,0.66146 -0.10583,-3.09563 0.84667,-4.18042 0.58208,-0.71437 1.48166,-1.48166 2.38125,-0.58208 0.13229,0.15875 0.15875,0.10583 0.23812,0.29104 m 16.06021,-2.19604 h 0.0265 c 0.0529,0 0.10583,0 0.10583,-0.0529 0,-0.0265 -0.0265,-0.0529 -0.0794,-0.0529 h -0.0529 z m 0,0.23812 h -0.10583 v -0.39687 h 0.29104 l 0.0265,0.10583 c 0,0.0265 0,0.0794 -0.0794,0.0794 0.0529,0 0.0794,0.0529 0.0794,0.10583 l 0.0265,0.10583 h -0.0794 l -0.0529,-0.10583 c 0,-0.0265 0,-0.0529 -0.0794,-0.0529 h -0.0265 z m 0.0529,-0.52916 c -0.15875,0 -0.29104,0.13229 -0.29104,0.3175 0,0.18521 0.13229,0.3175 0.29104,0.3175 0.18521,0 0.29104,-0.13229 0.29104,-0.3175 0,-0.18521 -0.10583,-0.3175 -0.29104,-0.3175 z m 0,-0.0794 c 0.23812,0 0.39687,0.18521 0.39687,0.39688 0,0.21166 -0.15875,0.39687 -0.39687,0.39687 -0.21167,0 -0.39688,-0.18521 -0.39688,-0.39687 0,-0.21167 0.18521,-0.39688 0.39688,-0.39688 z"
         inkscape:connector-curvature="0"
         style="fill:#d30e2c;fill-rule:evenodd;stroke-width:0.26458332" />
    </g>
  </g>
</svg>
